<svg width="24" height="24" viewBox="0 0 24 24" fill="none" xmlns="http://www.w3.org/2000/svg">
<path d="M12 2.5C13.875 2.52604 15.5547 2.98177 17.0391 3.86719C18.5495 4.7526 19.7474 5.95052 20.6328 7.46094C21.5182 8.94531 21.974 10.625 22 12.5C21.974 14.375 21.5182 16.0547 20.6328 17.5391C19.7474 19.0495 18.5495 20.2474 17.0391 21.1328C15.5547 22.0182 13.875 22.474 12 22.5C10.125 22.474 8.44531 22.0182 6.96094 21.1328C5.45052 20.2474 4.2526 19.0495 3.36719 17.5391C2.48177 16.0547 2.02604 14.375 2 12.5C2.02604 10.625 2.48177 8.94531 3.36719 7.46094C4.2526 5.95052 5.45052 4.7526 6.96094 3.86719C8.44531 2.98177 10.125 2.52604 12 2.5ZM12 20.625C14.2917 20.5729 16.2057 19.7786 17.7422 18.2422C19.2786 16.7057 20.0729 14.7917 20.125 12.5C20.0729 10.2083 19.2786 8.29427 17.7422 6.75781C16.2057 5.22135 14.2917 4.42708 12 4.375C9.70833 4.42708 7.79427 5.22135 6.25781 6.75781C4.72135 8.29427 3.92708 10.2083 3.875 12.5C3.92708 14.7917 4.72135 16.7057 6.25781 18.2422C7.79427 19.7786 9.70833 20.5729 12 20.625ZM15.9844 13.7109C16.4531 14.0495 16.5703 14.4792 16.3359 15C16.1276 15.3125 15.8542 15.4688 15.5156 15.4688C15.3854 15.4688 15.2682 15.4427 15.1641 15.3906C15.112 15.3646 15.0729 15.3516 15.0469 15.3516L11.5312 13.3203C11.2188 13.138 11.0625 12.8646 11.0625 12.5V7.1875C11.1146 6.61458 11.4271 6.30208 12 6.25C12.5729 6.30208 12.8854 6.61458 12.9375 7.1875V11.9531L15.9844 13.7109Z" fill="white"/>
</svg>
