<svg width="24" height="24" viewBox="0 0 24 24" fill="none" xmlns="http://www.w3.org/2000/svg">
<path d="M12 2.8125C17.3125 2.8125 21.6875 7.1875 21.6875 12.5C21.6875 17.8516 17.3125 22.1875 12 22.1875C6.64844 22.1875 2.3125 17.8516 2.3125 12.5C2.3125 7.1875 6.64844 2.8125 12 2.8125ZM18.3672 7.30469C18.2109 7.53906 16.8438 9.29688 13.7578 10.5469C14.0703 11.1719 14.2656 11.6406 14.5 12.1875C17.2344 11.8359 19.9688 12.3828 20.2422 12.4609C20.2422 10.5078 19.5391 8.71094 18.3672 7.30469ZM17.4688 6.32812C15.4375 4.53125 12.6641 3.86719 10.0469 4.49219C10.2812 4.80469 11.7656 6.83594 13.1328 9.33594C16.0625 8.24219 17.3125 6.5625 17.4688 6.32812ZM8.44531 5.03906C6.14062 6.13281 4.42188 8.28125 3.875 10.8203C4.26562 10.8594 7.66406 10.8594 11.5312 9.84375C10.1641 7.38281 8.67969 5.35156 8.44531 5.03906ZM3.71875 12.5391C3.71875 14.6484 4.5 16.6016 5.82812 18.0469C7.15625 15.7812 9.89062 13.3594 12.8984 12.5C12.6641 12.0312 12.4688 11.5625 12.1953 11.0938C8.09375 12.3438 4.07031 12.3047 3.71875 12.2656C3.71875 12.3828 3.71875 12.4609 3.71875 12.5391ZM6.88281 19.0625C9.34375 20.9766 12.5469 21.2891 15.2031 20.1562C15.0859 19.4141 14.6172 16.875 13.4453 13.8672C10.125 15 7.78125 17.3047 6.88281 19.0625ZM16.6094 19.375C18.4453 18.125 19.7734 16.1328 20.1641 13.8281C19.8516 13.75 17.5859 13.0859 15.0078 13.4766C16.0625 16.4844 16.5312 18.9062 16.6094 19.375Z" fill="white"/>
</svg>
