<svg width="24" height="24" viewBox="0 0 24 24" fill="none" xmlns="http://www.w3.org/2000/svg">
<path d="M20.1484 11.7578C20.5781 12.1875 20.5781 12.8906 20.1484 13.3203L12.5312 20.9375C12.1016 21.3672 11.3984 21.3672 10.9688 20.9375L3.3125 13.2812C2.88281 12.8516 2.88281 12.1484 3.3125 11.7188L8.54688 6.44531L10.5391 8.4375C10.3047 9.02344 10.4609 9.88281 11.2812 10.1953V15C10.3828 15.3516 10.1484 16.5234 10.8125 17.1875C11.3594 17.7344 12.1797 17.7344 12.7266 17.1875C13.2344 16.6797 13.3516 15.5469 12.375 15.0391V10.2734L14.1719 12.1094C13.625 13.4375 15.3438 14.6094 16.3594 13.5547C17.375 12.5391 16.3203 10.8984 14.9922 11.3281L13.0391 9.41406C13.3906 8.35938 12.4141 7.34375 11.3594 7.69531L9.32812 5.70312L10.9297 4.10156C11.3594 3.67188 12.0625 3.67188 12.5312 4.10156L20.1484 11.7578Z" fill="white"/>
</svg>
