<svg width="24" height="24" viewBox="0 0 24 24" fill="none" xmlns="http://www.w3.org/2000/svg">
<path d="M11.75 8.00781C14.2109 8.00781 16.2422 10.0391 16.2422 12.5C16.2422 15 14.2109 16.9922 11.75 16.9922C9.25 16.9922 7.25781 15 7.25781 12.5C7.25781 10.0391 9.25 8.00781 11.75 8.00781ZM11.75 15.4297C13.3516 15.4297 14.6406 14.1406 14.6406 12.5C14.6406 10.8984 13.3516 9.60938 11.75 9.60938C10.1094 9.60938 8.82031 10.8984 8.82031 12.5C8.82031 14.1406 10.1484 15.4297 11.75 15.4297ZM17.4531 7.85156C17.4531 7.26562 16.9844 6.79688 16.3984 6.79688C15.8125 6.79688 15.3438 7.26562 15.3438 7.85156C15.3438 8.4375 15.8125 8.90625 16.3984 8.90625C16.9844 8.90625 17.4531 8.4375 17.4531 7.85156ZM20.4219 8.90625C20.5 10.3516 20.5 14.6875 20.4219 16.1328C20.3438 17.5391 20.0312 18.75 19.0156 19.8047C18 20.8203 16.75 21.1328 15.3438 21.2109C13.8984 21.2891 9.5625 21.2891 8.11719 21.2109C6.71094 21.1328 5.5 20.8203 4.44531 19.8047C3.42969 18.75 3.11719 17.5391 3.03906 16.1328C2.96094 14.6875 2.96094 10.3516 3.03906 8.90625C3.11719 7.5 3.42969 6.25 4.44531 5.23438C5.5 4.21875 6.71094 3.90625 8.11719 3.82812C9.5625 3.75 13.8984 3.75 15.3438 3.82812C16.75 3.90625 18 4.21875 19.0156 5.23438C20.0312 6.25 20.3438 7.5 20.4219 8.90625ZM18.5469 17.6562C19.0156 16.5234 18.8984 13.7891 18.8984 12.5C18.8984 11.25 19.0156 8.51562 18.5469 7.34375C18.2344 6.60156 17.6484 5.97656 16.9062 5.70312C15.7344 5.23438 13 5.35156 11.75 5.35156C10.4609 5.35156 7.72656 5.23438 6.59375 5.70312C5.8125 6.01562 5.22656 6.60156 4.91406 7.34375C4.44531 8.51562 4.5625 11.25 4.5625 12.5C4.5625 13.7891 4.44531 16.5234 4.91406 17.6562C5.22656 18.4375 5.8125 19.0234 6.59375 19.3359C7.72656 19.8047 10.4609 19.6875 11.75 19.6875C13 19.6875 15.7344 19.8047 16.9062 19.3359C17.6484 19.0234 18.2734 18.4375 18.5469 17.6562Z" fill="white"/>
</svg>
