<svg width="24" height="24" viewBox="0 0 24 24" fill="none" xmlns="http://www.w3.org/2000/svg">
<path d="M6.90625 20H3.27344V8.32031H6.90625V20ZM5.07031 6.75781C3.9375 6.75781 3 5.78125 3 4.60938C3 3.00781 4.71875 1.99219 6.125 2.8125C6.78906 3.16406 7.17969 3.86719 7.17969 4.60938C7.17969 5.78125 6.24219 6.75781 5.07031 6.75781ZM20.4609 20H16.8672V14.3359C16.8672 12.9688 16.8281 11.25 14.9531 11.25C13.0781 11.25 12.8047 12.6953 12.8047 14.2188V20H9.17188V8.32031H12.6484V9.92188H12.6875C13.1953 9.02344 14.3672 8.04688 16.125 8.04688C19.7969 8.04688 20.5 10.4688 20.5 13.5938V20H20.4609Z" fill="white"/>
</svg>
