<svg width="24" height="24" viewBox="0 0 24 24" fill="none" xmlns="http://www.w3.org/2000/svg">
<path d="M12 2.5C14.1354 2.55208 15.9062 3.28125 17.3125 4.6875C18.7188 6.09375 19.4479 7.86458 19.5 10C19.5 10.8073 19.3958 11.5365 19.1875 12.1875C18.9792 12.8646 18.5755 13.6589 17.9766 14.5703C17.3776 15.5078 16.5182 16.7578 15.3984 18.3203C14.6693 19.362 13.7969 20.625 12.7812 22.1094C12.5729 22.3698 12.3125 22.5 12 22.5C11.6875 22.5 11.4271 22.3698 11.2188 22.1094C10.2292 20.651 9.35677 19.401 8.60156 18.3594C7.48177 16.7708 6.6224 15.5078 6.02344 14.5703C5.42448 13.6589 5.02083 12.8646 4.8125 12.1875C4.60417 11.5365 4.5 10.8073 4.5 10C4.55208 7.86458 5.28125 6.09375 6.6875 4.6875C8.09375 3.28125 9.86458 2.55208 12 2.5ZM12 19.9219C12.2083 19.6094 12.4167 19.3099 12.625 19.0234C13.0677 18.3724 13.4714 17.7865 13.8359 17.2656C14.9557 15.6771 15.7891 14.4661 16.3359 13.6328C16.8828 12.7995 17.2344 12.1354 17.3906 11.6406C17.5729 11.1198 17.651 10.5729 17.625 10C17.5729 8.41146 17.026 7.08333 15.9844 6.01562C14.9167 4.97396 13.5885 4.42708 12 4.375C10.4115 4.42708 9.08333 4.97396 8.01562 6.01562C6.97396 7.08333 6.42708 8.41146 6.375 10C6.34896 10.5729 6.42708 11.1198 6.60938 11.6406C6.76562 12.1354 7.11719 12.7995 7.66406 13.6328C8.21094 14.4661 9.04427 15.6771 10.1641 17.2656C10.7109 18.0469 11.3229 18.9323 12 19.9219ZM12 6.83594C12.8854 6.86198 13.6276 7.17448 14.2266 7.77344C14.7995 8.34635 15.099 9.07552 15.125 9.96094C15.099 10.8464 14.7995 11.5885 14.2266 12.1875C13.6276 12.7604 12.8854 13.0599 12 13.0859C11.1146 13.0599 10.3724 12.7604 9.77344 12.1875C9.20052 11.5885 8.90104 10.8464 8.875 9.96094C8.90104 9.07552 9.20052 8.34635 9.77344 7.77344C10.3724 7.17448 11.1146 6.86198 12 6.83594ZM12 11.25C12.3646 11.25 12.6641 11.1328 12.8984 10.8984C13.1328 10.6641 13.25 10.3646 13.25 10C13.25 9.63542 13.1328 9.33594 12.8984 9.10156C12.6641 8.86719 12.3646 8.75 12 8.75C11.6354 8.75 11.3359 8.86719 11.1016 9.10156C10.8672 9.33594 10.75 9.63542 10.75 10C10.75 10.3646 10.8672 10.6641 11.1016 10.8984C11.3359 11.1328 11.6354 11.25 12 11.25Z" fill="white"/>
</svg>
