<svg width="24" height="24" viewBox="0 0 24 24" fill="none" xmlns="http://www.w3.org/2000/svg">
<path d="M19.5 5C20.2031 5.02604 20.7891 5.27344 21.2578 5.74219C21.7266 6.21094 21.974 6.79688 22 7.5V17.5C21.974 18.2031 21.7266 18.7891 21.2578 19.2578C20.7891 19.7266 20.2031 19.974 19.5 20H4.5C3.79688 19.974 3.21094 19.7266 2.74219 19.2578C2.27344 18.7891 2.02604 18.2031 2 17.5V7.5C2.02604 6.79688 2.27344 6.21094 2.74219 5.74219C3.21094 5.27344 3.79688 5.02604 4.5 5H19.5ZM4.5 6.875C4.10938 6.90104 3.90104 7.10938 3.875 7.5V8.35938L10.3984 13.75C10.8672 14.1406 11.401 14.3359 12 14.3359C12.599 14.3359 13.1328 14.1406 13.6016 13.75L20.125 8.35938V7.5C20.099 7.10938 19.8906 6.90104 19.5 6.875H4.5ZM19.5 18.125C19.8906 18.099 20.099 17.8906 20.125 17.5V10.8203L14.8125 15.2344C13.9792 15.9115 13.0417 16.25 12 16.25C10.9583 16.25 10.0208 15.9115 9.1875 15.2344L3.875 10.8203V17.5C3.90104 17.8906 4.10938 18.099 4.5 18.125H19.5Z" fill="white"/>
</svg>
