<svg width="24" height="24" viewBox="0 0 24 24" fill="none" xmlns="http://www.w3.org/2000/svg">
<path d="M16.375 2.5C17.0781 2.52604 17.6641 2.77344 18.1328 3.24219C18.6016 3.71094 18.849 4.29688 18.875 5V20C18.849 20.7031 18.6016 21.2891 18.1328 21.7578C17.6641 22.2266 17.0781 22.474 16.375 22.5H7.625C6.92188 22.474 6.33594 22.2266 5.86719 21.7578C5.39844 21.2891 5.15104 20.7031 5.125 20V5C5.15104 4.29688 5.39844 3.71094 5.86719 3.24219C6.33594 2.77344 6.92188 2.52604 7.625 2.5H16.375ZM17 20V5C16.974 4.60938 16.7656 4.40104 16.375 4.375H7.625C7.23438 4.40104 7.02604 4.60938 7 5V20C7.02604 20.3906 7.23438 20.599 7.625 20.625H16.375C16.7656 20.599 16.974 20.3906 17 20ZM13.25 18.125C13.6406 18.151 13.849 18.3594 13.875 18.75C13.849 19.1406 13.6406 19.349 13.25 19.375H10.75C10.3594 19.349 10.151 19.1406 10.125 18.75C10.151 18.3594 10.3594 18.151 10.75 18.125H13.25Z" fill="white"/>
</svg>
