<svg width="24" height="24" viewBox="0 0 24 24" fill="none" xmlns="http://www.w3.org/2000/svg">
<path d="M21.9453 7.38281C22.4141 9.02344 22.4141 12.5391 22.4141 12.5391C22.4141 12.5391 22.4141 16.0156 21.9453 17.6953C21.7109 18.6328 20.9688 19.3359 20.0703 19.5703C18.3906 20 11.75 20 11.75 20C11.75 20 5.07031 20 3.39062 19.5703C2.49219 19.3359 1.75 18.6328 1.51562 17.6953C1.04688 16.0156 1.04688 12.5391 1.04688 12.5391C1.04688 12.5391 1.04688 9.02344 1.51562 7.38281C1.75 6.44531 2.49219 5.70312 3.39062 5.46875C5.07031 5 11.75 5 11.75 5C11.75 5 18.3906 5 20.0703 5.46875C20.9688 5.70312 21.7109 6.44531 21.9453 7.38281ZM9.5625 15.7031L15.1094 12.5391L9.5625 9.375V15.7031Z" fill="white"/>
</svg>
