<svg width="200" height="200" viewBox="0 0 200 200" fill="none" xmlns="http://www.w3.org/2000/svg">
<path d="M78.8476 107.563C78.8476 107.563 54.2785 102.102 47.1899 109.005C37.2551 118.681 35.8664 144.01 34.1172 155.305L78.8476 157.533V107.563Z" fill="white"/>
<path d="M78.8475 107.563V157.532L43.2674 155.762L34.1157 155.307C35.8669 144.013 37.255 118.682 47.1905 109.005C54.2784 102.102 78.8475 107.563 78.8475 107.563Z" fill="white"/>
<g opacity="0.35">
<path d="M78.8471 111.218V157.531L43.2671 155.762C44.8428 143.235 46.97 122.591 55.7113 114.073C60.0711 109.825 71.0422 110.26 78.8471 111.218Z" fill="#371A45"/>
</g>
<path d="M78.8477 158.707C78.8281 158.707 78.8085 158.707 78.789 158.707L34.0586 156.479C33.8946 156.471 33.7341 156.429 33.5876 156.355C33.441 156.28 33.3117 156.176 33.2079 156.049C33.1041 155.922 33.0282 155.774 32.985 155.616C32.9419 155.457 32.9325 155.291 32.9575 155.129C33.2464 153.263 33.5212 151.047 33.8385 148.481C35.4155 135.752 37.798 116.517 46.3711 108.168C53.8263 100.905 78.0733 106.193 79.1022 106.42C79.3631 106.479 79.5964 106.624 79.7635 106.833C79.9306 107.041 80.0214 107.301 80.021 107.568V157.539C80.021 157.85 79.8974 158.148 79.6774 158.368C79.4573 158.588 79.1589 158.712 78.8477 158.712V158.707ZM35.4668 154.198L77.6737 156.303V108.513C70.3704 107.015 53.214 104.776 48.0089 109.846C40.0265 117.619 37.7048 136.363 36.1683 148.766C35.9158 150.789 35.6937 152.596 35.4668 154.198Z" fill="#371A45"/>
<path d="M37.5911 133.807L48.4306 136.429C48.9011 136.542 49.3208 136.808 49.6237 137.186C49.9266 137.563 50.0956 138.031 50.1042 138.514C50.1643 142.16 49.8665 150.587 45.9759 152.748C42.7469 154.542 38.1494 153.516 35.8068 150.768C33.1867 147.695 34.2163 139.551 34.9224 135.551C34.9743 135.257 35.086 134.977 35.2506 134.727C35.4151 134.478 35.629 134.265 35.8791 134.101C36.1292 133.938 36.4102 133.827 36.7046 133.777C36.9991 133.726 37.3008 133.736 37.5911 133.807Z" fill="white"/>
<g opacity="0.35">
<path d="M50.1028 138.516C50.1649 142.162 49.8658 150.588 45.9752 152.747C42.7455 154.542 38.1494 153.516 35.8054 150.768C34.1953 148.878 33.9644 145.068 34.1899 141.487C34.3958 143.328 34.9379 144.885 35.7494 145.981C40.4002 152.26 45.5681 146.602 45.5681 146.602C45.5681 146.602 46.0326 148.258 46.5895 148.439C48.918 149.195 49.6491 141.638 49.9367 137.719C50.0431 137.971 50.0995 138.242 50.1028 138.516Z" fill="#371A45"/>
</g>
<path d="M42.3291 154.817C39.5611 154.817 36.7257 153.651 34.9164 151.531C32.1742 148.315 32.779 140.956 33.7687 135.349C33.8486 134.897 34.0203 134.466 34.2731 134.082C34.526 133.699 34.8546 133.372 35.2388 133.121C35.623 132.869 36.0547 132.699 36.5071 132.621C36.9595 132.543 37.4231 132.559 37.8693 132.667L48.7088 135.289C49.4319 135.464 50.0767 135.873 50.542 136.454C51.0072 137.034 51.2667 137.752 51.2796 138.496C51.3572 143.178 50.8455 151.391 46.5485 153.775C45.2759 154.48 43.8143 154.817 42.3291 154.817ZM37.0754 134.919C36.8377 134.92 36.6077 135.004 36.4257 135.157C36.2438 135.31 36.1215 135.522 36.0803 135.756C34.8422 142.772 35.0744 148.099 36.7027 150.008C38.7564 152.418 42.7436 153.203 45.4116 151.723C47.7333 150.433 49.0511 145.503 48.9356 138.535C48.9311 138.311 48.8526 138.096 48.7124 137.921C48.5722 137.747 48.3782 137.624 48.1606 137.571L37.3211 134.948C37.2401 134.928 37.1569 134.918 37.0734 134.919L37.0754 134.919Z" fill="#371A45"/>
<path d="M39.9731 152.41C40.0766 152.381 40.1781 152.345 40.2769 152.302C40.397 152.251 40.5179 152.197 40.6381 152.132C40.8843 152.006 41.1214 151.863 41.3476 151.704C41.8179 151.378 42.2496 151 42.6343 150.576C43.4262 149.728 44.0642 148.702 44.5402 147.588C44.7767 147.025 44.9796 146.449 45.1478 145.862C45.3354 145.281 45.4664 144.654 45.6041 144.048C45.7418 143.442 45.8451 142.821 45.9228 142.203C45.9599 141.895 45.9903 141.586 46.0092 141.279C46.0295 140.983 46.0295 140.685 46.0092 140.389L46.0058 140.357C45.9984 140.277 46.0217 140.199 46.071 140.136C46.1203 140.074 46.1917 140.033 46.2704 140.022C46.3491 140.01 46.4291 140.03 46.4937 140.076C46.5584 140.123 46.6027 140.192 46.6175 140.27C46.678 140.605 46.7128 140.943 46.7214 141.283C46.7349 141.612 46.7309 141.938 46.7214 142.264C46.7018 142.915 46.6492 143.562 46.5736 144.205C46.498 144.849 46.421 145.483 46.2806 146.131C46.1587 146.783 45.9984 147.427 45.8006 148.06C45.3957 149.362 44.7695 150.583 43.9494 151.672C43.5264 152.233 43.0415 152.745 42.504 153.197C42.2303 153.431 41.941 153.646 41.6379 153.84C41.486 153.941 41.3246 154.034 41.1592 154.124C40.9745 154.225 40.7827 154.313 40.5854 154.387L40.5246 154.409C40.3958 154.459 40.2582 154.484 40.1198 154.48C39.9815 154.477 39.8452 154.446 39.7189 154.39C39.5927 154.333 39.4789 154.252 39.3843 154.151C39.2897 154.05 39.2161 153.931 39.1679 153.801C39.1197 153.672 39.0977 153.534 39.1034 153.396C39.1091 153.257 39.1422 153.122 39.2009 152.996C39.2596 152.871 39.3426 152.759 39.4452 152.666C39.5477 152.573 39.6677 152.501 39.7982 152.455C39.8552 152.435 39.9136 152.42 39.9731 152.41Z" fill="#371A45"/>
<path d="M57.8307 111.44C57.0368 111.178 56.2179 110.943 55.4003 110.733C54.5828 110.522 53.7632 110.337 52.9423 110.178C52.1213 110.018 51.2984 109.9 50.4815 109.811C49.6795 109.73 48.8733 109.697 48.0673 109.713H48.0592C47.9046 109.717 47.7508 109.69 47.6066 109.634C47.4623 109.579 47.3304 109.495 47.2185 109.388C47.1066 109.282 47.0168 109.154 46.9542 109.012C46.8916 108.871 46.8575 108.719 46.8538 108.564C46.8502 108.409 46.877 108.256 46.9327 108.111C46.9885 107.967 47.0722 107.835 47.1789 107.723C47.2856 107.611 47.4133 107.521 47.5548 107.459C47.6962 107.396 47.8486 107.362 48.0032 107.359C48.0653 107.358 48.1273 107.361 48.1889 107.369C50.0116 107.616 51.7095 108.115 53.3507 108.707C54.1694 109.008 54.9748 109.332 55.7669 109.678C56.5608 110.027 57.3372 110.391 58.1109 110.794C58.1892 110.835 58.2493 110.904 58.2791 110.987C58.3089 111.071 58.3063 111.162 58.2719 111.244C58.2374 111.326 58.1736 111.391 58.0931 111.428C58.0125 111.465 57.921 111.47 57.8368 111.443L57.8307 111.44Z" fill="#371A45"/>
<path d="M146.384 150.699H59.139L57.6416 129.508L66.048 113.038L68.4487 108.335L69.5579 108.411L123.462 112.097C123.462 112.097 125.126 114.848 127.408 117.835C129.001 119.921 130.897 122.125 132.742 123.586C139.687 129.094 147.736 131.984 150.394 139.63C152.821 146.614 146.384 150.699 146.384 150.699Z" fill="white"/>
<path d="M146.383 151.875H59.1392C58.8423 151.875 58.5563 151.762 58.339 151.56C58.1217 151.357 57.9891 151.08 57.9679 150.784L56.4726 129.591C56.4577 129.378 56.5011 129.165 56.5982 128.975L67.4052 107.801C67.5088 107.595 67.6709 107.425 67.8713 107.311C68.0716 107.198 68.301 107.146 68.5306 107.163L123.544 110.925C123.732 110.938 123.914 110.996 124.075 111.094C124.236 111.192 124.371 111.327 124.468 111.488C124.516 111.566 129.214 119.286 133.474 122.666C135.431 124.218 137.495 125.569 139.495 126.88C144.629 130.242 149.478 133.419 151.505 139.245C153.665 145.463 149.514 150.106 147.015 151.692C146.826 151.812 146.607 151.876 146.383 151.875ZM60.2316 149.527H146.016C147.117 148.717 151.132 145.326 149.285 140.017C147.521 134.945 143.204 132.118 138.205 128.844C136.162 127.505 134.049 126.121 132.011 124.504C128.044 121.357 123.95 115.088 122.78 113.226L69.1423 109.559L58.8355 129.751L60.2316 149.527Z" fill="#371A45"/>
<path d="M128.007 149.171L131.662 149.072C132.324 149.054 132.976 148.906 133.581 148.636C134.186 148.367 134.732 147.98 135.187 147.499C135.643 147.019 135.999 146.453 136.236 145.834C136.473 145.216 136.586 144.557 136.568 143.895C136.55 143.233 136.402 142.581 136.132 141.976C135.862 141.371 135.476 140.825 134.995 140.37C134.514 139.915 133.948 139.558 133.33 139.322C132.711 139.085 132.052 138.972 131.39 138.99L127.735 139.089C127.073 139.107 126.421 139.255 125.816 139.524C125.211 139.794 124.665 140.181 124.21 140.661C123.754 141.142 123.398 141.708 123.161 142.327C122.925 142.945 122.812 143.604 122.83 144.266C122.848 144.928 122.996 145.58 123.266 146.185C123.536 146.79 123.922 147.336 124.403 147.791C124.883 148.247 125.449 148.603 126.068 148.84C126.686 149.077 127.345 149.189 128.007 149.171Z" fill="white"/>
<g opacity="0.35">
<path d="M122.844 144.526C122.946 145.814 123.538 147.014 124.499 147.878C125.46 148.743 126.716 149.205 128.007 149.171L131.663 149.073C133 149.036 134.267 148.47 135.187 147.499C136.106 146.528 136.603 145.232 136.566 143.895C136.566 143.806 136.558 143.715 136.551 143.625C136.504 143.029 136.352 142.447 136.1 141.905C135.734 142.819 135.109 143.605 134.301 144.168C133.494 144.73 132.539 145.044 131.556 145.072L127.899 145.169C126.915 145.196 125.944 144.934 125.106 144.415C124.269 143.897 123.602 143.144 123.187 142.25C122.931 142.889 122.809 143.574 122.829 144.262C122.83 144.353 122.837 144.441 122.844 144.526Z" fill="#371A45"/>
</g>
<path d="M127.869 150.347C126.237 150.343 124.672 149.697 123.513 148.549C122.353 147.402 121.69 145.844 121.669 144.213C121.647 142.581 122.267 141.007 123.396 139.829C124.525 138.65 126.072 137.963 127.703 137.915L131.358 137.817C134.774 137.722 137.648 140.437 137.741 143.863C137.783 145.511 137.171 147.108 136.037 148.305C134.903 149.501 133.341 150.199 131.694 150.246L128.039 150.344C127.982 150.346 127.925 150.347 127.869 150.347ZM131.527 140.162H131.422L127.766 140.261C126.741 140.29 125.768 140.724 125.063 141.469C124.357 142.213 123.976 143.208 124.002 144.233C124.06 146.366 125.845 148.065 127.975 147.997L131.631 147.898C132.648 147.871 133.614 147.445 134.319 146.711C135.024 145.977 135.412 144.995 135.398 143.978C135.384 142.96 134.971 141.989 134.246 141.275C133.521 140.56 132.545 140.16 131.527 140.16V140.162Z" fill="#371A45"/>
<path d="M88.7426 159.022L83.4532 157.253C82.9025 157.069 82.4244 156.715 82.0877 156.242C81.7511 155.769 81.5732 155.201 81.5798 154.621L81.8498 136.926C81.8599 136.265 82.098 135.628 82.5238 135.123C82.9496 134.618 83.5369 134.275 84.1863 134.153L89.6817 133.119" fill="white"/>
<g opacity="0.35">
<path d="M83.4528 157.252L88.743 159.022L89.2452 145.104L84.5195 148.128C83.7708 147.878 82.4652 148.17 81.6753 148.049L81.5754 154.619C81.5688 155.201 81.7472 155.769 82.0847 156.242C82.4221 156.715 82.9013 157.069 83.4528 157.252Z" fill="#371A45"/>
</g>
<path d="M88.7424 160.196C88.6159 160.196 88.4903 160.175 88.3704 160.135L83.0803 158.367C82.2925 158.105 81.6086 157.6 81.1278 156.923C80.6469 156.247 80.3942 155.434 80.4062 154.605L80.6762 136.907C80.6922 135.976 81.0284 135.079 81.6282 134.367C82.228 133.655 83.0548 133.171 83.9694 132.997L89.4647 131.964C89.7706 131.906 90.0869 131.972 90.3439 132.148C90.6009 132.324 90.7776 132.594 90.8352 132.9C90.8927 133.206 90.8264 133.522 90.6508 133.779C90.4752 134.036 90.2047 134.213 89.8988 134.27L84.4021 135.307C84.019 135.38 83.6728 135.583 83.4215 135.881C83.1702 136.179 83.0292 136.555 83.0222 136.945L82.7522 154.64C82.748 154.972 82.8496 155.296 83.0424 155.567C83.2352 155.837 83.509 156.039 83.8242 156.143L89.1143 157.911C89.3785 158 89.6027 158.179 89.7466 158.418C89.8906 158.656 89.9451 158.938 89.9003 159.213C89.8555 159.488 89.7143 159.738 89.5021 159.919C89.2898 160.099 89.0203 160.198 88.7417 160.198L88.7424 160.196Z" fill="#371A45"/>
<path d="M60.4757 136.589C60.4757 136.589 57.9542 138.371 57.6167 141.433C57.2258 144.972 59.2214 146.597 59.2214 146.597C59.2214 146.597 68.0551 152.381 83.085 150.372C83.085 150.372 87.2105 144.685 82.0136 141.295C82.0136 141.296 67.5103 142.146 60.4757 136.589Z" fill="white"/>
<path d="M76.7812 151.975C65.4394 151.975 58.8983 147.789 58.579 147.58C58.5452 147.557 58.5115 147.534 58.4811 147.508C58.3792 147.425 55.9947 145.433 56.4504 141.305C56.8413 137.76 59.6781 135.717 59.7982 135.634C60.005 135.488 60.2537 135.413 60.507 135.419C60.7603 135.426 61.0045 135.515 61.2031 135.672C67.8009 140.883 81.8046 140.135 81.9457 140.128C82.1963 140.113 82.445 140.179 82.6552 140.316C84.3578 141.427 85.384 142.875 85.706 144.619C86.3089 147.884 84.129 150.937 84.0358 151.066C83.9422 151.194 83.8235 151.302 83.687 151.384C83.5504 151.465 83.3988 151.518 83.2412 151.539C81.0999 151.827 78.9418 151.973 76.7812 151.975ZM59.9306 145.656C60.7461 146.152 69.0067 150.913 82.392 149.279C82.8463 148.505 83.7165 146.741 83.3958 145.031C83.2088 144.033 82.6438 143.197 81.6736 142.487C79.2817 142.583 67.4154 142.795 60.5429 138.094C59.9002 138.748 58.9611 139.955 58.7836 141.563C58.5007 144.125 59.6794 145.413 59.9306 145.656Z" fill="#371A45"/>
<path d="M90.5808 159.273C97.1807 159.782 110.575 160.24 123.82 157.262C124.781 157.048 125.646 156.528 126.286 155.78C126.926 155.032 127.307 154.097 127.371 153.115L127.735 147.29L128.436 136.097C128.477 135.44 128.375 134.782 128.136 134.169C127.897 133.556 127.528 133.002 127.053 132.545C126.579 132.089 126.011 131.742 125.388 131.528C124.766 131.313 124.104 131.237 123.45 131.304C116.237 132.04 102.908 133.175 91.127 132.913C90.5268 132.901 89.9303 133.009 89.372 133.229C88.8137 133.45 88.3049 133.779 87.875 134.199C87.4452 134.618 87.103 135.118 86.8683 135.67C86.6336 136.223 86.5111 136.817 86.5079 137.417L86.4661 143.719L86.3986 154.723C86.3896 155.87 86.8164 156.978 87.5927 157.823C88.3691 158.667 89.4371 159.185 90.5808 159.273Z" fill="white"/>
<g opacity="0.35">
<path d="M90.5809 159.273C97.1807 159.783 110.575 160.24 123.82 157.262C124.781 157.048 125.646 156.528 126.286 155.78C126.926 155.032 127.307 154.097 127.371 153.115L127.735 147.29C122.415 152.618 112.906 155.64 101.579 154.767C100.752 154.706 99.9291 154.601 99.1136 154.451C100.052 153.596 100.692 152.223 100.762 150.656C100.886 147.949 99.2655 145.679 97.1456 145.584C97.1402 145.584 97.1315 145.584 97.1254 145.584L94.0685 145.449C92.0493 145.357 90.3062 147.272 90.0422 149.794C88.237 147.891 87.1392 145.708 86.4641 143.718L86.3966 154.722C86.3873 155.87 86.8143 156.978 87.5911 157.823C88.3679 158.668 89.4365 159.186 90.5809 159.273Z" fill="#371A45"/>
</g>
<path d="M100.448 160.826C96.4489 160.826 93.0167 160.644 90.4905 160.449C89.0524 160.333 87.7112 159.679 86.7349 158.616C85.7586 157.554 85.2193 156.163 85.2246 154.72L85.3374 137.411C85.3414 136.655 85.4956 135.908 85.7912 135.212C86.0868 134.516 86.5178 133.886 87.0591 133.358C87.6004 132.831 88.2413 132.416 88.9445 132.138C89.6476 131.86 90.3989 131.725 91.1548 131.741C102.956 132.003 116.379 130.849 123.331 130.137C124.155 130.053 124.989 130.149 125.772 130.419C126.556 130.689 127.271 131.126 127.869 131.7C128.466 132.275 128.932 132.973 129.232 133.745C129.533 134.517 129.661 135.346 129.609 136.173L128.54 153.192C128.382 155.709 126.546 157.854 124.076 158.41C115.685 160.297 107.248 160.826 100.448 160.826ZM91.0245 134.085C90.157 134.084 89.3237 134.423 88.7041 135.03C88.3823 135.341 88.1261 135.713 87.9506 136.124C87.7752 136.536 87.6841 136.978 87.6827 137.426L87.57 154.734C87.5671 155.584 87.8848 156.403 88.4596 157.029C89.0343 157.654 89.8239 158.04 90.6707 158.109C97.3617 158.625 110.533 159.055 123.562 156.122C124.273 155.961 124.913 155.574 125.387 155.021C125.862 154.467 126.145 153.775 126.195 153.048L127.261 136.028C127.291 135.54 127.216 135.053 127.039 134.598C126.862 134.143 126.588 133.732 126.236 133.394C125.884 133.056 125.463 132.798 125.002 132.639C124.54 132.48 124.05 132.424 123.564 132.474C116.558 133.191 103.026 134.353 91.0974 134.089L91.0245 134.085Z" fill="#371A45"/>
<path d="M99.0971 146.041C99.0728 146.581 98.1182 150.908 98.1182 150.908L95.0411 150.773C92.922 150.678 91.3024 148.41 91.4239 145.701C91.5454 142.991 93.3614 140.877 95.4799 140.975L98.5577 141.11C98.5577 141.11 99.137 145.159 99.0971 146.041Z" fill="#22A7F0"/>
<path d="M99.0971 146.041C99.0728 146.581 98.1182 150.908 98.1182 150.908L95.0411 150.773C92.922 150.678 91.3024 148.41 91.4239 145.701C91.5454 142.991 93.3614 140.877 95.4799 140.975L98.5577 141.11C98.5577 141.11 99.137 145.159 99.0971 146.041Z" fill="#22A7F0"/>
<path d="M91.4191 146.108C91.9498 144.034 93.512 142.561 95.2861 142.638L98.3633 142.777C98.3633 142.777 98.8088 145.883 98.8912 147.246C99.008 146.662 99.0937 146.198 99.0937 146.044C99.1356 145.166 98.5536 141.108 98.5536 141.108L95.4765 140.973C93.3567 140.878 91.5407 142.993 91.4205 145.699C91.4178 145.834 91.4171 145.973 91.4191 146.108Z" fill="white"/>
<g opacity="0.35">
<path d="M95.0404 150.766C96.7383 150.84 98.1182 150.901 98.1182 150.901C98.1182 150.901 99.0735 146.576 99.0964 146.036C99.1383 145.159 98.5564 141.101 98.5564 141.101C98.5516 141.101 98.5469 141.101 98.5422 141.101C98.5788 141.422 98.5966 141.745 98.5955 142.068C98.5726 142.608 97.6173 146.933 97.6173 146.933C97.6173 146.933 96.2354 146.873 94.5402 146.798C93.2811 146.74 92.1982 145.915 91.5522 144.685C91.4815 145.019 91.4384 145.358 91.4232 145.698C91.3037 148.403 92.9213 150.672 95.0404 150.766Z" fill="#371A45"/>
</g>
<path d="M97.2305 151.745H97.1387L95.0013 151.649C93.7011 151.591 92.5197 150.906 91.6758 149.723C90.8785 148.606 90.4775 147.162 90.5443 145.658C90.6874 142.471 92.9112 139.973 95.5198 140.089L97.6687 140.185C98.1366 140.206 98.5824 140.39 98.928 140.706C99.2736 141.022 99.497 141.45 99.559 141.914C99.8601 144.158 100.001 145.56 99.9782 146.08C99.9721 146.221 99.9553 146.592 99.1802 150.174C99.0845 150.619 98.8385 151.018 98.4836 151.304C98.1287 151.59 97.6863 151.746 97.2305 151.745ZM95.3402 141.844C93.7517 141.844 92.3988 143.562 92.3023 145.735C92.2523 146.848 92.5379 147.9 93.1077 148.699C93.6309 149.432 94.331 149.854 95.0797 149.888L97.217 149.984C97.2726 149.988 97.3277 149.971 97.372 149.938C97.4163 149.904 97.4466 149.855 97.4574 149.8C97.9974 147.316 98.2 146.199 98.2169 145.997C98.2229 145.843 98.2108 145.119 97.8118 142.149C97.8044 142.094 97.778 142.044 97.7372 142.007C97.6965 141.97 97.644 141.948 97.589 141.946L95.4402 141.85L95.3402 141.844Z" fill="#371A45"/>
<path d="M102.183 146.189C102.304 143.483 100.685 141.212 98.5658 141.117C96.4468 141.021 94.6305 143.138 94.509 145.845C94.3875 148.551 96.0069 150.822 98.1259 150.917C100.245 151.012 102.061 148.896 102.183 146.189Z" fill="#22A7F0"/>
<path d="M94.6626 147.54C94.8556 144.921 96.6366 142.905 98.7071 142.999C100.359 143.074 101.707 144.467 102.163 146.361C102.163 146.3 102.17 146.24 102.174 146.177C102.297 143.47 100.677 141.2 98.5572 141.105C96.4374 141.009 94.6221 143.13 94.5019 145.83C94.4748 146.405 94.5289 146.981 94.6626 147.54Z" fill="white"/>
<g opacity="0.35">
<path d="M98.1186 150.906C100.238 151.001 102.054 148.885 102.174 146.18C102.217 145.346 102.083 144.512 101.78 143.733C101.325 145.953 99.7031 147.565 97.8472 147.48C96.4187 147.413 95.2143 146.362 94.6243 144.851C94.557 145.176 94.5161 145.505 94.5021 145.836C94.3799 148.539 96.0001 150.811 98.1186 150.906Z" fill="#371A45"/>
</g>
<path d="M98.2587 151.788C98.1993 151.788 98.1392 151.788 98.0792 151.784C96.7782 151.726 95.5968 151.042 94.7529 149.859C93.9563 148.741 93.5546 147.298 93.6214 145.793C93.7646 142.606 95.9931 140.102 98.5969 140.225C99.8979 140.283 101.079 140.968 101.923 142.15C102.72 143.267 103.121 144.715 103.054 146.216C102.986 147.717 102.457 149.122 101.564 150.164C100.661 151.216 99.4935 151.788 98.2587 151.788ZM98.4194 141.982C96.8309 141.982 95.478 143.7 95.3814 145.872C95.3315 146.986 95.6177 148.038 96.1868 148.837C96.71 149.57 97.4094 149.992 98.1581 150.026C98.9068 150.059 99.6434 149.701 100.229 149.018C100.867 148.276 101.246 147.25 101.296 146.137C101.346 145.024 101.06 143.971 100.49 143.172C99.9674 142.439 99.2673 142.017 98.5186 141.984C98.4856 141.982 98.4518 141.982 98.4194 141.982Z" fill="#371A45"/>
<path d="M109.735 160.48H109.721C109.41 160.476 109.113 160.349 108.895 160.127C108.678 159.904 108.557 159.604 108.561 159.293L108.706 146.771C108.708 146.58 108.757 146.392 108.849 146.224C108.94 146.056 109.071 145.913 109.23 145.807L113.572 142.923L113.97 132.012C113.976 131.858 114.012 131.707 114.076 131.567C114.14 131.427 114.231 131.301 114.344 131.196C114.457 131.091 114.589 131.009 114.734 130.955C114.878 130.902 115.032 130.877 115.186 130.883C115.34 130.888 115.491 130.924 115.631 130.988C115.771 131.052 115.897 131.144 116.002 131.256C116.107 131.369 116.189 131.502 116.243 131.646C116.296 131.791 116.321 131.944 116.316 132.098L115.896 143.611C115.889 143.797 115.838 143.979 115.747 144.141C115.656 144.304 115.527 144.443 115.372 144.546L111.046 147.42L110.911 159.32C110.907 159.63 110.781 159.925 110.561 160.142C110.341 160.359 110.044 160.481 109.735 160.48Z" fill="#371A45"/>
<path d="M9.94678 148.719C13.7449 167.908 51.0377 182.973 96.4884 182.973C141.939 182.973 179.232 167.908 183.031 148.719H9.94678Z" fill="#371A45"/>
<path d="M131.676 174.455L130.461 174.643C130.342 174.661 130.232 174.717 130.147 174.802C130.062 174.887 130.006 174.997 129.988 175.115L129.8 176.331L129.612 175.115C129.594 174.997 129.538 174.887 129.453 174.802C129.368 174.717 129.258 174.661 129.14 174.643L127.924 174.455L129.14 174.267C129.258 174.248 129.368 174.193 129.453 174.108C129.538 174.023 129.594 173.913 129.612 173.794L129.8 172.579L129.988 173.794C130.006 173.913 130.062 174.023 130.147 174.108C130.232 174.193 130.342 174.249 130.461 174.267L131.676 174.455Z" fill="#FFF2BD"/>
<path d="M96.5704 176.48L95.3552 176.668C95.2364 176.687 95.1266 176.742 95.0416 176.827C94.9566 176.912 94.9009 177.022 94.8826 177.141L94.6943 178.356L94.5066 177.141C94.4882 177.022 94.4325 176.912 94.3476 176.827C94.2626 176.742 94.1528 176.687 94.034 176.668L92.8188 176.48L94.034 176.292C94.1528 176.274 94.2626 176.218 94.3476 176.133C94.4325 176.048 94.4882 175.938 94.5066 175.82L94.6943 174.604L94.8826 175.82C94.9009 175.938 94.9566 176.048 95.0416 176.133C95.1266 176.218 95.2364 176.274 95.3552 176.292L96.5704 176.48Z" fill="#FFF2BD"/>
<path d="M113.305 171.641L112.08 171.83C111.961 171.849 111.852 171.905 111.767 171.99C111.682 172.075 111.626 172.184 111.607 172.303L111.418 173.528L111.229 172.303C111.21 172.184 111.155 172.075 111.07 171.99C110.985 171.905 110.875 171.849 110.757 171.83L109.532 171.641L110.757 171.452C110.876 171.432 110.986 171.376 111.071 171.291C111.156 171.205 111.211 171.095 111.229 170.976L111.418 169.751L111.607 170.976C111.626 171.095 111.681 171.205 111.766 171.291C111.851 171.376 111.961 171.433 112.08 171.452L113.305 171.641Z" fill="#FFF2BD"/>
<path d="M174.083 152.641L172.138 152.941C171.948 152.97 171.773 153.059 171.637 153.195C171.501 153.331 171.412 153.506 171.383 153.696L171.083 155.641L170.782 153.696C170.753 153.506 170.664 153.331 170.528 153.195C170.392 153.059 170.217 152.97 170.027 152.941L168.082 152.641L170.027 152.34C170.217 152.311 170.392 152.222 170.528 152.086C170.664 151.95 170.753 151.775 170.782 151.585L171.083 149.641L171.383 151.585C171.412 151.775 171.501 151.95 171.637 152.086C171.773 152.222 171.948 152.311 172.138 152.34L174.083 152.641Z" fill="#FFF2BD"/>
<path d="M29.9889 155.155L28.1411 155.441C27.9608 155.468 27.794 155.553 27.665 155.682C27.536 155.811 27.4514 155.978 27.4235 156.158L27.1392 158.004L26.8543 156.156C26.8264 155.976 26.7418 155.809 26.6128 155.68C26.4838 155.551 26.317 155.466 26.1367 155.439L24.2876 155.155L26.1354 154.87C26.3157 154.842 26.4824 154.758 26.6114 154.629C26.7404 154.499 26.825 154.333 26.853 154.152L27.1379 152.305L27.4235 154.152C27.4514 154.333 27.536 154.499 27.665 154.629C27.794 154.758 27.9608 154.842 28.1411 154.87L29.9889 155.155Z" fill="#FFF2BD"/>
<path d="M150.157 168.108L148.68 168.336C148.536 168.359 148.403 168.426 148.299 168.529C148.196 168.633 148.129 168.766 148.106 168.91L147.878 170.387L147.65 168.91C147.628 168.766 147.56 168.633 147.457 168.53C147.354 168.427 147.22 168.359 147.076 168.336L145.599 168.108L147.076 167.88C147.221 167.858 147.354 167.79 147.457 167.687C147.56 167.584 147.628 167.45 147.65 167.306L147.878 165.829L148.106 167.306C148.128 167.451 148.196 167.584 148.299 167.687C148.402 167.791 148.536 167.858 148.68 167.88L150.157 168.108Z" fill="#FFF2BD"/>
<path d="M56.0541 166.049L54.8389 166.237C54.7202 166.255 54.6104 166.311 54.5254 166.396C54.4404 166.481 54.3847 166.591 54.3663 166.71L54.1787 167.925L53.991 166.71C53.9725 166.591 53.9168 166.481 53.8318 166.396C53.7469 166.311 53.6371 166.255 53.5184 166.237L52.3032 166.049L53.5184 165.862C53.6371 165.843 53.7468 165.787 53.8317 165.702C53.9166 165.617 53.9724 165.508 53.991 165.389L54.1787 164.174L54.3663 165.389C54.3848 165.508 54.4406 165.617 54.5255 165.702C54.6105 165.787 54.7202 165.843 54.8389 165.862L56.0541 166.049Z" fill="#FFF2BD"/>
<path d="M69.9034 173.78L68.6882 173.968C68.5694 173.986 68.4596 174.042 68.3746 174.127C68.2896 174.212 68.2339 174.322 68.2156 174.441L68.0273 175.656L67.8396 174.441C67.8212 174.322 67.7655 174.212 67.6806 174.127C67.5956 174.042 67.4858 173.986 67.367 173.968L66.1519 173.78L67.367 173.592C67.4858 173.574 67.5956 173.518 67.6806 173.433C67.7655 173.348 67.8212 173.238 67.8396 173.119L68.0273 171.904L68.2156 173.119C68.2339 173.238 68.2896 173.348 68.3746 173.433C68.4596 173.518 68.5694 173.574 68.6882 173.592L69.9034 173.78Z" fill="#FFF2BD"/>
<path d="M84.6724 167.071L83.2634 167.289C83.1259 167.31 82.9987 167.374 82.9003 167.473C82.8018 167.571 82.7373 167.698 82.7159 167.836L82.4979 169.244L82.2805 167.836C82.2594 167.698 82.195 167.571 82.0966 167.473C81.9983 167.374 81.8711 167.31 81.7336 167.289L80.3247 167.071L81.7336 166.853C81.8711 166.832 81.9983 166.768 82.0966 166.669C82.195 166.571 82.2594 166.444 82.2805 166.306L82.4979 164.897L82.7152 166.306C82.7366 166.444 82.8011 166.571 82.8996 166.669C82.998 166.768 83.1252 166.832 83.2628 166.853L84.6724 167.071Z" fill="#FFF2BD"/>
<path d="M40.2301 165.289L39.0149 165.477C38.8961 165.495 38.7863 165.551 38.7014 165.636C38.6164 165.721 38.5607 165.831 38.5423 165.949L38.3546 167.165L38.1663 165.949C38.148 165.831 38.0923 165.721 38.0073 165.636C37.9224 165.551 37.8125 165.495 37.6937 165.477L36.4785 165.289L37.6937 165.101C37.8125 165.083 37.9225 165.027 38.0075 164.942C38.0925 164.857 38.1481 164.747 38.1663 164.628L38.3546 163.413L38.5423 164.628C38.5606 164.747 38.6163 164.857 38.7012 164.942C38.7862 165.027 38.8961 165.083 39.0149 165.101L40.2301 165.289Z" fill="#FFF2BD"/>
<path d="M96.4886 151.824C149.778 151.824 192.977 150.434 192.977 148.719C192.977 147.004 149.778 145.613 96.4886 145.613C43.1994 145.613 0 147.004 0 148.719C0 150.434 43.1994 151.824 96.4886 151.824Z" fill="#371A45"/>
<path d="M102.003 165.491C101.122 166.291 99.9945 166.767 98.8066 166.839C97.6186 166.912 96.4415 166.577 95.47 165.889L74.4641 151.03C73.7843 150.562 74.1158 149.497 74.9408 149.497H109.793L110.354 157.905L102.003 165.491Z" fill="#4A83FF"/>
<path d="M98.4931 168.034C97.1664 168.032 95.873 167.618 94.7922 166.848L73.785 151.989C73.4338 151.744 73.1702 151.392 73.0324 150.987C72.8945 150.581 72.8897 150.142 73.0185 149.733C73.1473 149.325 73.403 148.968 73.7486 148.714C74.0942 148.461 74.5115 148.324 74.9401 148.324H109.792C110.089 148.324 110.376 148.437 110.594 148.641C110.811 148.844 110.943 149.123 110.963 149.42L111.524 157.828C111.535 158.004 111.507 158.18 111.441 158.344C111.375 158.507 111.272 158.654 111.142 158.773L102.792 166.362C101.618 167.436 100.085 168.032 98.4931 168.034ZM75.9865 150.672L96.1478 164.932C96.8994 165.468 97.8125 165.73 98.7342 165.674C99.6559 165.618 100.53 165.246 101.211 164.623L109.14 157.418L108.691 150.672H75.9865Z" fill="#371A45"/>
<g opacity="0.6">
<path d="M98.9165 165.493L78.8328 151.288H108.705L108.666 150.701H76.0845L96.1681 164.907C97.0158 165.511 98.065 165.761 99.094 165.605C99.0326 165.569 98.9705 165.533 98.9165 165.493Z" fill="white"/>
</g>
<path d="M67.2761 152.614C67.2761 152.614 77.2001 152.614 78.8758 159.425C79.3078 161.175 78.1183 162.92 76.3434 163.232C72.5034 163.907 65.4182 164.877 60.7425 163.832C58.7914 163.396 46.6382 157.659 46.6382 157.659L61.1104 154.856L67.2761 152.614Z" fill="#F92323"/>
<path d="M65.7316 165.405C63.8669 165.405 62.0597 165.269 60.4988 164.92C58.4857 164.472 47.418 159.26 46.1623 158.666C45.9498 158.565 45.7744 158.4 45.6612 158.194C45.548 157.988 45.5028 157.752 45.5321 157.519C45.5614 157.286 45.6636 157.068 45.8242 156.896C45.9848 156.724 46.1955 156.608 46.4263 156.563L60.8121 153.778L66.8954 151.566C67.0174 151.521 67.1463 151.498 67.2762 151.498C67.717 151.498 78.0914 151.585 79.958 159.157C80.0963 159.713 80.1176 160.292 80.0206 160.857C79.9236 161.422 79.7103 161.961 79.3943 162.439C79.0723 162.932 78.6527 163.355 78.1612 163.68C77.6697 164.005 77.1168 164.226 76.5366 164.329C73.8875 164.798 69.6823 165.405 65.7316 165.405ZM50.217 158.102C54.7226 160.187 59.9061 162.504 60.9856 162.745C65.475 163.748 72.4137 162.793 76.1498 162.138C76.4293 162.088 76.6956 161.982 76.9324 161.825C77.1692 161.668 77.3713 161.465 77.5263 161.227C77.675 161.004 77.7758 160.753 77.8223 160.489C77.8688 160.226 77.8599 159.955 77.7963 159.695C76.4596 154.273 68.7594 153.781 67.4632 153.737L61.4939 155.907C61.4389 155.927 61.3825 155.942 61.3252 155.954L50.217 158.102Z" fill="#371A45"/>
<g opacity="0.6">
<path d="M77.7047 159.712C77.1072 157.29 75.2068 155.864 73.1909 155.024C74.6464 155.896 75.8704 157.167 76.3288 159.024C76.3897 159.273 76.3985 159.531 76.3546 159.782C76.3106 160.034 76.215 160.274 76.0736 160.487C75.925 160.714 75.7315 160.909 75.5048 161.059C75.2782 161.209 75.0233 161.311 74.7558 161.358C71.0272 162.016 64.1033 162.97 59.6267 161.966C59.4593 161.929 59.2966 161.879 59.1353 161.827C59.6981 162.221 60.332 162.502 61.0019 162.654C65.4792 163.655 72.4031 162.701 76.1317 162.046C76.3992 161.998 76.6541 161.897 76.8807 161.747C77.1073 161.597 77.3009 161.402 77.4495 161.175C77.5908 160.962 77.6865 160.722 77.7304 160.47C77.7744 160.219 77.7656 159.96 77.7047 159.712Z" fill="white"/>
</g>
<path d="M100.874 165.005C100.644 165.005 100.419 164.937 100.227 164.811L78.526 150.471C78.3922 150.388 78.2764 150.28 78.1854 150.151C78.0944 150.023 78.0301 149.878 77.9962 149.724C77.9624 149.571 77.9598 149.412 77.9885 149.257C78.0172 149.103 78.0767 148.956 78.1634 148.824C78.2501 148.693 78.3623 148.581 78.4932 148.494C78.6242 148.407 78.7713 148.347 78.9259 148.318C79.0804 148.289 79.2392 148.291 79.3928 148.325C79.5464 148.358 79.6917 148.422 79.8202 148.513L101.192 162.636L110.206 162.054C110.516 162.034 110.822 162.138 111.056 162.344C111.29 162.549 111.432 162.839 111.453 163.15C111.473 163.46 111.368 163.766 111.163 164C110.958 164.234 110.668 164.376 110.357 164.396L100.949 165.004C100.924 165.004 100.899 165.005 100.874 165.005Z" fill="#371A45"/>
<path d="M158.453 67.4482C158.258 67.4484 158.066 67.3971 157.897 67.2995C157.728 67.202 157.588 67.0616 157.49 66.8926C157.393 66.7236 157.341 66.5318 157.341 66.3366C157.342 66.1414 157.393 65.9497 157.491 65.7807L161.112 59.5252C161.535 58.804 161.717 57.9666 161.631 57.135C161.545 56.3034 161.196 55.5209 160.634 54.9014C157.015 50.9247 154.982 45.7574 154.921 40.3806C154.786 28.3968 164.414 18.4235 176.39 18.1487C176.562 18.1447 176.733 18.1427 176.905 18.1427C179.815 18.134 182.697 18.7074 185.382 19.829C188.067 20.9506 190.501 22.5977 192.539 24.6736C196.701 28.8863 198.953 34.4701 198.882 40.3968C198.736 52.3657 188.874 62.1041 176.899 62.1041H176.791C174.928 62.0953 173.075 61.8505 171.274 61.3757C170.962 61.2932 170.64 61.2514 170.317 61.2514C169.634 61.2525 168.963 61.4362 168.375 61.7834L159.015 67.295C158.845 67.395 158.651 67.4479 158.453 67.4482Z" fill="white"/>
<path d="M176.904 19.2509C188.507 19.2509 197.913 28.7273 197.772 40.3816C197.634 51.7517 188.259 60.9912 176.9 60.9912H176.798C175.03 60.9848 173.27 60.7534 171.56 60.3026C171.155 60.1957 170.739 60.1417 170.32 60.1419C169.438 60.143 168.573 60.3796 167.813 60.8272L158.453 66.3387L162.074 60.0839C162.613 59.1575 162.844 58.0837 162.733 57.0174C162.622 55.9512 162.175 54.9479 161.456 54.1524C158.016 50.3794 156.085 45.4718 156.033 40.3661C155.902 28.996 165.046 19.5189 176.414 19.2583C176.577 19.2542 176.741 19.2522 176.904 19.2522M176.904 17.0298C176.724 17.0298 176.544 17.0318 176.364 17.0359C163.784 17.3248 153.667 27.8024 153.812 40.3945C153.875 46.0439 156.01 51.4735 159.813 55.6518C160.216 56.0974 160.467 56.6601 160.527 57.2579C160.588 57.8556 160.456 58.4572 160.151 58.9747L156.53 65.2241C156.283 65.6492 156.185 66.1438 156.25 66.6307C156.314 67.1176 156.539 67.5693 156.887 67.9153C157.236 68.2613 157.689 68.4821 158.177 68.5431C158.664 68.6041 159.158 68.502 159.581 68.2526L168.941 62.7411C169.359 62.4946 169.835 62.3641 170.32 62.363C170.548 62.3626 170.775 62.3919 170.995 62.4501C172.887 62.9495 174.834 63.2067 176.79 63.2157H176.904C189.485 63.2157 199.845 52.9852 199.998 40.41C200.074 34.1835 197.708 28.3175 193.336 23.8922C191.193 21.7102 188.635 19.9788 185.813 18.8001C182.992 17.6213 179.962 17.0189 176.904 17.0284V17.0298Z" fill="#371A45"/>
<g opacity="0.35">
<path d="M197.743 39.0742C197.732 38.8446 197.717 38.6165 197.699 38.3896C197.689 38.2735 197.679 38.1574 197.668 38.0413C197.645 37.8117 197.617 37.5829 197.588 37.3554C197.574 37.2568 197.563 37.1576 197.549 37.0597C197.504 36.7572 197.453 36.457 197.396 36.1591C197.371 36.0288 197.341 35.9005 197.314 35.7716C197.276 35.5954 197.238 35.4192 197.196 35.2443C197.159 35.0897 197.12 34.9365 197.079 34.7832C197.042 34.6408 197.002 34.499 196.961 34.3572C196.914 34.1911 196.866 34.0251 196.815 33.8603C196.783 33.7618 196.747 33.6646 196.717 33.5667C196.59 33.1841 196.453 32.8063 196.306 32.4332C196.284 32.3805 196.264 32.3272 196.243 32.2739C196.159 32.0713 196.071 31.8634 195.981 31.6609C195.953 31.5994 195.926 31.538 195.898 31.4766C195.801 31.2652 195.702 31.0546 195.599 30.8467L195.574 30.7981C195.102 29.8586 194.561 28.9559 193.953 28.0977C195.018 30.6913 195.547 33.4732 195.51 36.2765C195.392 46.021 188.489 54.1945 179.366 56.3352C169.696 58.5138 164.056 56.7248 160.615 53.3567C160.599 53.3371 157.76 50.4747 157.742 50.4537C157.166 49.8212 158.085 48.7396 157.59 48.0396C157.668 48.2313 157.751 48.421 157.835 48.6093L157.831 48.6039C158.736 50.6333 159.959 52.5052 161.454 54.1492C162.172 54.9447 162.62 55.948 162.731 57.0142C162.842 58.0804 162.611 59.1543 162.072 60.0807L158.45 66.3356L167.811 60.824C168.37 60.4935 168.989 60.2769 169.632 60.1869C170.275 60.0969 170.929 60.1351 171.558 60.2994C173.267 60.7514 175.027 60.9839 176.795 60.9914C177.123 60.9914 177.449 60.9847 177.773 60.9712C178.075 60.9583 178.374 60.9367 178.672 60.9111C178.718 60.907 178.763 60.9057 178.808 60.9016C179.082 60.876 179.352 60.8422 179.623 60.8065C179.691 60.7977 179.758 60.7909 179.829 60.7815C180.083 60.745 180.335 60.7011 180.586 60.6552C180.669 60.6404 180.752 60.6282 180.835 60.612C181.075 60.5661 181.311 60.5121 181.548 60.4574C181.64 60.4365 181.733 60.4176 181.825 60.3946C182.053 60.3393 182.278 60.2765 182.5 60.2137C182.599 60.186 182.698 60.1597 182.796 60.1307C183.013 60.0632 183.227 59.9956 183.441 59.9241C183.545 59.8897 183.648 59.8566 183.751 59.8215C183.958 59.7486 184.162 59.6702 184.367 59.5906C184.473 59.5494 184.58 59.5102 184.685 59.467C184.883 59.3867 185.079 59.301 185.274 59.2146C185.382 59.1666 185.492 59.1194 185.599 59.0701C185.788 58.9823 185.975 58.8898 186.161 58.8C186.271 58.7454 186.381 58.6907 186.49 58.634C186.671 58.5395 186.849 58.4409 187.03 58.3416C187.14 58.2795 187.251 58.2181 187.36 58.154C187.533 58.0534 187.703 57.9514 187.873 57.8434C187.984 57.7759 188.094 57.7084 188.203 57.6348C188.367 57.5277 188.529 57.4183 188.69 57.3067C188.8 57.2311 188.91 57.1548 189.019 57.0765C189.176 56.9644 189.33 56.8497 189.483 56.7329C189.592 56.6505 189.7 56.5668 189.808 56.4817C189.956 56.3643 190.102 56.2448 190.247 56.1239C190.355 56.0335 190.462 55.943 190.568 55.8505C190.707 55.7285 190.846 55.6048 190.983 55.4792C191.088 55.3827 191.193 55.2841 191.297 55.1855C191.432 55.0586 191.56 54.931 191.688 54.8014C191.792 54.6974 191.893 54.5923 191.994 54.4861C192.119 54.3558 192.241 54.2249 192.362 54.0912C192.463 53.9805 192.561 53.8684 192.659 53.7536C192.775 53.6186 192.891 53.4836 193.004 53.3486C193.101 53.2311 193.195 53.1123 193.289 52.9928C193.398 52.8578 193.505 52.7194 193.611 52.5776C193.704 52.4534 193.794 52.3271 193.885 52.2009C193.985 52.0605 194.087 51.9201 194.182 51.7769C194.271 51.646 194.356 51.513 194.442 51.3806C194.535 51.2375 194.627 51.0951 194.716 50.9499C194.805 50.8048 194.881 50.6725 194.962 50.5327C195.043 50.393 195.131 50.2424 195.212 50.0952C195.293 49.9481 195.366 49.805 195.442 49.6585C195.518 49.512 195.595 49.3655 195.668 49.2169C195.741 49.0684 195.811 48.9125 195.882 48.7599C195.952 48.6073 196.017 48.4635 196.084 48.3136C196.152 48.1638 196.214 47.997 196.279 47.8411C196.343 47.6851 196.401 47.5427 196.457 47.3915C196.518 47.2281 196.574 47.062 196.632 46.8966C196.684 46.7461 196.738 46.5962 196.787 46.4443C196.841 46.2742 196.889 46.102 196.94 45.9299C196.984 45.7793 197.03 45.6294 197.071 45.4775C197.118 45.2993 197.16 45.1191 197.202 44.9375C197.238 44.7876 197.276 44.6397 197.309 44.4892C197.349 44.3022 197.382 44.1125 197.417 43.9234C197.444 43.7776 197.475 43.6332 197.499 43.486C197.532 43.2834 197.556 43.0843 197.583 42.8824C197.602 42.744 197.625 42.6063 197.641 42.4666C197.666 42.2404 197.683 42.0116 197.701 41.7834C197.71 41.6666 197.724 41.5505 197.731 41.433C197.753 41.086 197.766 40.7367 197.771 40.3852C197.775 40.051 197.771 39.7189 197.757 39.3881C197.755 39.2821 197.749 39.1781 197.743 39.0742Z" fill="#371A45"/>
</g>
<path d="M172.031 49.3506C171.098 49.3506 170.137 49.2615 169.408 48.6553C168.298 47.7324 168.3 46.0899 168.794 44.8747C168.813 44.8268 168.833 44.7795 168.853 44.7322C167.331 45.2642 165.706 45.4377 163.905 44.9159C163.845 44.8984 163.789 44.8693 163.74 44.8301C163.691 44.791 163.651 44.7426 163.62 44.6878C163.59 44.6329 163.571 44.5727 163.564 44.5104C163.558 44.4482 163.563 44.3853 163.58 44.3252C163.598 44.265 163.627 44.209 163.666 44.1601C163.705 44.1113 163.754 44.0706 163.809 44.0404C163.863 44.0103 163.924 43.9912 163.986 43.9844C164.048 43.9775 164.111 43.983 164.171 44.0004C166.155 44.5763 167.91 44.1955 169.6 43.3989L169.677 43.2821C169.602 43.2565 169.528 43.2301 169.455 43.2025C169.084 43.0607 168.552 42.8156 168.205 42.3248C168.164 42.2662 168.126 42.2053 168.092 42.1425C167.656 42.1483 167.221 42.1178 166.791 42.0514C165.218 41.8124 164.136 41.0171 163.897 39.9241C163.703 39.0344 164.103 38.1993 164.52 37.4998C164.862 36.9263 165.237 36.3733 165.644 35.8438C165.12 33.1515 166.377 30.2405 168.666 29.1603C169.668 28.6877 170.751 28.5621 171.771 28.4737C172.832 28.3832 173.956 28.3272 175.017 28.7242C175.568 28.9404 176.081 29.2461 176.533 29.6288C177.546 28.8943 178.635 28.2718 179.672 27.7048C181.01 26.9743 182.435 26.3755 183.795 26.9324C184.648 27.2828 185.23 28.0248 185.699 28.6202C185.93 28.9159 186.171 29.2224 186.407 29.5424C187.468 29.7524 188.418 30.2567 189.107 31.0161C190.804 32.8977 190.49 35.8728 189.303 37.8401C189.254 37.9231 189.203 38.0042 189.151 38.0845C189.411 38.3431 189.526 38.657 189.469 38.9925C189.388 39.4583 188.996 39.7182 188.806 39.8431C188.336 40.1501 187.847 40.4257 187.341 40.6681L187.771 41.1117C188.754 42.1243 189.06 43.029 188.68 43.7992C188.478 44.2138 188.116 44.4703 187.765 44.6965C183.146 47.6818 177.571 49.3351 172.073 49.3506H172.031ZM170.261 44.1361C170.035 44.4839 169.84 44.851 169.678 45.2332C169.326 46.0993 169.283 47.3105 170.02 47.9228C170.525 48.344 171.298 48.39 172.074 48.3954C174.033 48.3873 175.985 48.1728 177.899 47.7554C176.688 47.5832 175.564 47.0397 174.775 46.0129C174.146 45.194 173.872 44.2576 173.816 43.3213C172.988 43.5407 172.131 43.6307 171.276 43.5879C170.94 43.7837 170.599 43.9646 170.261 44.1361ZM174.852 43.9268C174.959 44.4744 175.19 44.9902 175.527 45.435C176.912 47.2382 179.822 47.1802 181.836 46.0831C183.511 45.1704 184.781 43.696 185.322 42.0379C185.36 41.9211 185.394 41.8036 185.425 41.6855C185.035 41.965 184.646 42.2323 184.268 42.4922C182.735 43.5481 180.997 44.7437 178.957 45.0327C177.581 45.2271 175.958 44.8754 174.852 43.9268ZM186.5 41.1663C186.445 41.5621 186.354 41.9523 186.23 42.3322C185.822 43.5866 185.051 44.7457 184.027 45.6841C185.139 45.1607 186.216 44.5637 187.249 43.8971C187.497 43.7358 187.729 43.5751 187.826 43.378C188.009 43.0073 187.759 42.4679 187.089 41.7746L186.5 41.1663ZM175.169 42.896C176.017 43.8627 177.54 44.2725 178.827 44.0889C180.47 43.8566 181.969 42.9115 183.31 41.996C182.348 42.1986 181.397 42.3437 180.493 42.4592C178.982 42.6522 177.312 42.8082 175.605 42.7231C175.46 42.7846 175.311 42.8419 175.167 42.896H175.169ZM173.155 42.4173L172.981 42.5314C173.102 42.5091 173.226 42.4841 173.349 42.4565L173.155 42.4173ZM169.273 42.0501C169.436 42.1579 169.612 42.2458 169.796 42.312C169.936 42.3653 170.078 42.4126 170.223 42.4538C170.358 42.2445 170.482 42.0359 170.597 41.8205L170.639 41.7415C170.191 41.8788 169.734 41.982 169.272 42.0501H169.273ZM171.582 41.9825C171.537 42.0791 171.487 42.1749 171.437 42.2695C171.406 42.3289 171.37 42.3883 171.34 42.447C171.529 42.3309 171.718 42.2123 171.908 42.0912C171.797 42.0561 171.689 42.0197 171.581 41.9819L171.582 41.9825ZM181.091 39.567C179.965 40.3738 178.79 41.1104 177.574 41.7726C178.544 41.7294 179.486 41.6288 180.373 41.5154C182.04 41.302 183.87 40.9942 185.612 40.363C185.612 40.3285 185.612 40.2955 185.612 40.2583L183.898 38.4916C182.979 38.8669 182.044 39.2389 181.089 39.5663L181.091 39.567ZM174.87 41.7152C175.06 41.7332 175.25 41.7485 175.441 41.7611C175.886 41.5694 176.346 41.3475 176.823 41.0955C177.265 40.8605 177.702 40.615 178.136 40.3589C177.608 40.4559 177.075 40.5235 176.54 40.5614C176.375 40.5722 176.21 40.5797 176.046 40.5837L176.024 40.5965C175.673 40.7991 175.322 41.0117 174.972 41.2325C174.933 41.3891 174.899 41.5505 174.869 41.7145L174.87 41.7152ZM172.102 41.1542C172.218 41.192 172.335 41.228 172.453 41.2622C172.624 41.3122 172.796 41.3574 172.968 41.3972L173.113 41.3014L173.556 41.009C173.564 40.7953 173.586 40.5823 173.624 40.3717C173.566 40.36 173.509 40.3479 173.452 40.3353C173.025 40.6444 172.574 40.918 172.103 41.1535L172.102 41.1542ZM165.983 36.9901C165.758 37.3142 165.543 37.6468 165.337 37.9879C165.016 38.528 164.703 39.1552 164.827 39.7209C165.005 40.5358 166.032 40.9733 166.934 41.1103C167.236 41.1558 167.54 41.1822 167.845 41.1893C167.842 40.7544 167.912 40.3221 168.051 39.91C167.131 39.0708 166.421 38.0791 165.984 36.9895L165.983 36.9901ZM168.86 40.5682C168.815 40.7599 168.793 40.9565 168.796 41.1535C169.055 41.1279 169.312 41.0892 169.567 41.0374C169.324 40.8889 169.087 40.7316 168.86 40.5668L168.86 40.5682ZM169.172 39.6129C169.7 40.0232 170.27 40.3749 170.874 40.662C170.96 40.629 171.046 40.5945 171.132 40.5594C171.235 40.2549 171.324 39.9437 171.402 39.6264C170.781 39.3235 170.204 38.9374 169.687 38.4787C169.498 38.8478 169.327 39.2254 169.173 39.6116L169.172 39.6129ZM175.497 39.6305C175.593 39.6305 175.69 39.6305 175.786 39.6339C177.684 38.5712 180.066 37.5323 182.595 37.1434L179.909 34.3755C179.778 34.3498 179.645 34.3255 179.514 34.3032L179.467 34.337C178.743 34.8738 178.059 35.4622 177.421 36.0977C176.745 37.0955 176.156 38.1499 175.662 39.249C175.608 39.3679 175.553 39.4946 175.497 39.6291L175.497 39.6305ZM186.223 38.0548C186.39 38.5554 186.496 39.0738 186.541 39.5994C186.963 39.2312 187.357 38.8328 187.72 38.4072C187.232 38.2494 186.731 38.1311 186.224 38.0534L186.223 38.0548ZM172.51 39.0674C172.747 39.1575 172.99 39.2362 173.24 39.3037C174.157 38.5707 174.896 37.639 175.4 36.579C175.79 35.7473 175.909 35.0614 175.763 34.4828C175.715 34.3015 175.634 34.1308 175.522 33.9799C174.972 33.9641 174.422 33.954 173.87 33.9495C173.269 35.1552 173.013 36.4852 172.742 37.8921C172.671 38.283 172.595 38.6759 172.511 39.0688L172.51 39.0674ZM180.986 38.4598C180.198 38.6801 179.425 38.9507 178.672 39.27C179.339 39.1174 179.998 38.9236 180.65 38.7049C180.763 38.6261 180.875 38.5456 180.987 38.4632L180.986 38.4598ZM166.674 36.07C166.708 36.1915 166.747 36.3123 166.789 36.4312C167.14 37.377 167.695 38.2339 168.416 38.9405C168.588 38.5355 168.78 38.1407 168.991 37.7564C168.955 37.7132 168.923 37.6693 168.885 37.6254C168.107 36.6418 167.849 35.5853 168.177 34.7272C168.254 34.5229 168.362 34.3316 168.498 34.1601C167.841 34.7486 167.232 35.3884 166.676 36.0734L166.674 36.07ZM184.846 38.0953L185.419 38.686C185.353 38.4364 185.269 38.1919 185.168 37.9542C185.063 38.0055 184.956 38.0521 184.849 38.0973L184.846 38.0953ZM170.168 37.6227C170.602 38.0348 171.09 38.3851 171.62 38.6637C171.687 38.3505 171.746 38.0318 171.808 37.7091C171.994 36.7424 172.185 35.7513 172.5 34.7981C171.596 35.6281 170.812 36.5802 170.171 37.6268L170.168 37.6227ZM186.585 37.1434C187.176 37.2454 187.756 37.3983 188.32 37.6004C188.377 37.5154 188.432 37.4283 188.484 37.3405C189.49 35.6744 189.782 33.1832 188.397 31.6467C188.075 31.2971 187.688 31.0145 187.258 30.815C187.485 31.2071 187.679 31.6182 187.836 32.0437C188.384 33.564 188.253 35.1282 187.485 36.2293C187.236 36.5801 186.933 36.8894 186.588 37.1461L186.585 37.1434ZM184.303 36.5824C184.22 36.7253 184.129 36.8635 184.03 36.9962C184.227 36.9868 184.425 36.982 184.623 36.982C184.607 36.9604 184.592 36.9388 184.576 36.9179C184.491 36.8011 184.4 36.6897 184.303 36.5824ZM172.017 33.9562L171.836 33.9596C170.27 33.9859 169.338 34.3599 169.068 35.0701C168.816 35.7324 169.228 36.4744 169.515 36.8794C170.212 35.796 171.054 34.8126 172.017 33.9562ZM184.698 35.6163C184.931 35.8431 185.145 36.0881 185.339 36.3488C185.419 36.4568 185.496 36.5669 185.569 36.6803C186.013 36.4156 186.419 36.0943 186.705 35.6845C187.296 34.8399 187.384 33.6011 186.94 32.3711C186.69 31.6778 186.306 31.0371 185.874 30.4248C185.178 30.3395 184.473 30.3939 183.798 30.5848C182.594 30.9223 181.405 31.6541 180.184 32.8092C181.706 32.1193 183.357 32.072 184.276 33.2568C184.765 33.8853 184.911 34.7562 184.7 35.6163H184.698ZM181.728 34.8831L183.248 36.4501C183.369 36.2887 183.477 36.117 183.568 35.937C183.574 35.9269 183.578 35.9167 183.583 35.9073C183.021 35.4747 182.397 35.1294 181.732 34.8831H181.728ZM176.614 34.0197C176.642 34.0955 176.666 34.1728 176.686 34.2512C176.777 34.62 176.8 35.0023 176.754 35.3793C177.061 34.9365 177.384 34.5051 177.723 34.0852C177.35 34.0555 176.979 34.0352 176.618 34.0197H176.614ZM180.786 33.593C181.878 33.8671 182.928 34.2796 183.834 34.9068C183.846 34.526 183.757 34.1453 183.521 33.8408C182.921 33.061 181.795 33.1839 180.793 33.593H180.786ZM173.029 29.3567C172.638 29.3567 172.242 29.3858 171.855 29.4189C170.918 29.4992 169.931 29.6119 169.072 30.0177C167.391 30.8116 166.386 32.8133 166.478 34.8386C168.7 32.3581 171.58 30.5597 174.784 29.6524L174.689 29.6146C174.167 29.4175 173.602 29.3567 173.029 29.3567ZM175.36 29.9495C175.36 29.9596 175.366 29.9697 175.369 29.9799C175.386 30.0401 175.391 30.103 175.383 30.1651C175.376 30.2271 175.356 30.2871 175.326 30.3416C175.295 30.3961 175.254 30.444 175.205 30.4826C175.155 30.5212 175.099 30.5497 175.039 30.5665C172.906 31.1685 170.916 32.1941 169.188 33.5822C169.818 33.219 170.697 33.0259 171.821 33.007C172.293 32.9989 172.773 32.9935 173.238 32.9956C173.28 32.9672 173.321 32.9395 173.363 32.9125C173.996 31.8681 174.83 30.9885 175.759 30.2249C175.628 30.125 175.496 30.0345 175.36 29.9495H175.36ZM175.957 33.0415C176.19 33.0496 176.422 33.0583 176.654 33.0678C177.243 33.0928 177.858 33.1312 178.482 33.1974C178.528 33.1468 178.574 33.0955 178.621 33.0448L177.113 31.4921C176.91 31.2855 176.704 31.0715 176.487 30.8622C175.874 31.3466 175.315 31.8947 174.818 32.4973C175.245 32.5546 175.644 32.745 175.958 33.0415H175.957ZM177.258 30.2803C177.444 30.4639 177.623 30.6482 177.798 30.8271L179.283 32.3576C180.706 30.9547 182.104 30.0724 183.544 29.6673C184.06 29.5216 184.592 29.4416 185.128 29.429L184.953 29.2048C184.534 28.6702 184.058 28.0646 183.438 27.8101C182.448 27.405 181.263 27.9194 180.133 28.5372C179.181 29.0556 178.188 29.6227 177.259 30.2803H177.258Z" fill="#371A45"/>
<g opacity="0.2">
<path d="M119.741 135.527L114.462 135.001C113.368 134.892 112.393 135.691 112.284 136.785L110.966 150.013C110.857 151.107 111.655 152.082 112.749 152.191L118.028 152.717C119.122 152.826 120.098 152.028 120.207 150.934L121.525 137.706C121.634 136.611 120.835 135.636 119.741 135.527Z" fill="white"/>
</g>
<path d="M68.4139 158.023C68.5765 158.191 68.7087 158.385 68.8048 158.598C68.9047 158.811 68.986 159.031 69.0478 159.258C69.1957 159.726 69.2863 160.211 69.3179 160.701C69.3186 160.714 69.3166 160.728 69.3121 160.741C69.3076 160.753 69.3007 160.765 69.2916 160.775C69.2826 160.785 69.2717 160.793 69.2595 160.799C69.2473 160.805 69.2341 160.808 69.2206 160.808C69.1991 160.809 69.1779 160.803 69.1599 160.792C68.7532 160.516 68.3814 160.192 68.0527 159.827C67.8888 159.659 67.7397 159.477 67.6071 159.283C67.4726 159.092 67.3722 158.88 67.3101 158.655C67.2763 158.515 67.2888 158.368 67.3457 158.236C67.4026 158.104 67.5008 157.995 67.6255 157.923C67.7503 157.852 67.8948 157.823 68.0374 157.841C68.1799 157.859 68.3128 157.923 68.4159 158.023H68.4139Z" fill="#371A45"/>
<path d="M77.4833 155.717C76.8345 156.966 75.541 157.79 73.6601 157.844C71.4681 157.903 69.2382 155.833 69.2382 155.833C69.2382 155.833 62.5392 161.896 52.4781 159.542C50.6499 159.117 49.8317 157.533 49.8317 157.533C49.8317 157.533 39.8314 159.836 37.6251 150.25C35.9374 142.9 40.1662 128.367 64.3113 111.173C65.6318 110.236 67.011 109.291 68.449 108.337C68.8359 108.079 69.2294 107.823 69.6257 107.565L69.5582 108.413L68.9682 115.761L67.8617 129.513C67.8617 129.513 61.2247 139.302 64.4436 142.884C69.8134 143.263 73.9329 145.296 75.7962 148.298C76.3477 149.187 76.8169 149.976 77.1781 150.704C78.1138 152.577 78.3487 154.044 77.4833 155.717Z" fill="white"/>
<g opacity="0.35">
<path d="M77.4833 155.716C76.8345 156.966 75.541 157.79 73.6602 157.844C71.4681 157.902 69.2382 155.833 69.2382 155.833C69.2382 155.833 62.5392 161.896 52.4781 159.542C50.6499 159.117 49.8317 157.532 49.8317 157.532C49.8317 157.532 39.8314 159.836 37.6251 150.249C36.9237 147.195 37.2437 142.9 39.5938 137.688C38.8511 141.11 39.0537 143.991 39.6997 146.227C42.1146 154.625 48.4936 152.967 48.4936 152.967C48.4936 152.967 50.3839 155.305 53.2471 156.342C58.4845 158.238 63.2879 157.34 65.2065 154.497C66.8437 152.066 67.6241 149.18 67.6241 149.18C67.6241 149.18 71.3979 154.823 73.5488 155.251C76.4619 155.835 76.8345 153.543 77.4833 152.293C77.5569 152.149 77.6244 152.005 77.6797 151.865C78.1638 153.219 78.1611 154.405 77.4833 155.716Z" fill="#371A45"/>
</g>
<path d="M68.1853 129.729C67.7566 130.866 67.2908 131.979 66.8452 133.078C66.3996 134.176 65.977 135.272 65.6044 136.359C65.2317 137.446 64.9448 138.547 64.8584 139.576C64.8125 140.089 64.8131 140.589 64.9043 141.009C64.9954 141.43 65.1426 141.778 65.3768 142.045L64.533 141.633C67.1963 141.869 69.8811 142.467 72.3439 143.751C72.9651 144.072 73.5614 144.438 74.1275 144.848C74.6872 145.28 75.2401 145.731 75.7208 146.274C75.8468 146.404 75.9653 146.541 76.0759 146.684C76.1886 146.827 76.3088 146.963 76.4134 147.112C76.6214 147.414 76.8347 147.725 76.99 147.99C77.3275 148.544 77.6651 149.107 77.9858 149.705C78.3254 150.323 78.6124 150.968 78.8438 151.634C79.0781 152.332 79.2334 153.13 79.1814 153.953C79.129 154.756 78.9062 155.539 78.5279 156.249C78.1398 156.998 77.5653 157.634 76.8597 158.096C76.1802 158.531 75.4158 158.815 74.6177 158.931C74.4266 158.964 74.2369 158.98 74.0479 158.998C73.8516 159.014 73.6546 159.019 73.4578 159.012L73.1412 159L72.8367 158.96C72.6384 158.932 72.4418 158.893 72.2481 158.842C71.5246 158.649 70.8321 158.355 70.191 157.968C69.8791 157.788 69.5834 157.59 69.2958 157.383C68.9977 157.17 68.7115 156.94 68.4384 156.696L70.0243 156.706C69.8015 156.899 69.6293 157.034 69.4322 157.184C69.2351 157.333 69.0474 157.465 68.8543 157.603C68.4627 157.868 68.0719 158.129 67.6641 158.36C66.8614 158.845 66.0155 159.244 65.1601 159.62C63.4359 160.354 61.6183 160.845 59.7593 161.08C57.9002 161.305 56.0202 161.296 54.1634 161.053L52.7889 160.797L52.4452 160.729C52.3218 160.71 52.1996 160.683 52.0793 160.649C51.8014 160.577 51.5303 160.481 51.2692 160.361C50.7543 160.124 50.2798 159.808 49.863 159.424C49.6596 159.235 49.4696 159.032 49.2945 158.816C49.2074 158.707 49.123 158.597 49.0427 158.478L48.9225 158.298C48.88 158.23 48.851 158.183 48.7875 158.07L50.0938 158.678C49.8427 158.732 49.6604 158.761 49.4498 158.792C49.2392 158.823 49.0447 158.848 48.8422 158.869C48.4371 158.909 48.0321 158.936 47.627 158.944C46.81 158.965 45.9928 158.915 45.1845 158.794C43.5642 158.553 41.9231 157.984 40.5263 156.979C39.8284 156.481 39.2012 155.89 38.6616 155.224C38.1411 154.556 37.6985 153.831 37.3425 153.063C37.0043 152.312 36.7361 151.531 36.5411 150.73C36.3452 149.937 36.2211 149.127 36.1705 148.312C36.0544 146.692 36.1887 145.093 36.4824 143.542C36.7791 142 37.2097 140.486 37.7691 139.019C38.8871 136.108 40.402 133.4 42.1269 130.861C45.6125 125.802 49.8798 121.397 54.451 117.419C56.7375 115.426 59.1267 113.571 61.4936 111.68C62.691 110.755 63.9419 109.901 65.2398 109.124C65.8892 108.729 66.5612 108.373 67.2523 108.057C67.9503 107.745 68.6565 107.449 69.4126 107.233C69.4963 107.209 69.5854 107.212 69.667 107.242C69.7487 107.272 69.8186 107.328 69.8666 107.4C69.9147 107.473 69.9383 107.559 69.9341 107.646C69.9299 107.733 69.8981 107.816 69.8433 107.883L69.8393 107.889C68.8476 109.104 67.7019 110.067 66.5522 111.019C65.3782 111.937 64.2008 112.841 62.9789 113.685C60.5384 115.379 58.2302 117.251 55.9922 119.191C51.5264 123.075 47.39 127.36 44.0658 132.185C42.424 134.604 40.9968 137.162 39.9639 139.852C39.4538 141.188 39.061 142.566 38.7899 143.97C38.5253 145.363 38.4125 146.774 38.5118 148.148C38.5534 148.829 38.6566 149.505 38.8203 150.167C38.9797 150.824 39.1987 151.464 39.4745 152.081C39.7509 152.674 40.0926 153.234 40.4932 153.751C40.8977 154.25 41.3675 154.693 41.89 155.066C42.9337 155.815 44.1995 156.272 45.5355 156.471C46.2106 156.572 46.8933 156.614 47.5757 156.596C47.9187 156.59 48.2623 156.566 48.6025 156.532C48.7733 156.515 48.9401 156.494 49.1089 156.469C49.2776 156.444 49.4565 156.413 49.5713 156.388L50.8776 156.996C50.8695 156.98 50.8979 157.03 50.9127 157.054L50.9755 157.149C51.0208 157.216 51.07 157.278 51.1207 157.342C51.2252 157.469 51.338 157.589 51.4582 157.701C51.6916 157.916 51.9569 158.093 52.2447 158.227C52.3846 158.291 52.5299 158.342 52.6788 158.381C52.7712 158.406 52.865 158.426 52.9597 158.44L53.2668 158.497L54.4955 158.728C56.1431 158.942 57.8108 158.949 59.4602 158.751C61.1102 158.544 62.7234 158.108 64.2535 157.456C65.013 157.119 65.7677 156.767 66.4766 156.337C66.8378 156.135 67.1807 155.903 67.5203 155.673C67.6864 155.555 67.8579 155.44 68.0138 155.316C68.1698 155.193 68.3426 155.06 68.4533 154.965L68.4594 154.96C68.6796 154.77 68.9613 154.667 69.2519 154.67C69.5426 154.672 69.8224 154.78 70.0391 154.974C70.2429 155.154 70.4556 155.323 70.6764 155.481C70.9066 155.645 71.1416 155.804 71.3826 155.941C71.8612 156.222 72.3581 156.45 72.8327 156.567C72.9471 156.597 73.0635 156.62 73.1811 156.634L73.3512 156.659L73.5125 156.663C73.6345 156.668 73.7567 156.665 73.8784 156.655C74.006 156.642 74.1356 156.633 74.2585 156.61C74.728 156.546 75.1784 156.383 75.5797 156.13C75.947 155.89 76.2461 155.559 76.4479 155.169C76.6755 154.751 76.8102 154.288 76.8428 153.813C76.9069 152.918 76.487 151.868 75.9179 150.811C75.6371 150.283 75.3191 149.751 74.9917 149.217C74.8236 148.932 74.671 148.721 74.5191 148.496C74.4428 148.383 74.3483 148.281 74.2639 148.173C74.1806 148.063 74.0904 147.959 73.9939 147.86C73.6286 147.444 73.1837 147.087 72.7389 146.738C72.2705 146.4 71.7777 146.098 71.2644 145.834C70.2062 145.303 69.0891 144.899 67.9362 144.629C66.7602 144.359 65.563 144.192 64.3581 144.13C64.0439 144.113 63.7489 143.973 63.5358 143.742L63.5142 143.718C62.9296 143.081 62.5792 142.274 62.4253 141.515C62.2894 140.794 62.2648 140.057 62.3524 139.329C62.4317 138.66 62.5654 137.998 62.752 137.35C62.9417 136.722 63.1618 136.116 63.4015 135.524C63.8877 134.361 64.4845 133.249 65.1838 132.201C65.8717 131.158 66.6319 130.175 67.5385 129.292C67.6034 129.228 67.6881 129.188 67.7787 129.179C67.8692 129.17 67.9602 129.192 68.0364 129.242C68.1126 129.292 68.1695 129.366 68.1977 129.453C68.2259 129.539 68.2236 129.633 68.1914 129.718L68.1853 129.729Z" fill="#371A45"/>
<g opacity="0.35">
<path d="M127.408 117.836C126.231 118.707 125.007 119.527 123.735 120.295C122.294 121.161 120.808 121.95 119.283 122.657C118.535 123.006 117.772 123.339 116.992 123.655C110.4 126.315 103.29 127.44 96.1988 126.944C95.2986 126.877 94.4046 126.787 93.5166 126.674C84.4466 125.496 75.916 121.703 68.9664 115.757C67.9569 114.896 66.9837 113.99 66.0466 113.037C65.4545 112.429 64.8733 111.81 64.3096 111.171C65.6301 110.234 67.0093 109.289 68.4473 108.335C68.8341 108.077 69.2277 107.821 69.624 107.563L69.5565 108.411L123.46 112.097C123.46 112.097 125.126 114.851 127.408 117.836Z" fill="#371A45"/>
</g>
<path d="M140.214 97.5253C136.262 104.479 130.587 110.299 123.736 114.425C122.295 115.292 120.809 116.08 119.284 116.788C118.536 117.138 117.769 117.469 116.989 117.787C110.397 120.448 103.286 121.572 96.1956 121.074C95.2977 121.008 94.4038 120.918 93.5141 120.804C77.244 118.697 62.5524 108.1 55.9938 91.7923C46.3276 67.7721 57.9671 40.4655 81.9853 30.7994C86.4873 28.9831 91.2445 27.8784 96.0862 27.5251C96.6378 27.4806 97.1927 27.4515 97.747 27.434C99.2322 27.3777 100.709 27.3921 102.176 27.4772C108.926 27.8762 115.512 29.7235 121.484 32.8936C122.427 33.3931 123.353 33.9253 124.262 34.4902C132.713 39.7478 139.269 47.5609 142.98 56.7963C148.542 70.6136 147.051 85.5159 140.214 97.5253Z" fill="white"/>
<path d="M99.4872 121.311C98.3895 121.311 97.2908 121.272 96.1913 121.195C95.2988 121.127 94.3942 121.038 93.503 120.925C76.6376 118.741 62.2248 107.596 55.8883 91.8405C46.2134 67.8 57.9021 40.3692 81.9432 30.6929C86.4565 28.8724 91.2256 27.7653 96.0792 27.4113C96.6018 27.3687 97.1635 27.3377 97.7454 27.3194C99.2239 27.2634 100.716 27.2783 102.185 27.3626C108.951 27.7636 115.552 29.6157 121.539 32.7932C122.493 33.2988 123.429 33.8369 124.323 34.3932C132.796 39.6627 139.37 47.4946 143.091 56.7526C148.479 70.1406 147.469 85.0226 140.317 97.5843C136.35 104.552 130.662 110.386 123.798 114.529C122.353 115.398 120.864 116.19 119.335 116.901C118.64 117.226 117.888 117.554 117.04 117.902C112.764 119.622 108.259 120.708 103.669 121.125C102.285 121.248 100.889 121.311 99.4872 121.311ZM99.5148 27.5226C98.9298 27.5226 98.3426 27.5337 97.7535 27.5557C97.1743 27.5733 96.6173 27.6043 96.0975 27.6462C91.2678 27.9984 86.5224 29.1004 82.0317 30.9123C58.1114 40.54 46.4814 67.8324 56.1077 91.7521C62.4125 107.429 76.7537 118.517 93.5341 120.691C94.4205 120.804 95.3211 120.894 96.2089 120.961C103.281 121.451 110.372 120.33 116.947 117.682C117.795 117.335 118.543 117.007 119.235 116.686C120.756 115.977 122.238 115.188 123.675 114.323C130.505 110.201 136.164 104.398 140.112 97.4661C147.226 84.9686 148.232 70.1595 142.871 56.8404C139.168 47.6293 132.628 39.8371 124.198 34.5937C123.31 34.0401 122.375 33.5047 121.43 33.0018C115.473 29.8414 108.905 27.9995 102.173 27.601C101.292 27.5476 100.404 27.5226 99.5148 27.5226Z" fill="#371A45"/>
<path d="M140.214 97.5253C136.262 104.479 130.587 110.299 123.736 114.425C122.295 115.292 120.809 116.08 119.284 116.788C118.536 117.138 117.769 117.469 116.989 117.787C110.397 120.448 103.286 121.572 96.1956 121.074C95.2977 121.008 94.4038 120.918 93.5141 120.804C77.244 118.697 62.5524 108.1 55.9938 91.7923C46.3276 67.7721 57.9671 40.4655 81.9853 30.7994C86.4873 28.9831 91.2445 27.8784 96.0862 27.5251C96.6378 27.4806 97.1927 27.4515 97.747 27.434C99.2322 27.3777 100.709 27.3921 102.176 27.4772C108.926 27.8762 115.512 29.7235 121.484 32.8936C122.427 33.3931 123.353 33.9253 124.262 34.4902C132.713 39.7478 139.269 47.5609 142.98 56.7963C148.542 70.6136 147.051 85.5159 140.214 97.5253Z" fill="white"/>
<path d="M99.4872 121.311C98.3895 121.311 97.2908 121.272 96.1913 121.195C95.2988 121.127 94.3942 121.038 93.503 120.925C76.6376 118.741 62.2248 107.596 55.8883 91.8405C46.2134 67.8 57.9021 40.3692 81.9432 30.6929C86.4565 28.8724 91.2256 27.7653 96.0792 27.4113C96.6018 27.3687 97.1635 27.3377 97.7454 27.3194C99.2239 27.2634 100.716 27.2783 102.185 27.3626C108.951 27.7636 115.552 29.6157 121.539 32.7932C122.493 33.2988 123.429 33.8369 124.323 34.3932C132.796 39.6627 139.37 47.4946 143.091 56.7526C148.479 70.1406 147.469 85.0226 140.317 97.5843C136.35 104.552 130.662 110.386 123.798 114.529C122.353 115.398 120.864 116.19 119.335 116.901C118.64 117.226 117.888 117.554 117.04 117.902C112.764 119.622 108.259 120.708 103.669 121.125C102.285 121.248 100.889 121.311 99.4872 121.311ZM99.5148 27.5226C98.9298 27.5226 98.3426 27.5337 97.7535 27.5557C97.1743 27.5733 96.6173 27.6043 96.0975 27.6462C91.2678 27.9984 86.5224 29.1004 82.0317 30.9123C58.1114 40.54 46.4814 67.8324 56.1077 91.7521C62.4125 107.429 76.7537 118.517 93.5341 120.691C94.4205 120.804 95.3211 120.894 96.2089 120.961C103.281 121.451 110.372 120.33 116.947 117.682C117.795 117.335 118.543 117.007 119.235 116.686C120.756 115.977 122.238 115.188 123.675 114.323C130.505 110.201 136.164 104.398 140.112 97.4661C147.226 84.9686 148.232 70.1595 142.871 56.8404C139.168 47.6293 132.628 39.8371 124.198 34.5937C123.31 34.0401 122.375 33.5047 121.43 33.0018C115.473 29.8414 108.905 27.9995 102.173 27.601C101.292 27.5476 100.404 27.5226 99.5148 27.5226Z" fill="#371A45"/>
<g opacity="0.35">
<path d="M55.9984 91.7944C62.5557 108.104 77.2459 118.701 93.52 120.806C94.4093 120.921 95.3025 121.011 96.1995 121.076C103.29 121.568 110.399 120.445 116.993 117.791C117.77 117.47 118.537 117.142 119.288 116.793C120.812 116.082 122.298 115.291 123.739 114.425C130.592 110.299 136.267 104.479 140.218 97.524C142.351 93.7782 143.961 89.7576 145.002 85.5747C140.191 93.5843 133.091 99.97 124.619 103.909C123.872 104.259 123.105 104.584 122.323 104.907C118.059 106.624 113.566 107.707 108.988 108.122C106.509 108.345 104.016 108.369 101.533 108.193C100.633 108.126 99.7393 108.036 98.8513 107.923C82.5772 105.818 67.8897 95.2219 61.3297 78.9114C57.6345 69.7701 56.9305 59.6932 59.3185 50.127C52.0105 62.2937 50.2917 77.6172 55.9984 91.7944Z" fill="#371A45"/>
</g>
<path d="M99.4874 122.102C98.3714 122.102 97.2521 122.063 96.1361 121.985C95.2268 121.917 94.3086 121.825 93.4033 121.711C76.2557 119.489 61.5971 108.157 55.1539 92.1356C45.3163 67.6907 57.2015 39.7981 81.6477 29.9585C86.2372 28.1068 91.0869 26.9808 96.0227 26.6208C96.5513 26.5776 97.1258 26.5458 97.7213 26.5276C99.218 26.4716 100.738 26.4857 102.23 26.5715C109.11 26.9799 115.822 28.863 121.911 32.0932C122.88 32.6069 123.833 33.1544 124.742 33.7202C133.356 39.0788 140.04 47.0419 143.825 56.455C149.303 70.0684 148.276 85.2016 141.005 97.9739C136.97 105.059 131.186 110.99 124.206 115.203C122.737 116.086 121.222 116.891 119.668 117.615C118.963 117.945 118.199 118.277 117.336 118.627C114.976 119.577 112.545 120.338 110.064 120.902C107.98 121.379 105.866 121.715 103.736 121.906C102.333 122.039 100.912 122.102 99.4874 122.102ZM99.515 28.3139C98.9371 28.3139 98.3599 28.3249 97.7834 28.347C97.2123 28.3646 96.6688 28.3943 96.1631 28.4354C91.4128 28.7814 86.7452 29.8649 82.3282 31.6469C58.8116 41.1119 47.3788 67.9419 56.8437 91.4564C63.0419 106.868 77.1401 117.769 93.6369 119.905C94.5085 120.017 95.3922 120.108 96.2698 120.17C100.761 120.486 105.274 120.137 109.663 119.134C112.046 118.59 114.383 117.858 116.651 116.944C117.482 116.607 118.219 116.285 118.899 115.966C120.395 115.27 121.853 114.495 123.267 113.644C129.981 109.593 135.543 103.888 139.424 97.074C146.419 84.7871 147.408 70.2291 142.137 57.1341C138.498 48.0778 132.068 40.4163 123.78 35.2607C122.907 34.7207 121.991 34.1907 121.058 33.6965C115.201 30.5885 108.744 28.7767 102.126 28.3841C101.262 28.3389 100.388 28.3139 99.515 28.3139Z" fill="#371A45"/>
<path d="M99.4876 122.365C98.3649 122.365 97.2395 122.326 96.1182 122.247C95.2027 122.18 94.2799 122.087 93.3705 121.972C76.1243 119.738 61.3881 108.343 54.9091 92.2333C45.0175 67.6534 56.9682 39.6069 81.5528 29.7133C86.1675 27.8514 91.0438 26.7192 96.0068 26.3573C96.5374 26.3141 97.116 26.2824 97.7161 26.2635C99.2196 26.2061 100.747 26.2216 102.248 26.308C109.167 26.7175 115.916 28.6111 122.037 31.8601C123.012 32.3766 123.97 32.9274 124.884 33.4959C133.545 38.886 140.263 46.8936 144.067 56.3583C149.577 70.046 148.543 85.2629 141.232 98.1054C137.175 105.229 131.359 111.194 124.34 115.43C122.863 116.318 121.34 117.128 119.777 117.855C119.068 118.187 118.301 118.521 117.433 118.876C115.06 119.831 112.615 120.596 110.121 121.164C108.025 121.643 105.899 121.98 103.758 122.173C102.349 122.301 100.92 122.365 99.4876 122.365ZM99.516 28.5771C98.9408 28.5771 98.3667 28.5881 97.7938 28.6102C97.2247 28.627 96.6859 28.6567 96.183 28.6979C91.4591 29.0418 86.8175 30.1191 82.425 31.8912C59.0455 41.3008 47.6788 67.9775 57.087 91.357C63.2494 106.682 77.2672 117.519 93.6689 119.644C94.5351 119.754 95.4167 119.842 96.2863 119.907C100.751 120.221 105.237 119.873 109.6 118.876C111.972 118.336 114.297 117.609 116.554 116.701C117.379 116.364 118.112 116.045 118.787 115.728C120.275 115.036 121.725 114.265 123.132 113.419C129.806 109.392 135.337 103.72 139.195 96.9469C146.149 84.7275 147.133 70.2567 141.892 57.2366C138.274 48.2332 131.881 40.6167 123.641 35.4915C122.774 34.9514 121.863 34.4282 120.935 33.9387C115.112 30.8486 108.692 29.0472 102.111 28.6567C101.252 28.602 100.384 28.5771 99.516 28.5771Z" fill="#371A45"/>
<path d="M132.981 107.117C105.114 125.724 68.0504 111.254 66.7812 78.0919C65.9164 55.53 87.3395 37.265 109.062 37.822C124.871 38.227 140.129 45.5398 146.207 70.2493C146.207 70.2493 147.208 81.6032 143.979 89.0799C140.749 96.5567 136.345 103.283 136.345 103.283L132.981 107.117Z" fill="#371A45"/>
<path d="M66.7825 78.0925C68.0524 111.254 105.117 125.724 132.981 107.122L133.662 106.344C103.334 111.098 73.6092 92.3696 71.7007 58.8662C68.3697 64.5769 66.5165 71.1302 66.7825 78.0925Z" fill="#220F2D"/>
<path d="M106.589 121.3C94.6272 121.3 83.1977 117.106 74.8136 109.549C66.0473 101.651 61.1596 90.8491 60.6782 78.3286C60.236 66.8052 64.8099 55.5769 73.5619 46.7168C83.0809 37.073 96.4851 31.5074 109.405 31.8456C116.659 32.0306 123.16 33.4929 128.731 36.1913C128.804 36.2269 128.873 36.2696 128.937 36.3189C135.671 41.5365 140.893 48.4535 144.067 56.3587C149.577 70.0464 148.543 85.2632 141.232 98.1058C137.174 105.23 131.358 111.194 124.339 115.43C122.862 116.319 121.339 117.128 119.777 117.855C119.068 118.187 118.3 118.522 117.433 118.876C115.06 119.831 112.614 120.596 110.12 121.165C110.06 121.178 109.998 121.187 109.937 121.191C108.819 121.265 107.703 121.301 106.589 121.3ZM108.304 34.1761C96.3426 34.1761 84.051 39.4318 75.2321 48.3634C66.9425 56.7583 62.6077 67.3676 63.0242 78.2354C63.4799 90.1118 68.1003 100.336 76.3852 107.805C85.0603 115.623 97.1966 119.651 109.693 118.854C112.032 118.316 114.326 117.596 116.553 116.7C117.378 116.363 118.111 116.044 118.786 115.727C120.274 115.035 121.724 114.264 123.131 113.418C129.805 109.391 135.336 103.719 139.194 96.9459C146.148 84.7265 147.132 70.2557 141.891 57.2356C138.888 49.756 133.956 43.2058 127.598 38.2524C122.354 35.7349 116.214 34.3692 109.344 34.193C108.999 34.1817 108.652 34.1761 108.304 34.1761Z" fill="#371A45"/>
<path d="M106.486 116.5C99.6157 116.5 92.8485 114.956 86.7118 111.826C73.8693 105.272 66.1778 92.9901 65.608 78.1378C65.2145 67.8499 69.2982 57.828 77.1084 49.9185C85.6033 41.3136 97.556 36.3449 109.092 36.65C129.164 37.1644 142.037 48.3745 147.347 69.9691C147.361 70.0274 147.371 70.0868 147.376 70.1466C147.418 70.6192 148.366 81.8847 145.056 89.5458C141.823 97.0293 137.509 103.648 137.328 103.925C137.297 103.971 137.264 104.015 137.228 104.056L133.863 107.891C133.795 107.968 133.718 108.036 133.633 108.094C125.293 113.663 115.798 116.5 106.486 116.5ZM108.106 38.9845C97.4986 38.9845 86.5984 43.6427 78.776 51.5671C71.4261 59.0101 67.5847 68.4143 67.954 78.0474C68.4894 92.0295 75.7177 103.579 87.7785 109.735C101.431 116.702 118.439 115.355 132.2 106.225L135.406 102.572C135.871 101.852 139.92 95.5123 142.9 88.6134C145.828 81.8354 145.128 71.4881 145.044 70.4376C140.003 50.0576 127.887 39.48 109.029 38.996C108.725 38.9886 108.416 38.9845 108.109 38.9845H108.106Z" fill="#371A45"/>
<path d="M70.2559 78.7331C70.2384 78.9322 70.2208 79.1294 70.1972 79.3258C69.2345 88.2372 63.3111 94.698 56.77 93.85C50.5591 93.0399 45.9684 85.9304 45.9609 77.5361C45.9609 76.8934 45.9873 76.2449 46.0399 75.5905C46.8001 66.374 52.8382 59.6047 59.5258 60.4735C66.2134 61.3424 71.0208 69.5125 70.2559 78.7331Z" fill="white"/>
<g opacity="0.35">
<path d="M70.1972 79.3249C69.2345 88.2362 63.3111 94.697 56.77 93.8491C50.5591 93.0389 45.9684 85.9294 45.9609 77.5352H61.8934C65.6936 83.333 68.6276 81.3664 70.1972 79.3249Z" fill="#371A45"/>
</g>
<path d="M57.9401 95.0984C57.4988 95.0984 57.0579 95.0697 56.6203 95.0127C49.3292 94.0676 44.0586 85.3108 44.8694 75.4934C45.342 69.7827 47.719 64.8025 51.3963 61.8307C53.9043 59.8053 56.7661 58.9277 59.6758 59.3085C66.9656 60.2536 72.2361 69.0117 71.426 78.8271C70.9534 84.5378 68.5757 89.518 64.8991 92.4905C62.7725 94.2093 60.3894 95.0984 57.9401 95.0984ZM58.3702 61.5714C56.4549 61.5714 54.5727 62.2816 52.8721 63.6561C49.7383 66.1891 47.6212 70.6867 47.208 75.6865C46.4998 84.2731 50.8576 91.8978 56.9221 92.685C59.1796 92.9779 61.427 92.2799 63.424 90.6644C66.5578 88.132 68.6749 83.6338 69.0874 78.634C69.7956 70.0474 65.4385 62.4221 59.374 61.6362C59.0412 61.5928 58.7058 61.5712 58.3702 61.5714Z" fill="#371A45"/>
<path d="M54.1788 91.5349C59.6608 91.5109 64.0788 85.5342 64.0467 78.1854C64.0146 70.8366 59.5446 64.8986 54.0627 64.9225C48.5807 64.9464 44.1627 70.9232 44.1948 78.272C44.2268 85.6208 48.6968 91.5588 54.1788 91.5349Z" fill="white"/>
<path d="M54.1368 91.6677C52.9013 91.6596 51.6853 91.3588 50.5885 90.7901C47.6855 89.3224 45.4826 86.2162 44.5436 82.2676C42.8693 75.2188 45.7885 67.6617 51.0556 65.4338C53.2335 64.5103 55.5113 64.592 57.6514 65.6728C60.5543 67.1398 62.7572 70.2467 63.6963 74.1953C65.3726 81.2461 62.4514 88.7999 57.1842 91.0338C56.2216 91.4486 55.185 91.6643 54.1368 91.6677ZM44.7826 82.2163C45.7048 86.092 47.861 89.1381 50.7005 90.5734C52.7711 91.6198 54.98 91.7001 57.0897 90.8049C62.2516 88.6156 65.1093 81.1881 63.4586 74.2487C62.5371 70.3702 60.3802 67.3228 57.542 65.8882C55.4722 64.8424 53.2632 64.7614 51.1528 65.6566C45.991 67.846 43.134 75.2735 44.7839 82.2129L44.7826 82.2163Z" fill="#371A45"/>
<g opacity="0.35">
<path d="M63.002 84.6185C63.8121 82.232 63.9775 79.6146 63.59 77.112C61.2764 82.396 56.147 84.2067 51.7081 81.112C48.841 79.1137 46.9244 75.5235 46.3269 71.6504C46.179 71.9825 46.0454 72.3336 45.9218 72.6955C43.8526 78.7714 45.9988 86.3683 50.7151 89.6601C55.4313 92.952 60.9334 90.6917 63.002 84.6185Z" fill="#371A45"/>
</g>
<path d="M53.891 92.7242C53.5487 92.7252 53.2068 92.7026 52.8676 92.6567C47.225 91.8796 43.1535 84.6466 43.7908 76.5332C44.1722 71.6886 46.1719 67.3693 49.141 64.9794C51.0313 63.4591 53.1673 62.813 55.3263 63.1108C60.9688 63.8851 65.0404 71.1175 64.4051 79.2309C64.0237 84.0761 62.024 88.3954 59.0549 90.7853C57.4644 92.0639 55.6963 92.7242 53.891 92.7242ZM54.3177 65.3825C53.0438 65.3825 51.7752 65.8658 50.6127 66.8002C48.1351 68.7972 46.4622 72.5021 46.1314 76.7148C45.5913 83.611 48.7548 89.718 53.1876 90.3282C54.6931 90.5362 56.2093 90.0582 57.5811 88.9564C60.0561 86.9642 61.7317 83.2599 62.0625 79.0473C62.6046 72.1511 59.439 66.0414 55.0063 65.4338C54.7781 65.402 54.5481 65.386 54.3177 65.3858V65.3825Z" fill="#371A45"/>
<g opacity="0.7">
<path d="M97.6903 45.7816C97.6903 45.7816 118.903 47.682 130.277 60.2139C130.289 60.2274 130.301 60.2403 130.313 60.2538C132.701 62.8977 134.342 66.1302 135.067 69.6188C136.031 74.2298 136.021 77.5479 135.898 80.4691C135.522 89.3528 133.684 93.4453 133.684 93.4453C138.935 88.9653 142.008 83.7568 142.393 76.3604C142.429 75.6313 142.44 74.8752 142.425 74.1049C142.425 73.9266 142.417 73.7498 142.407 73.5715C142.411 73.5715 142.407 73.5661 142.407 73.5614C142.232 71.5788 141.937 69.6084 141.525 67.661C140.066 60.7614 136.568 51.6941 128.181 47.2C112.499 38.7963 96.9983 44.8222 97.6903 45.7816Z" fill="white"/>
</g>
<g opacity="0.7">
<path d="M86.9403 68.8575C88.1464 65.0089 86.4469 61.05 83.1445 60.0151C79.8421 58.9802 76.1872 61.2611 74.9811 65.1097C73.7751 68.9582 75.4745 72.9171 78.7769 73.952C82.0794 74.9869 85.7342 72.706 86.9403 68.8575Z" fill="white"/>
</g>
<g opacity="0.7">
<path d="M79.3868 80.6206C80.0172 79.079 79.4559 77.3907 78.133 76.8498C76.8102 76.3089 75.2269 77.1202 74.5965 78.6618C73.9661 80.2034 74.5274 81.8916 75.8502 82.4325C77.1731 82.9734 78.7564 82.1622 79.3868 80.6206Z" fill="white"/>
</g>
<path d="M64.345 144.052L63.9021 144.08C63.7435 144.087 63.5841 144.099 63.4214 144.114C63.0987 144.13 62.7727 144.173 62.4479 144.195L61.4704 144.31C61.145 144.363 60.8182 144.397 60.4935 144.453C59.1946 144.669 57.8896 144.931 56.6198 145.342C55.3499 145.754 54.0861 146.229 52.8831 146.864C52.5853 147.026 52.2599 147.152 51.9751 147.337C51.6821 147.512 51.3852 147.686 51.0846 147.858C50.7767 148.022 50.5033 148.23 50.211 148.42L49.3334 148.997L49.3226 149.005C49.2889 149.026 49.2485 149.035 49.2088 149.03C49.1691 149.025 49.1326 149.005 49.1058 148.976C49.079 148.946 49.0637 148.908 49.0626 148.867C49.0615 148.827 49.0747 148.788 49.0998 148.757C49.3253 148.482 49.5508 148.205 49.7857 147.933C50.0112 147.653 50.2538 147.387 50.5121 147.137C51.0259 146.633 51.5477 146.124 52.127 145.688C53.2551 144.767 54.5195 144.007 55.8468 143.371C57.1783 142.723 58.5859 142.245 60.0365 141.947C60.7647 141.796 61.5026 141.695 62.2447 141.645C62.6181 141.626 62.9874 141.612 63.3688 141.621C63.5558 141.621 63.7468 141.634 63.9379 141.647C64.0331 141.652 64.1283 141.66 64.2282 141.672L64.5448 141.711C64.8341 141.747 65.0995 141.889 65.2893 142.111C65.4791 142.332 65.5796 142.616 65.5712 142.907C65.5627 143.199 65.446 143.476 65.2437 143.686C65.0414 143.896 64.7682 144.023 64.4773 144.042L64.345 144.052Z" fill="#371A45"/>
<g opacity="0.35">
<path d="M69.2367 155.305C69.2367 155.305 69.2367 150.322 66.5234 147.823Z" fill="#371A45"/>
</g>
<g opacity="0.35">
<path d="M49.8316 157.534C49.8316 157.534 49.4022 154.941 48.4922 152.966Z" fill="#371A45"/>
</g>
<path d="M142.263 146.446C142.482 146.392 142.697 146.321 142.905 146.232C142.968 146.204 143.039 146.198 143.106 146.215C143.173 146.231 143.233 146.268 143.277 146.322C143.321 146.375 143.346 146.441 143.35 146.51C143.353 146.579 143.334 146.647 143.295 146.704C142.609 147.686 141.614 148.409 140.468 148.757C138.089 149.49 135.462 148.436 134.253 146.259C133.761 145.383 133.527 144.386 133.576 143.383C133.625 142.379 133.956 141.41 134.531 140.586C135.105 139.762 135.901 139.117 136.825 138.724C137.75 138.331 138.767 138.207 139.759 138.366C139.828 138.376 139.893 138.41 139.942 138.46C139.991 138.511 140.021 138.576 140.03 138.646C140.038 138.716 140.022 138.787 139.986 138.847C139.95 138.908 139.895 138.955 139.83 138.981L139.818 138.986C139.339 139.188 138.904 139.484 138.54 139.856C138.176 140.228 137.889 140.668 137.696 141.152C137.503 141.635 137.408 142.152 137.416 142.673C137.424 143.193 137.536 143.707 137.744 144.184C138.497 145.918 140.428 146.893 142.263 146.446Z" fill="white"/>
<path opacity="0.6" d="M160.884 121.837L145.069 58.7537L28.1992 58.5762L94.9029 159.603L154.311 157.576L160.884 121.837Z" fill="url(#paint0_linear_904_2623)"/>
<path d="M158.92 163.571C159.774 163.519 160.586 163.18 161.223 162.609C161.861 162.038 162.288 161.269 162.434 160.426L167.551 130.851C167.889 128.779 167.551 126.627 166.467 124.83C165.564 123.339 164.089 121.967 161.686 121.725L112.36 122.845C112.36 122.845 102.832 122.845 102.272 134.056L97.8227 164.787C97.7785 165.092 97.8029 165.403 97.8941 165.698C97.9852 165.993 98.1409 166.263 98.3498 166.49C98.5587 166.717 98.8156 166.895 99.1017 167.01C99.3878 167.126 99.696 167.176 100.004 167.157L158.92 163.571Z" fill="#4A83FF"/>
<path d="M99.8775 168.334C99.4119 168.334 98.9518 168.233 98.5284 168.039C98.1049 167.845 97.7281 167.563 97.4234 167.211C97.1187 166.859 96.8932 166.445 96.7621 165.998C96.6311 165.552 96.5977 165.082 96.664 164.621L101.102 133.944C101.738 121.811 112.254 121.669 112.36 121.669L161.66 120.549C161.707 120.549 161.756 120.549 161.803 120.554C164.205 120.795 166.165 122.061 167.47 124.218C168.666 126.193 169.105 128.614 168.71 131.037L163.589 160.623C163.401 161.728 162.844 162.738 162.009 163.485C161.173 164.233 160.109 164.676 158.99 164.741L100.078 168.327C100.011 168.332 99.9446 168.334 99.8775 168.334ZM161.637 122.9L112.387 124.019C112.021 124.019 103.939 124.196 103.443 134.114C103.443 134.151 103.438 134.187 103.433 134.224L98.9871 164.955C98.9681 165.088 98.9787 165.223 99.0182 165.35C99.0577 165.478 99.1251 165.596 99.2156 165.694C99.306 165.793 99.4172 165.87 99.5411 165.92C99.6651 165.971 99.7986 165.993 99.9322 165.985L158.844 162.4C159.436 162.366 159.998 162.132 160.439 161.737C160.881 161.342 161.175 160.809 161.275 160.225L166.394 130.649C166.698 128.788 166.367 126.936 165.461 125.435C164.554 123.934 163.268 123.081 161.637 122.899V122.9Z" fill="#371A45"/>
<g opacity="0.6">
<path d="M105.527 135.603C105.532 135.566 105.536 135.529 105.538 135.491C106.032 125.602 114.086 125.427 114.449 125.424L163.7 124.303C164.062 124.343 164.419 124.421 164.764 124.534C163.938 123.601 162.908 123.069 161.637 122.927L112.388 124.046C112.023 124.046 103.969 124.224 103.477 134.113C103.476 134.151 103.472 134.188 103.466 134.225L99.0207 164.957C99.0021 165.086 99.0124 165.217 99.0507 165.34C99.089 165.464 99.1545 165.578 99.2423 165.673C99.3301 165.769 99.438 165.843 99.5583 165.892C99.6786 165.94 99.8081 165.961 99.9375 165.953L100.448 165.88L105.527 135.603Z" fill="white"/>
</g>
<g opacity="0.2">
<path d="M162.43 160.425L167.552 130.851C167.889 128.779 167.552 126.626 166.467 124.829C166.442 124.789 166.416 124.75 166.39 124.71L164.762 124.463C164.762 124.463 166.095 161.729 98.7247 165.049C98.7247 165.049 98.1273 165.881 98.6572 166.762C99.0468 167.048 99.5247 167.189 100.007 167.159L158.92 163.57C159.773 163.518 160.584 163.178 161.221 162.608C161.858 162.037 162.284 161.268 162.43 160.425Z" fill="#650000"/>
</g>
<g opacity="0.6">
<path d="M147.308 143.372L144.974 145.701C144.769 145.905 144.618 146.156 144.532 146.432C144.446 146.707 144.429 147 144.482 147.284L144.574 147.784L145.076 150.526C145.346 151.976 143.831 153.104 142.514 152.434L139.578 150.935C139.321 150.804 139.035 150.737 138.747 150.741C138.458 150.745 138.175 150.819 137.921 150.956L135.021 152.522C133.722 153.225 132.185 152.134 132.414 150.676L132.933 147.421C132.978 147.136 132.953 146.844 132.861 146.57C132.768 146.297 132.611 146.05 132.402 145.85L130.013 143.579C128.989 142.604 129.46 140.911 130.783 140.566C130.841 140.551 130.903 140.538 130.964 140.528L134.221 140.014C134.506 139.969 134.775 139.855 135.007 139.683C135.238 139.51 135.424 139.285 135.549 139.025L136.692 136.638L136.973 136.052C137.611 134.719 139.499 134.697 140.168 136.012L141.664 138.952C141.795 139.209 141.986 139.43 142.221 139.597C142.456 139.763 142.728 139.87 143.014 139.909L146.281 140.344C147.746 140.541 148.351 142.328 147.308 143.372Z" fill="white"/>
</g>
<path d="M144.717 143.268L142.571 145.409C142.383 145.596 142.243 145.827 142.164 146.08C142.086 146.334 142.07 146.603 142.119 146.864L142.203 147.323L142.665 149.844C142.912 151.178 141.521 152.215 140.31 151.6L137.61 150.222C137.374 150.101 137.111 150.04 136.846 150.043C136.581 150.047 136.32 150.115 136.087 150.241L133.42 151.682C132.227 152.328 130.812 151.325 131.024 149.985L131.502 146.992C131.543 146.73 131.52 146.461 131.435 146.21C131.35 145.958 131.205 145.731 131.013 145.548L128.817 143.46C127.876 142.563 128.309 141.007 129.525 140.692C129.579 140.678 129.635 140.666 129.691 140.657L132.686 140.184C132.948 140.142 133.195 140.038 133.408 139.879C133.621 139.721 133.792 139.513 133.906 139.274L134.958 137.081L135.215 136.541C135.803 135.315 137.538 135.295 138.153 136.504L139.527 139.205C139.648 139.441 139.824 139.644 140.041 139.796C140.258 139.949 140.508 140.047 140.771 140.082L143.774 140.483C145.121 140.665 145.675 142.307 144.717 143.268Z" fill="#FFCE00"/>
<g opacity="0.6">
<path d="M144.717 143.268L142.571 145.408C142.361 145.617 142.212 145.88 142.14 146.167C142.04 146.106 141.942 146.04 141.844 145.974C141.641 145.834 141.429 145.682 141.324 145.46C141.193 145.186 141.248 144.853 141.405 144.593C141.561 144.333 141.81 144.142 142.068 143.985C142.483 143.731 143 143.475 143.073 142.991C143.128 142.634 142.893 142.283 142.584 142.096C142.275 141.909 141.904 141.856 141.546 141.826C141.036 141.78 140.524 141.767 140.012 141.787C139.659 141.801 139.297 141.83 138.956 141.739C138.202 141.537 137.721 140.794 137.471 140.06C137.22 139.326 137.124 138.53 136.781 137.832C136.71 137.669 136.603 137.524 136.467 137.408C136.324 137.315 136.163 137.251 135.995 137.221C135.655 137.144 135.308 137.099 134.96 137.086L135.217 136.546C135.805 135.32 137.54 135.3 138.155 136.509L139.529 139.209C139.65 139.445 139.826 139.649 140.043 139.801C140.259 139.954 140.51 140.052 140.773 140.087L143.776 140.487C145.12 140.664 145.675 142.307 144.717 143.268Z" fill="white"/>
</g>
<path d="M142.665 149.845C142.912 151.178 141.521 152.216 140.31 151.6L137.61 150.222C137.374 150.102 137.111 150.04 136.846 150.044C136.581 150.047 136.32 150.115 136.087 150.242L133.42 151.682C132.227 152.328 130.812 151.325 131.024 149.985L131.502 146.992C131.543 146.73 131.52 146.462 131.435 146.21C131.35 145.959 131.205 145.732 131.013 145.548L128.817 143.46C127.876 142.564 128.309 141.008 129.525 140.692C129.545 140.757 129.569 140.821 129.597 140.883C129.8 141.351 130.178 141.754 130.59 142.048C131.385 142.617 132.354 142.976 132.967 143.736C133.83 144.805 133.74 146.319 133.796 147.693C133.808 147.933 133.834 148.199 134.011 148.364C134.188 148.528 134.438 148.536 134.664 148.499C135.422 148.37 136.059 147.751 136.828 147.743C137.879 147.732 140.09 150.112 140.936 149.47C141.611 148.958 140.593 147.161 142.203 147.329L142.665 149.845Z" fill="#E2AC40"/>
<path d="M132.641 152.668C132.291 152.667 131.945 152.59 131.627 152.443C131.31 152.295 131.027 152.081 130.8 151.814C130.573 151.547 130.406 151.235 130.311 150.898C130.216 150.56 130.195 150.207 130.249 149.861L130.722 146.868C130.744 146.731 130.732 146.592 130.688 146.461C130.644 146.33 130.568 146.212 130.468 146.117L128.273 144.024C127.945 143.712 127.711 143.315 127.598 142.877C127.484 142.439 127.495 141.979 127.63 141.547C127.765 141.115 128.017 140.729 128.36 140.434C128.702 140.138 129.12 139.944 129.567 139.874L132.56 139.401C132.697 139.38 132.825 139.325 132.936 139.243C133.047 139.161 133.136 139.053 133.196 138.929L134.504 136.195C134.699 135.787 135.005 135.442 135.386 135.198C135.767 134.955 136.209 134.823 136.661 134.818C137.114 134.812 137.558 134.933 137.945 135.168C138.332 135.402 138.646 135.74 138.851 136.143L140.225 138.844C140.287 138.967 140.379 139.073 140.491 139.152C140.604 139.232 140.735 139.283 140.871 139.301L143.875 139.701C144.323 139.76 144.746 139.944 145.096 140.232C145.445 140.519 145.707 140.898 145.852 141.327C145.997 141.755 146.019 142.216 145.916 142.656C145.812 143.097 145.588 143.5 145.268 143.819L143.124 145.96C143.026 146.058 142.953 146.178 142.912 146.31C142.871 146.442 142.863 146.581 142.888 146.717L143.436 149.697C143.518 150.142 143.474 150.601 143.309 151.022C143.143 151.443 142.863 151.809 142.501 152.08C142.138 152.35 141.707 152.513 141.256 152.551C140.805 152.589 140.353 152.5 139.95 152.294L137.25 150.916C137.127 150.854 136.99 150.822 136.852 150.823C136.714 150.825 136.578 150.861 136.457 150.927L133.792 152.369C133.439 152.562 133.044 152.665 132.641 152.668ZM136.692 136.394H136.681C136.522 136.393 136.365 136.439 136.231 136.525C136.097 136.611 135.99 136.733 135.923 136.878L134.616 139.611C134.446 139.966 134.193 140.275 133.878 140.51C133.562 140.745 133.195 140.9 132.806 140.961L129.813 141.434C129.656 141.459 129.509 141.527 129.389 141.631C129.269 141.734 129.18 141.87 129.132 142.022C129.085 142.173 129.081 142.335 129.121 142.489C129.161 142.643 129.244 142.783 129.359 142.892L131.554 144.985C131.839 145.256 132.053 145.592 132.179 145.964C132.305 146.336 132.339 146.734 132.277 147.122L131.804 150.114C131.779 150.271 131.799 150.432 131.86 150.578C131.922 150.725 132.023 150.851 132.153 150.943C132.283 151.035 132.435 151.088 132.594 151.098C132.753 151.108 132.911 151.073 133.05 150.997L135.716 149.555C136.061 149.368 136.447 149.267 136.84 149.263C137.233 149.258 137.621 149.349 137.971 149.528L140.672 150.906C140.813 150.978 140.972 151.009 141.131 150.996C141.289 150.983 141.44 150.925 141.568 150.83C141.695 150.735 141.794 150.606 141.852 150.458C141.91 150.31 141.925 150.149 141.896 149.993L141.348 147.013C141.277 146.626 141.301 146.229 141.418 145.853C141.535 145.478 141.741 145.137 142.019 144.859L144.164 142.718C144.276 142.606 144.355 142.464 144.392 142.309C144.428 142.155 144.42 141.993 144.369 141.842C144.318 141.692 144.226 141.558 144.103 141.458C143.981 141.357 143.832 141.292 143.675 141.271L140.671 140.872C140.281 140.82 139.91 140.674 139.59 140.447C139.269 140.22 139.008 139.918 138.83 139.568L137.451 136.859C137.382 136.718 137.274 136.6 137.14 136.517C137.006 136.435 136.852 136.392 136.695 136.394H136.692Z" fill="#371A45"/>
<defs>
<linearGradient id="paint0_linear_904_2623" x1="94.5417" y1="58.5762" x2="94.5417" y2="159.603" gradientUnits="userSpaceOnUse">
<stop offset="0.01" stop-color="white"/>
<stop offset="0.09" stop-color="#FFFBDA"/>
<stop offset="0.22" stop-color="#FFF4A6"/>
<stop offset="0.35" stop-color="#FFEF79"/>
<stop offset="0.48" stop-color="#FFEB54"/>
<stop offset="0.61" stop-color="#FFE737"/>
<stop offset="0.74" stop-color="#FFE523"/>
<stop offset="0.87" stop-color="#FFE317"/>
<stop offset="1" stop-color="#FFE313"/>
</linearGradient>
</defs>
</svg>
