<svg width="200" height="200" viewBox="0 0 200 200" fill="none" xmlns="http://www.w3.org/2000/svg">
<g opacity="0.2">
<path d="M186.325 96.9932C189.52 96.6092 193.572 96.8412 194.848 99.7958C194.935 99.9933 195.019 100.198 195.101 100.408C195.95 102.572 196.086 104.95 195.489 107.196C194.892 109.442 193.593 111.439 191.782 112.895C188.589 115.466 185.145 117.708 181.501 119.587C171.096 124.949 159.418 127.188 148.229 130.631C141.869 132.592 135.637 134.944 129.567 137.675C117.73 142.993 106.569 149.681 95.1667 155.876C90.4131 158.457 85.514 160.99 80.1822 161.903C72.2225 163.267 60.8326 158.265 53.3101 155.329C45.7877 152.393 38.3815 148.833 30.3887 147.681C33.4421 148.122 41.6337 142.376 44.6163 141.027C49.6391 138.754 54.6905 136.55 59.7704 134.415C69.9311 130.145 80.2021 126.151 90.5833 122.431C111.08 115.086 131.952 108.833 153.111 103.699C158.09 102.491 162.921 102.479 167.672 101.007C173.763 99.1202 179.998 97.7553 186.325 96.9932Z" fill="#000063"/>
</g>
<path d="M110.704 134.541L86.5262 148.499L69.2887 158.448C69.2887 158.448 1.14405 138.202 0.938758 137.589C0.854302 137.343 7.7284 133.8 15.9752 129.655C28.213 123.495 43.4697 116.012 43.4697 116.012L110.704 134.541Z" fill="#371A45"/>
<path d="M44.8496 136.929C45.0009 136.626 45.1746 136.335 45.3693 136.059C47.5834 136.139 51.3982 136.719 55.6126 137.67C59.827 138.622 63.3897 139.706 65.2276 140.54C65.1297 140.851 65.0067 141.154 64.8599 141.445C64.8528 141.459 64.8463 141.473 64.8385 141.487C64.7718 141.62 64.6999 141.75 64.6228 141.877C64.4419 142.18 64.2389 142.469 64.0153 142.742C64.0063 142.753 63.9972 142.764 63.9874 142.775C63.6409 143.193 63.2552 143.576 62.8356 143.92C61.9778 144.616 61.0218 145.18 59.9985 145.596C57.4239 146.662 54.2736 146.991 51.2845 146.317C48.3201 145.648 46.1164 144.127 45.0159 142.254C44.5701 141.509 44.3055 140.67 44.2435 139.804C44.2127 139.34 44.2435 138.874 44.3351 138.418C44.3422 138.38 44.35 138.343 44.3585 138.306C44.4301 137.986 44.5285 137.673 44.6527 137.37C44.6995 137.254 44.7508 137.139 44.8067 137.023C44.8184 136.992 44.8334 136.961 44.8496 136.929Z" fill="#FFB200"/>
<path d="M47.9087 133.707C48.2434 133.496 48.5891 133.302 48.9443 133.127C49.4601 132.872 49.9925 132.652 50.5379 132.468C53.0811 131.619 55.8072 131.477 58.4248 132.058C61.1066 132.663 63.1674 133.964 64.3491 135.594C64.6038 135.942 64.8215 136.317 64.9988 136.71C65.1341 137.009 65.2428 137.319 65.3236 137.637C62.9933 136.755 60.0918 135.893 56.8702 135.168C53.6485 134.444 50.5593 133.951 47.9087 133.707Z" fill="#FF9100"/>
<path d="M45.3704 136.06C47.5838 136.139 51.3992 136.72 55.6136 137.671C59.828 138.622 63.3908 139.707 65.2287 140.54C65.1306 140.851 65.0078 141.154 64.8616 141.446L64.8402 141.488C64.7752 141.617 64.7011 141.747 64.6238 141.877C64.4425 142.18 64.2395 142.469 64.0164 142.743L63.9884 142.776C63.6418 143.193 63.2561 143.576 62.8366 143.921C61.9786 144.616 61.0225 145.18 59.9995 145.596C57.9167 146.459 55.459 146.839 53.0137 146.595C53.9566 146.42 54.8788 146.147 55.7656 145.782C56.7883 145.367 57.7438 144.802 58.6008 144.107C59.0204 143.763 59.4061 143.38 59.7526 142.963L59.7806 142.929L59.8228 142.873C60.7076 141.664 59.8325 140.34 58.3533 139.531C55.5344 137.994 46.975 136.505 45.1001 136.227C45.2177 136.03 45.2365 136.251 45.3704 136.06Z" fill="#FF9100"/>
<path d="M56.8682 135.166C53.6472 134.439 50.5593 133.949 47.9087 133.707C48.2434 133.496 48.5891 133.302 48.9443 133.127C51.0284 133.28 54.0467 133.758 57.3217 134.498C60.4589 135.206 63.1933 136.008 64.9988 136.711C65.1341 137.009 65.2428 137.319 65.3236 137.637C62.9913 136.755 60.0899 135.893 56.8682 135.166Z" fill="#D66B09"/>
<path d="M44.8032 137.023C44.8182 136.992 44.8331 136.958 44.8494 136.929C45.0007 136.626 45.1744 136.335 45.3691 136.059C47.5831 136.139 51.398 136.719 55.6123 137.67C59.8267 138.622 63.3895 139.706 65.2274 140.54C65.1294 140.851 65.0065 141.154 64.8597 141.445C64.8525 141.459 64.846 141.473 64.8382 141.487C63.1842 140.631 59.6026 139.493 55.3057 138.523C50.8399 137.515 46.825 136.966 44.8032 137.023Z" fill="#D66B09"/>
<path d="M63.0972 143.743L62.5736 144.1C61.5841 143.38 58.0259 142.23 53.9149 141.303C49.0138 140.198 45.3815 139.834 44.3271 140.047L44.1523 139.563C45.5478 139.28 49.5673 139.786 54.1572 140.822C58.4274 141.786 62.0207 142.959 63.0972 143.743Z" fill="#D66B09"/>
<path d="M60.2062 145.385L59.7904 145.806C58.4508 145.166 55.7456 144.347 52.7305 143.666C49.5712 142.952 46.6094 142.509 44.9995 142.506L45.0274 142.002C46.7029 142.002 49.746 142.457 52.9689 143.186C56.0438 143.881 58.8166 144.723 60.2062 145.385Z" fill="#D66B09"/>
<path d="M64.2375 142.591L63.7379 142.965C62.5477 142.179 58.8569 140.999 54.5536 140.027C50.0403 139.009 45.8617 138.449 44.3935 138.663L44.27 138.169C45.8734 137.933 50.1027 138.485 54.7946 139.543C59.2539 140.552 62.9609 141.747 64.2375 142.591Z" fill="#D66B09"/>
<path d="M64.4643 135.493L64.3493 135.593L64.2993 135.716L64.2635 135.709L64.2343 135.693C63.1299 135.072 60.5423 134.247 57.6454 133.594C54.7323 132.936 52.0089 132.554 50.5381 132.594V132.342C52.0473 132.3 54.8168 132.688 57.7663 133.353C60.745 134.026 63.3105 134.846 64.4643 135.493Z" fill="#D66B09"/>
<path d="M56.774 131.543C57.3681 131.601 57.958 131.696 58.5404 131.827C62.2507 132.665 64.9786 134.872 65.6601 137.587L65.79 138.092L65.1534 137.851C62.7574 136.941 59.8541 136.097 56.7565 135.397C53.6589 134.696 50.5846 134.196 47.8561 133.947L47.1323 133.882L47.6878 133.531C50.2033 131.937 53.5582 131.222 56.774 131.543ZM64.8298 137.177C63.9963 134.868 61.5536 133.019 58.3118 132.289C55.0699 131.558 51.461 132.039 48.7188 133.541C51.4991 133.847 54.2595 134.313 56.9864 134.935C59.8385 135.579 62.5326 136.35 64.8272 137.177H64.8298Z" fill="#371A45"/>
<path d="M39.6779 134.638C40.1976 133.594 43.4317 133.298 47.9085 133.707C50.5591 133.95 53.647 134.439 56.868 135.166C60.0891 135.893 62.9911 136.755 65.3215 137.635C69.2571 139.124 71.5654 140.67 71.0424 141.714C70.5675 142.663 67.8591 142.994 64.015 142.74C64.2385 142.468 64.4415 142.178 64.6224 141.876C65.7308 141.911 66.4233 141.819 66.5435 141.579C66.6637 141.339 66.1777 140.97 65.2273 140.539C63.3907 139.706 59.8279 138.621 55.6122 137.67C51.3966 136.719 47.583 136.138 45.369 136.058C44.2236 136.017 43.507 136.109 43.3849 136.354C43.2628 136.598 43.7325 136.949 44.6479 137.369C44.5236 137.672 44.4252 137.985 44.3536 138.305C41.063 136.949 39.203 135.587 39.6779 134.638Z" fill="#FFD766"/>
<path d="M64.5491 141.999C64.5738 141.959 64.5985 141.919 64.6225 141.878C65.7308 141.914 66.4234 141.821 66.5436 141.581C66.6638 141.342 66.1772 140.972 65.2273 140.542C64.0092 139.989 62.031 139.325 59.6064 138.664C59.7646 138.585 59.9071 138.478 60.0268 138.349C60.9539 138.608 61.8309 138.88 62.6423 139.152C66.1687 140.335 67.5726 141.276 67.3849 141.651C67.2757 141.869 66.4721 142.072 64.5491 141.999Z" fill="#FFAA39"/>
<path d="M64.3921 142.401L64.4064 142.3C65.2119 142.349 66.0195 142.355 66.8257 142.319C66.2417 142.42 65.4329 142.447 64.3921 142.401Z" fill="#FF9100"/>
<path d="M64.4201 142.197L64.4065 142.299H64.3525L64.4201 142.197Z" fill="#FF9100"/>
<path d="M66.8257 142.319C67.4345 142.217 67.8002 142.035 67.9302 141.772C68.0601 141.51 67.9256 141.239 67.6125 140.952C66.7965 140.205 64.7494 139.399 62.907 138.781C62.0728 138.502 61.1697 138.225 60.216 137.956C60.2459 137.744 60.1758 137.515 60.0127 137.273C61.4283 137.667 62.7543 138.084 63.9477 138.512C68.2017 140.036 69.4101 141.175 69.1528 141.691C69.0106 141.976 68.3109 142.242 66.8257 142.319Z" fill="#FFAA39"/>
<path d="M57.0664 135.21C60.2095 135.925 63.0388 136.769 65.3217 137.636C69.2574 139.126 71.5656 140.672 71.0426 141.716C70.5677 142.665 67.8593 142.995 64.0152 142.742C64.0802 142.66 64.1452 142.577 64.2101 142.493L64.1757 142.697C66.4281 142.827 69.2151 142.782 69.6978 141.813C69.8856 141.438 69.6822 141.034 69.2431 140.631C68.2036 139.681 65.8518 138.728 64.227 138.146C62.7977 137.635 61.1885 137.139 59.4656 136.68C58.9257 136.215 58.1078 135.717 57.0664 135.21Z" fill="#FFAA39"/>
<path d="M60.2167 137.955C61.1704 138.224 62.0735 138.501 62.9076 138.781C64.7501 139.399 66.7972 140.204 67.6132 140.952C67.9263 141.238 68.0582 141.516 67.9308 141.772C67.8035 142.028 67.4345 142.216 66.8264 142.319C66.0202 142.355 65.2126 142.348 64.4071 142.299L64.4207 142.197C64.4649 142.132 64.5078 142.067 64.5506 141.999C66.4736 142.073 67.2792 141.869 67.3864 141.649C67.5742 141.274 66.1702 140.333 62.6439 139.15C61.8324 138.878 60.9547 138.609 60.0283 138.347C60.0768 138.292 60.1182 138.232 60.1518 138.167C60.1848 138.1 60.2068 138.029 60.2167 137.955Z" fill="#FFCF6E"/>
<path d="M64.4064 142.3C65.2119 142.349 66.0195 142.355 66.8257 142.319C66.241 142.42 65.4329 142.449 64.3921 142.401L64.4064 142.3Z" fill="#FFEC90"/>
<path d="M64.4199 142.197L64.4479 141.994L64.5492 141.999C64.507 142.066 64.4641 142.132 64.4199 142.197Z" fill="#FFEC90"/>
<path d="M48.8028 135.598C50.9935 135.875 53.4843 136.32 56.0056 136.89C57.4719 137.221 58.8928 137.58 60.2168 137.955C60.2068 138.029 60.1849 138.101 60.1518 138.167C60.1183 138.232 60.0768 138.293 60.0284 138.347C58.7057 137.971 57.2816 137.61 55.812 137.278C53.3141 136.715 50.848 136.273 48.6826 136C44.8087 135.512 42.8428 135.694 42.655 136.065C42.5433 136.289 43.0176 136.791 44.6859 137.531L44.4436 137.79L44.3637 137.877C43.4892 137.488 42.8694 137.139 42.4913 136.822C42.1015 136.498 41.9787 136.203 42.1093 135.941C42.5706 135.02 46.0047 135.246 48.8028 135.598Z" fill="#FFEC90"/>
<path d="M59.4644 136.68C61.1873 137.138 62.7997 137.635 64.2257 138.145C65.8499 138.73 68.203 139.68 69.2418 140.63C69.6829 141.034 69.8863 141.438 69.6966 141.813C69.2126 142.782 66.4255 142.828 64.1744 142.696L64.2089 142.492C64.2582 142.427 64.3057 142.362 64.3518 142.297H64.4057L64.3914 142.399C65.4309 142.444 66.241 142.418 66.8251 142.317C68.3102 142.24 69.0099 141.973 69.1528 141.688C69.4127 141.174 68.2017 140.033 63.9477 138.509C62.7543 138.082 61.4283 137.665 60.0127 137.271C59.8571 137.05 59.6727 136.851 59.4644 136.68Z" fill="#FFCF6E"/>
<path d="M64.3921 142.401L64.4064 142.3C65.2119 142.349 66.0195 142.355 66.8257 142.319C66.2417 142.42 65.4329 142.447 64.3921 142.401Z" fill="#FFAA39"/>
<path d="M64.2095 142.493L64.2439 142.29L64.3524 142.296C64.3063 142.361 64.2588 142.427 64.2095 142.493Z" fill="#FFEC90"/>
<path d="M48.3241 134.558C50.8142 134.824 53.6338 135.305 56.478 135.947C57.4999 136.177 58.4991 136.423 59.4665 136.681C59.6751 136.853 59.8598 137.052 60.0154 137.273C58.8259 136.942 57.5721 136.624 56.2844 136.336C53.4688 135.7 50.6798 135.225 48.2182 134.961C43.4568 134.451 41.4669 134.87 41.2096 135.384C41.0673 135.669 41.3837 136.163 42.492 136.826C43.12 137.191 43.771 137.514 44.441 137.794L44.5794 137.854L44.2676 138.205C42.3543 137.397 40.1747 136.229 40.66 135.261C41.2915 134.002 45.7319 134.28 48.3241 134.558Z" fill="#FFEC90"/>
<path d="M48.3756 133.506C51.0392 133.77 54.003 134.261 56.9837 134.935C60.119 135.643 63.0613 136.503 65.4943 137.423C69.8009 139.053 71.9416 140.644 71.3679 141.79C70.6591 143.205 66.4304 143.146 63.9728 142.984L63.4576 142.95L63.7174 142.625C63.9339 142.361 64.1304 142.081 64.3054 141.788L64.4028 141.625L64.6497 141.633C65.9003 141.674 66.179 141.529 66.2167 141.503C66.2089 141.468 66.1141 141.232 65.033 140.742C63.1639 139.893 59.5109 138.803 55.4979 137.898C51.4849 136.992 47.5928 136.379 45.3397 136.297C44.0404 136.25 43.75 136.399 43.711 136.427C43.7195 136.463 43.8117 136.691 44.8434 137.165L45.048 137.259L44.9785 137.429C44.8584 137.722 44.7632 138.024 44.694 138.334L44.6134 138.697L44.1729 138.515C42.0687 137.647 38.6449 135.981 39.3537 134.564C39.9274 133.419 43.0659 133.019 47.9644 133.466L48.3756 133.506ZM64.5633 142.532C68.0065 142.715 70.3453 142.382 70.7182 141.643C71.1496 140.782 68.9641 139.294 65.15 137.85C62.754 136.941 59.8506 136.096 56.753 135.396C53.6554 134.695 50.5773 134.195 47.8526 133.946C43.5148 133.55 40.4335 133.85 40.0027 134.711C39.6324 135.45 41.1975 136.664 44.1086 137.915C44.1509 137.769 44.1996 137.623 44.2535 137.479C43.2719 137.004 42.8925 136.621 43.0627 136.281C43.2491 135.908 43.9722 135.765 45.4015 135.817C47.7435 135.902 51.6051 136.509 55.7311 137.441C59.8571 138.373 63.4797 139.455 65.4228 140.336C66.6098 140.876 67.0554 141.282 66.869 141.655C66.6988 141.994 66.0523 142.146 64.842 142.126C64.7524 142.263 64.6595 142.398 64.5633 142.532Z" fill="#371A45"/>
<g opacity="0.41">
<path d="M45.3942 136.038C45.6541 136.048 45.9328 136.064 46.2303 136.086C46.1082 136.278 45.9959 136.476 45.8938 136.68C45.8782 136.711 45.8626 136.745 45.8477 136.774C45.7918 136.889 45.7405 137.004 45.6937 137.12C45.5695 137.424 45.471 137.737 45.3994 138.057C45.391 138.094 45.3838 138.131 45.376 138.169C45.2842 138.625 45.2534 139.091 45.2844 139.555C45.3481 140.421 45.6147 141.261 46.0627 142.006C47.1639 143.879 49.3669 145.399 52.3313 146.068C54.2834 146.501 56.3028 146.534 58.268 146.165C55.9918 146.76 53.6068 146.804 51.3101 146.295C48.3463 145.626 46.1426 144.106 45.0421 142.233C44.5951 141.488 44.3294 140.649 44.2664 139.782C44.2357 139.318 44.2665 138.852 44.358 138.396C44.3649 138.359 44.3727 138.321 44.3814 138.283C44.4523 137.964 44.5508 137.651 44.6757 137.348C44.7225 137.232 44.7738 137.117 44.8297 137.002C44.844 136.97 44.8596 136.937 44.8758 136.907C45.0267 136.605 45.2 136.315 45.3942 136.038Z" fill="white"/>
</g>
<path d="M46.9999 135.931C49.3172 136.161 52.4395 136.697 55.7294 137.44C59.8554 138.371 63.478 139.454 65.4211 140.335L65.616 140.423L65.5654 140.584C65.4642 140.905 65.3375 141.217 65.1866 141.518C65.1106 141.669 65.0281 141.819 64.9417 141.964C64.7543 142.277 64.5446 142.575 64.3141 142.857C61.6563 146.115 56.1283 147.665 51.1714 146.548C46.2144 145.431 43.2039 141.95 44.0153 138.277C44.0892 137.947 44.1909 137.623 44.3194 137.31C44.3804 137.16 44.4493 137.007 44.5253 136.856C44.6822 136.543 44.8622 136.243 45.0639 135.957L45.1685 135.808L45.4004 135.816C45.8747 135.834 46.4119 135.873 46.9999 135.931ZM64.8377 140.658C62.9173 139.823 59.3747 138.774 55.4981 137.901C51.6216 137.028 47.8561 136.423 45.5739 136.31C45.4261 136.533 45.2921 136.763 45.1724 137.002C45.1016 137.143 45.0366 137.287 44.9775 137.429C44.8574 137.722 44.7622 138.025 44.6929 138.334C43.9315 141.777 46.7511 145.037 51.3981 146.086C56.0452 147.135 61.2256 145.681 63.7164 142.628C63.9328 142.364 64.1294 142.084 64.3044 141.79C64.3862 141.654 64.4635 141.514 64.5343 141.372C64.6508 141.141 64.7521 140.902 64.8377 140.658Z" fill="#371A45"/>
<path d="M69.4619 148.13L69.9433 149.087L71.3687 149.516C71.7539 149.632 71.8494 149.966 71.5298 150.081L70.3474 150.507L70.4123 151.464C70.4292 151.724 69.9803 151.826 69.6529 151.638L68.4413 150.945L67.0542 151.106C66.6794 151.151 66.3078 150.88 66.4247 150.652L66.858 149.797L65.9381 148.94C65.6893 148.708 65.9076 148.439 66.3078 148.485L67.7871 148.65L68.6056 147.959C68.8246 147.768 69.332 147.871 69.4619 148.13Z" fill="#FFD243"/>
<path d="M70.4104 151.464C70.4273 151.724 69.9784 151.825 69.6509 151.638L68.4393 150.944L67.0529 151.106C66.6781 151.15 66.3058 150.879 66.4228 150.651L66.5572 150.386C66.6631 150.529 66.9081 150.636 67.1549 150.607L68.542 150.446L69.7536 151.139C69.9686 151.262 70.2369 151.26 70.3909 151.17L70.4104 151.464Z" fill="#FFA92C"/>
<g opacity="0.6">
<path d="M66.3059 148.48L68.0223 148.675L67.7917 148.87L66.3579 148.704L66.2832 148.636C66.2344 148.595 66.2017 148.538 66.1909 148.475C66.2293 148.474 66.2678 148.475 66.3059 148.48Z" fill="white"/>
</g>
<g opacity="0.6">
<path d="M71.4758 149.558C71.4412 149.611 71.3887 149.651 71.3277 149.669L71.1328 149.74C71.0973 149.723 71.0603 149.708 71.0223 149.697L69.5931 149.268L69.1123 148.311C69.0194 148.126 68.7335 148.021 68.4971 148.043L68.6023 147.954C68.8245 147.768 69.3312 147.872 69.4612 148.13L69.9426 149.087L71.3679 149.516C71.4049 149.527 71.441 149.541 71.4758 149.558Z" fill="white"/>
</g>
<path d="M67.0161 149.925L65.9364 148.937C65.7363 148.751 65.839 148.54 66.0956 148.488L67.2221 149.519L67.0161 149.925Z" fill="#FFA92C"/>
<path d="M71.5294 150.081L70.1554 150.55L70.1255 150.095L71.5586 149.604C71.7756 149.754 71.7893 149.988 71.5294 150.081Z" fill="#FFA92C"/>
<path d="M70.0182 151.816C69.8753 151.816 69.7348 151.779 69.6102 151.709L68.422 151.029L67.0622 151.188C66.7946 151.219 66.5094 151.108 66.3814 150.924C66.3471 150.88 66.3258 150.828 66.3201 150.773C66.3143 150.717 66.3243 150.662 66.3489 150.612L66.7543 149.811L65.8772 148.997C65.7545 148.883 65.7148 148.741 65.7714 148.617C65.8454 148.456 66.0579 148.371 66.3125 148.398L67.7574 148.559L68.548 147.891C68.6715 147.787 68.8728 147.751 69.0814 147.794C69.2899 147.837 69.4608 147.949 69.5362 148.092L70.0013 149.018L71.3929 149.436C71.6378 149.511 71.7996 149.673 71.8048 149.851C71.8048 149.986 71.7158 150.102 71.5579 150.158L70.434 150.564L70.4925 151.458C70.4956 151.514 70.483 151.569 70.4561 151.618C70.4293 151.667 70.3891 151.707 70.3404 151.734C70.2427 151.79 70.1312 151.819 70.0182 151.816ZM68.459 150.86L69.6934 151.566C69.8883 151.68 70.1339 151.669 70.2547 151.594C70.2778 151.583 70.2972 151.565 70.3105 151.543C70.3237 151.521 70.3303 151.495 70.3294 151.469L70.2644 150.451L71.5053 150.004C71.5579 149.984 71.6456 149.939 71.643 149.856C71.6404 149.772 71.5475 149.655 71.3487 149.596L69.8857 149.153L69.3887 148.164C69.3393 148.067 69.21 147.986 69.0509 147.953C68.8917 147.92 68.7403 147.945 68.6572 148.018L67.8126 148.733L66.2976 148.564C66.0897 148.539 65.9585 148.612 65.924 148.688C65.8896 148.764 65.952 148.841 65.9929 148.879L66.9583 149.778L66.497 150.687C66.4856 150.71 66.4814 150.737 66.485 150.762C66.4886 150.788 66.4998 150.812 66.5172 150.831C66.5984 150.948 66.8173 151.053 67.044 151.026L68.459 150.86Z" fill="#371A45"/>
<path d="M70.4541 132.655L70.9355 133.612L72.3608 134.041C72.7461 134.157 72.8416 134.491 72.522 134.606L71.3396 135.033L71.4045 135.989C71.4214 136.249 70.9732 136.35 70.6451 136.163L69.4335 135.47L68.0464 135.632C67.6722 135.675 67.3 135.405 67.4169 135.177L67.8502 134.322L66.9303 133.466C66.6815 133.235 66.8998 132.964 67.3 133.011L68.7799 133.176L69.5978 132.485C69.8168 132.293 70.3241 132.397 70.4541 132.655Z" fill="#FFD243"/>
<path d="M71.4026 135.988C71.4195 136.248 70.9706 136.349 70.6431 136.162L69.4315 135.469L68.0451 135.631C67.6703 135.674 67.298 135.404 67.4149 135.176L67.5494 134.911C67.6553 135.054 67.9002 135.161 68.1478 135.133L69.5342 134.971L70.7458 135.664C70.9608 135.787 71.2291 135.785 71.3831 135.695L71.4026 135.988Z" fill="#FFA92C"/>
<g opacity="0.6">
<path d="M67.2976 133.005L69.014 133.2L68.7834 133.395L67.3496 133.229L67.2755 133.16C67.2264 133.119 67.1934 133.062 67.1826 133C67.221 132.998 67.2595 133 67.2976 133.005Z" fill="white"/>
</g>
<g opacity="0.6">
<path d="M72.4676 134.08C72.4333 134.134 72.3807 134.173 72.3195 134.192L72.1246 134.263C72.0891 134.245 72.0522 134.231 72.0142 134.22L70.5888 133.791L70.1074 132.833C70.0145 132.649 69.7287 132.543 69.4922 132.566L69.5981 132.477C69.8196 132.29 70.3264 132.394 70.4569 132.653L70.9377 133.609L72.3631 134.038C72.3988 134.05 72.4338 134.064 72.4676 134.08Z" fill="white"/>
</g>
<path d="M68.0078 134.45L66.9281 133.463C66.728 133.276 66.8306 133.065 67.0873 133.014L68.2138 134.045L68.0078 134.45Z" fill="#FFA92C"/>
<path d="M72.5221 134.605L71.1487 135.074L71.1182 134.619L72.5513 134.129C72.7677 134.275 72.7794 134.512 72.5221 134.605Z" fill="#FFA92C"/>
<path d="M71.0097 136.341C70.867 136.341 70.7268 136.304 70.6024 136.234L69.4135 135.554L68.0538 135.713C67.7887 135.744 67.5016 135.633 67.3729 135.449C67.3387 135.405 67.3176 135.353 67.312 135.297C67.3064 135.242 67.3164 135.186 67.3411 135.136L67.7465 134.337L66.8714 133.522C66.7486 133.408 66.709 133.266 66.7655 133.142C66.8396 132.981 67.052 132.897 67.3067 132.924L68.7515 133.085L69.5422 132.416C69.6649 132.312 69.8637 132.275 70.0749 132.319C70.286 132.362 70.4549 132.473 70.5296 132.617L70.9955 133.543L72.387 133.962C72.6326 134.036 72.7937 134.198 72.7989 134.376C72.7989 134.511 72.7099 134.626 72.5521 134.683L71.4281 135.089L71.4866 135.983C71.4896 136.039 71.477 136.094 71.4501 136.143C71.4232 136.191 71.3832 136.231 71.3346 136.258C71.2361 136.316 71.1236 136.344 71.0097 136.341ZM69.4506 135.384L70.6849 136.091C70.8798 136.204 71.1247 136.195 71.2449 136.119C71.2681 136.107 71.2875 136.09 71.3009 136.068C71.3143 136.046 71.321 136.02 71.3203 135.994L71.2553 134.976L72.4962 134.528C72.5488 134.509 72.6365 134.463 72.6339 134.38C72.6313 134.297 72.5384 134.179 72.3396 134.12L70.8798 133.68L70.3828 132.692C70.3334 132.594 70.2042 132.514 70.0443 132.48C69.8845 132.447 69.7345 132.472 69.6545 132.545L68.81 133.26L67.295 133.092C67.0877 133.068 66.9558 133.14 66.9214 133.216C66.887 133.292 66.9493 133.368 66.9903 133.406L67.9557 134.305L67.4944 135.214C67.4837 135.238 67.4799 135.264 67.4834 135.29C67.487 135.315 67.4978 135.339 67.5146 135.359C67.5958 135.475 67.8173 135.581 68.0414 135.554L69.4506 135.384Z" fill="#371A45"/>
<path d="M19.6111 135.488L20.114 136.337L21.5432 136.749C21.933 136.861 22.0324 137.155 21.718 137.248L20.5525 137.589L20.6396 138.427C20.6629 138.653 20.2192 138.731 19.8885 138.557L18.6659 137.919L17.2905 138.024C16.9189 138.053 16.5415 137.807 16.6519 137.608L17.0612 136.871L16.1244 136.099C15.871 135.89 16.0815 135.66 16.4804 135.709L17.9564 135.892L18.7529 135.307C18.9712 135.155 19.4754 135.259 19.6111 135.488Z" fill="#FFD243"/>
<path d="M20.6395 138.428C20.6629 138.655 20.2192 138.733 19.8885 138.558L18.6658 137.921L17.2905 138.026C16.9189 138.055 16.5414 137.808 16.6519 137.61L16.7785 137.381C16.8883 137.511 17.1346 137.609 17.3795 137.59L18.7548 137.485L19.9781 138.122C20.1951 138.235 20.4621 138.24 20.6122 138.166L20.6395 138.428Z" fill="#FFA92C"/>
<g opacity="0.6">
<path d="M16.4802 135.713L18.1927 135.93L17.9686 136.093L16.5393 135.911L16.4633 135.846C16.4153 135.812 16.3811 135.762 16.3672 135.704C16.405 135.704 16.4428 135.707 16.4802 135.713Z" fill="white"/>
</g>
<g opacity="0.6">
<path d="M21.6514 136.789C21.6158 136.836 21.5644 136.87 21.5065 136.883L21.3116 136.94C21.2756 136.923 21.2385 136.91 21.2005 136.899L19.7712 136.487L19.269 135.64C19.1716 135.475 18.8844 135.376 18.6499 135.39L18.7526 135.315C18.9682 135.157 19.4756 135.261 19.6114 135.49L20.1149 136.339L21.5442 136.751C21.5806 136.762 21.6164 136.774 21.6514 136.789Z" fill="white"/>
</g>
<path d="M17.2236 136.994L16.1243 136.103C15.9203 135.934 16.0171 135.753 16.2712 135.713L17.4178 136.644L17.2236 136.994Z" fill="#FFA92C"/>
<path d="M21.7184 137.247L20.3638 137.622L20.3223 137.225L21.7353 136.835C21.9542 136.968 21.9718 137.173 21.7184 137.247Z" fill="#FFA92C"/>
<path d="M20.2767 138.736C20.1288 138.736 19.983 138.701 19.8512 138.634L18.6467 138.007L17.2948 138.111C17.0174 138.132 16.7101 138.009 16.5944 137.831C16.5675 137.794 16.5517 137.75 16.5488 137.704C16.5459 137.658 16.5561 137.612 16.5782 137.572L16.9543 136.895L16.0702 136.166C15.8921 136.019 15.9259 135.88 15.9487 135.827C16.0136 135.676 16.2267 135.6 16.4892 135.632L17.9327 135.81L18.7026 135.247C18.8221 135.159 19.0177 135.133 19.2275 135.175C19.4374 135.217 19.605 135.32 19.6823 135.446L20.1689 136.268L21.5663 136.671C21.821 136.745 21.986 136.898 21.9866 137.061C21.9866 137.119 21.9633 137.26 21.7411 137.325L20.6418 137.65L20.7218 138.42C20.7263 138.466 20.7177 138.512 20.6972 138.553C20.6766 138.594 20.6448 138.628 20.6055 138.652C20.5065 138.712 20.3922 138.741 20.2767 138.736ZM18.6831 137.84L19.9272 138.49C20.1397 138.599 20.4015 138.593 20.5119 138.517C20.5619 138.483 20.5587 138.452 20.5574 138.438L20.4632 137.529L21.6943 137.167C21.7326 137.156 21.821 137.123 21.821 137.062C21.821 136.99 21.7151 136.884 21.5202 136.827L20.0597 136.406L19.54 135.528C19.4893 135.443 19.3542 135.367 19.1957 135.333C19.0372 135.3 18.8813 135.318 18.8007 135.376L17.9782 135.979L16.4697 135.792C16.2664 135.767 16.1293 135.823 16.1013 135.889C16.0734 135.955 16.1455 136.011 16.176 136.036L17.1661 136.853L16.7244 137.654C16.7166 137.668 16.7135 137.685 16.7153 137.701C16.7172 137.717 16.724 137.732 16.7348 137.744C16.8075 137.858 17.044 137.968 17.2844 137.949L18.6831 137.84Z" fill="#371A45"/>
<g opacity="0.4">
<path d="M110.704 134.54L86.5257 148.498C85.1512 148.224 83.8097 147.805 82.5238 147.247C77.8683 145.204 74.0242 140.637 74.1743 135.553C65.1134 141.004 52.6997 140.19 44.4314 133.598C36.9849 136.217 28.5913 136.026 21.2728 133.078C19.3472 132.304 17.3806 131.156 15.9761 129.652C28.2138 123.492 43.4705 116.009 43.4705 116.009L110.704 134.54Z" fill="#21102B"/>
</g>
<path d="M69.2866 159.363C69.1986 159.363 69.1111 159.35 69.0267 159.325C68.8565 159.275 51.7937 154.205 34.9258 149.125C25.0172 146.141 17.1133 143.738 11.434 141.979C0.287027 138.536 0.270136 138.487 0.0661413 137.879C-0.211915 137.043 0.361739 136.728 2.26331 135.682C3.35929 135.079 4.97825 134.225 7.07537 133.144C10.5985 131.324 15.5243 128.839 21.7169 125.749C32.2564 120.491 42.9609 115.24 43.0655 115.187C43.2674 115.089 43.4985 115.067 43.7151 115.127L110.949 133.657C111.123 133.705 111.279 133.803 111.398 133.94C111.516 134.077 111.592 134.245 111.615 134.425C111.638 134.604 111.607 134.786 111.527 134.948C111.446 135.11 111.32 135.245 111.163 135.335L69.7453 159.243C69.6056 159.323 69.4474 159.364 69.2866 159.363ZM2.96819 137.381C10.7642 139.992 45.3263 150.369 69.169 157.456L108.344 134.844L43.5592 116.989C29.2179 124.026 8.54751 134.297 2.96819 137.381Z" fill="#371A45"/>
<path d="M60.7765 118.711C60.1054 118.847 46.8146 131.298 30.8647 129.82C20.7033 128.876 16.4298 123.51 16.1361 118.163C15.9529 114.792 17.3504 111.428 19.8522 109.187C25.6596 103.974 33.7992 110.398 34.317 110.82C34.3261 110.825 34.3346 110.831 34.3423 110.838L42.3832 102.079C42.3832 102.079 61.4476 118.572 60.7765 118.711Z" fill="white"/>
<g opacity="0.25">
<path d="M60.7766 118.712C60.1055 118.848 46.8147 131.299 30.8648 129.821C20.7034 128.877 16.4299 123.511 16.1362 118.164C16.4149 116.261 16.9983 114.39 17.9118 112.837C18.8512 111.231 19.673 113.575 20.6046 114.315C21.7395 115.206 23.1103 115.746 24.5481 115.867C27.1857 116.084 29.8045 114.979 31.8588 113.31C32.7601 112.566 33.5837 111.733 34.3171 110.823C34.3262 110.828 34.3347 110.835 34.3424 110.841L42.3833 102.08C42.3833 102.08 61.4477 118.573 60.7766 118.712Z" fill="#371A45"/>
</g>
<path d="M198.164 70.2119C196.326 78.1872 189.577 81.711 189.577 81.711C191.72 90.4528 192.335 96.8943 177.306 110.695C165.56 121.483 139.591 123.13 128.81 123.34C125.794 123.395 123.968 123.34 123.968 123.34C123.121 125.987 121.802 128.459 120.075 130.637C109.955 143.465 87.7026 145.112 83.1426 137.694C77.7575 128.935 86.8457 124.892 93.9862 121.987C101.127 119.082 104.65 114.727 104.65 114.727L103.737 104.929L103.143 98.5438L102.911 96.0452L102.225 88.6689L100.318 68.17C100.318 68.17 100.78 67.9465 101.59 67.5574C106.642 65.1289 125.226 56.2772 129.456 55.4886C134.247 54.5901 138.746 56.0278 138.96 56.0973L138.968 56.1012C139.048 55.9323 139.126 55.7673 139.206 55.6061C144.214 45.3603 151.81 41.3031 157.775 42.3666V42.3705C159.488 42.6705 161.089 43.4195 162.417 44.5411C163.599 45.535 164.596 46.8376 165.341 48.4332C169.849 58.0443 165.528 67.7542 165.348 68.1577C171.484 58.7596 180.24 52.9373 187.429 53.0335C189.118 53.0549 190.694 53.5616 192.099 54.4199V54.4238C195.255 56.3494 197.556 60.0615 198.285 64.1557C198.653 66.1619 198.612 68.222 198.164 70.2119Z" fill="white"/>
<g opacity="0.25">
<path d="M198.501 63.9961C193.675 75.5777 183.726 80.8075 179.237 82.6506C178.462 82.9682 178.562 84.0961 179.379 84.2747C183.609 85.2167 186.455 83.475 186.455 83.475C186.241 97.6182 173.916 94.3205 173.916 94.3205C177.346 86.9143 174.27 82.62 174.27 82.62C166.802 119.001 125.961 114.567 125.961 114.567V114.571C125.94 114.601 120.583 122.663 116.223 125.485C111.862 128.306 104 133.915 100.32 129.582C97.0919 125.778 111.098 118.38 116.822 108.46C128.941 111.123 136.095 104.54 150.531 99.076C165.583 93.383 164.119 83.1151 164.552 77.8807C164.984 72.6464 162.336 71.6439 159.725 71.1307C157.113 70.6175 132.021 85.1219 125.788 83.97C121.283 83.1333 108.393 73.0713 101.595 67.5576C100.785 67.9474 100.323 68.1702 100.323 68.1702L102.225 88.6684L102.911 96.0453L103.142 98.544L103.737 104.927L104.65 114.724C104.65 114.724 101.128 119.077 93.9859 121.984C86.8435 124.892 77.7573 128.936 83.1423 137.692C87.7023 145.11 109.955 143.462 120.075 130.635C121.801 128.458 123.12 125.987 123.967 123.342L124.132 123.346C123.883 124.136 123.945 124.042 124.16 123.346C124.701 123.358 126.365 123.386 128.81 123.341L128.759 123.184C139.372 123.001 165.675 121.417 177.521 110.537C192.55 96.7359 191.938 90.2926 189.792 81.5526C189.792 81.5526 196.541 78.0275 198.379 70.0536C198.828 68.0633 198.869 66.0028 198.501 63.9961Z" fill="#371A45"/>
</g>
<path d="M175.499 75.1296C168.139 75.1296 165.349 68.1567 165.349 68.1567C171.485 58.7606 180.239 52.9332 187.428 53.0345C189.114 53.0572 190.692 53.5627 192.098 54.4215C200.922 63.6175 181.773 75.1283 175.499 75.1296Z" fill="#A7AFC2"/>
<path d="M161.596 49.8634C160.372 55.2388 153.533 62.7586 153.533 62.7586L139.206 55.6052C144.213 45.3593 151.809 41.3002 157.776 42.3663C157.776 42.3663 163.04 43.5247 161.596 49.8634Z" fill="#A7AFC2"/>
<path d="M94.7796 143.582C88.6767 143.582 83.9081 141.738 81.8929 138.46C80.1056 135.552 79.6125 132.817 80.4279 130.329C81.9669 125.631 87.697 122.959 93.4335 120.624C98.8296 118.428 102.074 115.34 103.128 114.223L98.8582 68.3056C98.8306 68.0083 98.8944 67.7096 99.041 67.4495C99.1876 67.1893 99.4101 66.9801 99.6787 66.8497C100.675 66.3657 124.142 54.9894 129.186 54.0455C132.884 53.3529 136.379 53.9389 138.184 54.3671C143.023 44.8859 150.76 39.6229 158.034 40.919C158.065 40.9242 158.095 40.9307 158.124 40.9379C161.893 41.6401 164.925 44.0764 166.672 47.8074C168.985 52.739 169.106 57.7063 168.595 61.5673C174.297 55.3305 181.155 51.5625 187.24 51.5625C187.311 51.5625 187.379 51.5625 187.448 51.5625C189.342 51.5878 191.163 52.1264 192.862 53.1645C192.879 53.1743 192.895 53.1847 192.911 53.1957C198.246 56.4863 201.118 63.9301 199.593 70.5366C198.044 77.256 193.331 81.0293 191.25 82.4066C193.273 91.1537 193.029 98.2467 178.299 111.771C164.259 124.664 131.516 124.901 125.008 124.824C120.651 136.633 108.306 142.17 98.8439 143.32C97.4956 143.489 96.1384 143.577 94.7796 143.582ZM101.875 69.0495L106.11 114.591C106.145 114.972 106.03 115.352 105.789 115.65C105.635 115.84 101.945 120.327 94.5392 123.345C89.44 125.42 84.3655 127.739 83.2169 131.244C82.6751 132.899 83.0597 134.753 84.3928 136.925C86.1735 139.822 91.8386 141.225 98.4905 140.416C107.364 139.337 118.996 134.101 122.572 122.898C122.666 122.602 122.853 122.343 123.104 122.16C123.355 121.976 123.658 121.877 123.969 121.877H124.014C124.391 121.889 161.9 122.855 176.312 109.618C190.759 96.3523 190.222 90.506 188.149 82.0649C188.07 81.7461 188.101 81.4103 188.236 81.1111C188.371 80.8119 188.603 80.5667 188.894 80.4147C188.952 80.3842 195.075 77.067 196.732 69.8837C197.966 64.5226 195.598 58.2832 191.335 55.6794L191.29 55.6515C190.056 54.9076 188.752 54.5217 187.407 54.5041H187.242C180.52 54.5041 172.24 60.2901 166.577 68.9624C166.374 69.2717 166.063 69.4934 165.704 69.5831C165.346 69.6728 164.967 69.624 164.643 69.4464C164.319 69.2688 164.074 68.9754 163.956 68.625C163.839 68.2745 163.858 67.8928 164.01 67.5559C164.185 67.1713 168.22 58.0312 164.01 49.0587C162.666 46.1865 160.359 44.3252 157.514 43.8172L157.435 43.8009C152.806 43.0129 145.63 45.8019 140.524 56.2511C140.446 56.4083 140.37 56.5675 140.294 56.7299C140.138 57.0599 139.864 57.3199 139.527 57.4592C139.19 57.5986 138.812 57.6072 138.469 57.4835C137.997 57.3367 133.956 56.14 129.726 56.9313C126.024 57.6232 109.174 65.5251 101.875 69.0495Z" fill="#371A45"/>
<path d="M121.735 105.726C121.67 105.726 121.601 105.726 121.54 105.726C118.2 105.617 111.687 102.788 102.18 97.3177C101.976 97.2006 101.803 97.0362 101.677 96.8385C101.55 96.6407 101.472 96.4154 101.451 96.1814L98.8579 68.3108C98.8302 68.0135 98.8939 67.7148 99.0405 67.4546C99.1872 67.1944 99.4097 66.9852 99.6784 66.8549C100.675 66.3709 124.142 54.9947 129.186 54.0507C134.23 53.1067 138.897 54.5405 139.412 54.7069C139.463 54.7235 139.513 54.7428 139.561 54.7647C141.922 55.7528 161.39 64.0425 164.203 69.6628C167.202 75.6566 166.542 86.838 161.734 90.5014C157.454 93.7582 129.082 105.726 121.735 105.726ZM104.302 95.1485C112.673 99.9248 118.968 102.701 121.631 102.79C121.679 102.79 121.728 102.79 121.779 102.79C127.973 102.79 155.67 91.4265 159.956 88.1594C163.529 85.4379 163.966 75.741 161.58 70.968C159.826 67.4598 146.485 60.839 138.452 57.4738C137.901 57.3036 133.904 56.1452 129.727 56.9274C126.024 57.6212 109.175 65.5231 101.876 69.0449L104.302 95.1485Z" fill="#371A45"/>
<path d="M148.839 84.8481C149.022 85.1002 149.132 85.2685 149.267 85.4712L149.639 86.0481C149.881 86.4314 150.111 86.816 150.337 87.2012C150.786 87.9724 151.205 88.7539 151.607 89.54C152.405 91.121 153.109 92.748 153.715 94.4125C154.929 97.7394 155.729 101.266 155.891 104.872C155.902 105.327 155.933 105.774 155.924 106.227L155.89 107.584C155.821 108.489 155.76 109.394 155.601 110.291C155.319 112.083 154.864 113.858 154.177 115.536L153.931 116.168L153.643 116.782C153.448 117.189 153.262 117.602 153.052 117.999C152.597 118.779 152.18 119.575 151.652 120.297C150.678 121.798 149.483 123.117 148.274 124.39C147.965 124.714 147.543 124.906 147.095 124.926C146.648 124.946 146.21 124.792 145.874 124.496C145.537 124.2 145.328 123.786 145.29 123.34C145.252 122.894 145.388 122.45 145.67 122.102L145.74 122.017C146.721 120.815 147.676 119.597 148.407 118.26C148.815 117.615 149.11 116.914 149.447 116.24C149.598 115.894 149.723 115.538 149.863 115.19L150.066 114.666L150.228 114.127C150.697 112.704 150.957 111.225 151.081 109.739C151.16 108.997 151.149 108.244 151.156 107.5L151.101 106.377C151.082 106.003 151.025 105.628 150.991 105.255C150.636 102.267 149.746 99.3162 148.484 96.5148C147.853 95.1095 147.14 93.7428 146.347 92.4219C145.948 91.7638 145.537 91.1141 145.106 90.4853C144.889 90.1721 144.671 89.8616 144.448 89.5608L144.116 89.1242C144.012 88.991 143.88 88.8221 143.813 88.7455C143.252 88.1129 142.966 87.2835 143.017 86.4399C143.068 85.5962 143.452 84.8074 144.085 84.2469C144.717 83.6864 145.547 83.4001 146.39 83.4511C147.234 83.5021 148.023 83.8861 148.583 84.5188C148.652 84.5958 148.717 84.6751 148.778 84.7565L148.839 84.8481Z" fill="white"/>
<path d="M147.02 126.213C146.45 126.213 145.892 126.052 145.409 125.748C144.927 125.444 144.541 125.009 144.296 124.495C144.05 123.98 143.956 123.406 144.023 122.84C144.091 122.274 144.317 121.738 144.676 121.296L144.75 121.207C145.652 120.102 146.591 118.916 147.284 117.646C147.297 117.622 147.31 117.599 147.325 117.576C147.582 117.149 147.813 116.707 148.018 116.253C148.106 116.068 148.194 115.883 148.285 115.699C148.376 115.515 148.44 115.319 148.513 115.127C148.566 114.989 148.619 114.85 148.674 114.713L148.853 114.251L149.001 113.76L149.011 113.728C149.418 112.489 149.678 111.151 149.803 109.635C149.857 109.04 149.88 108.442 149.872 107.844V107.531L149.819 106.443C149.809 106.248 149.785 106.039 149.759 105.816C149.743 105.675 149.728 105.534 149.715 105.394C149.39 102.665 148.58 99.8541 147.311 97.045C146.7 95.6866 146.01 94.3655 145.244 93.0885C144.812 92.3739 144.418 91.7619 144.044 91.2168C143.838 90.9193 143.629 90.6191 143.413 90.3287L143.07 89.874C142.991 89.7726 142.901 89.6563 142.85 89.5979C142.459 89.1587 142.158 88.6468 141.965 88.0914C141.773 87.536 141.691 86.948 141.726 86.3611C141.761 85.7742 141.911 85.2 142.168 84.6712C142.425 84.1424 142.784 83.6695 143.224 83.2795C143.663 82.8895 144.176 82.5902 144.732 82.3985C145.288 82.2069 145.876 82.1267 146.463 82.1627C147.049 82.1986 147.623 82.3499 148.152 82.608C148.68 82.866 149.152 83.2257 149.541 83.6664C149.637 83.7747 149.727 83.886 149.81 84.0004L149.879 84.0952C150.041 84.3193 150.15 84.4811 150.265 84.6539L150.72 85.3536C150.998 85.7941 151.254 86.2242 151.445 86.5503C151.867 87.2727 152.29 88.0595 152.752 88.9592C153.574 90.5871 154.299 92.2623 154.923 93.976C156.258 97.6349 157.016 101.283 157.175 104.82C157.18 104.996 157.186 105.145 157.192 105.288C157.203 105.599 157.216 105.921 157.209 106.258L157.175 107.622C157.175 107.645 157.175 107.667 157.175 107.687L157.157 107.92C157.092 108.765 157.027 109.637 156.869 110.519C156.559 112.495 156.053 114.356 155.37 116.026L155.133 116.636C155.122 116.664 155.111 116.691 155.098 116.718L154.81 117.332C154.738 117.479 154.676 117.611 154.615 117.743C154.485 118.023 154.346 118.314 154.191 118.605L154.167 118.649C154.065 118.824 153.964 119.002 153.863 119.178C153.515 119.79 153.156 120.423 152.716 121.029C151.742 122.518 150.61 123.805 149.208 125.276C148.926 125.573 148.587 125.809 148.211 125.97C147.835 126.131 147.43 126.214 147.02 126.213ZM149.518 118.913C148.723 120.36 147.709 121.642 146.738 122.831L146.668 122.917C146.597 123.008 146.564 123.123 146.575 123.238C146.587 123.352 146.642 123.458 146.729 123.534C146.816 123.609 146.928 123.649 147.044 123.644C147.159 123.639 147.268 123.59 147.348 123.507C148.66 122.13 149.711 120.938 150.58 119.602C150.593 119.582 150.606 119.564 150.62 119.545C150.983 119.048 151.297 118.496 151.63 117.91C151.73 117.734 151.831 117.557 151.933 117.381C152.059 117.142 152.175 116.895 152.29 116.649C152.355 116.508 152.424 116.367 152.493 116.226L152.752 115.668L152.982 115.076C153.6 113.569 154.051 111.901 154.334 110.097C154.473 109.317 154.529 108.543 154.594 107.725L154.61 107.525L154.643 106.2C154.647 105.945 154.637 105.673 154.626 105.386C154.62 105.227 154.614 105.067 154.61 104.907C154.464 101.659 153.757 98.2683 152.511 94.8543C151.922 93.2375 151.239 91.6569 150.464 90.1208C150.029 89.2685 149.625 88.5233 149.229 87.847C149.012 87.4767 148.789 87.1045 148.555 86.7322L148.132 86.0793C148.033 85.9318 147.941 85.7928 147.802 85.6018L147.737 85.5089C147.704 85.4634 147.666 85.416 147.625 85.3698C147.29 84.9922 146.819 84.7629 146.315 84.7326C145.811 84.7023 145.316 84.8733 144.938 85.2081C144.561 85.5429 144.331 86.014 144.301 86.5178C144.271 87.0215 144.442 87.5168 144.776 87.8944C144.847 87.9737 144.982 88.1433 145.101 88.292L145.481 88.7962C145.718 89.1158 145.944 89.438 146.168 89.7616C146.572 90.3508 146.991 91.0044 147.451 91.7632C148.271 93.1282 149.008 94.5406 149.66 95.9932C151.036 99.0466 151.915 102.112 152.271 105.108L152.275 105.142C152.287 105.272 152.302 105.402 152.316 105.527C152.345 105.779 152.374 106.04 152.389 106.316L152.444 107.442C152.444 107.466 152.444 107.491 152.444 107.516V107.859C152.452 108.534 152.425 109.209 152.363 109.88C152.224 111.562 151.927 113.089 151.459 114.517L151.302 115.04C151.292 115.072 151.282 115.105 151.269 115.134L151.066 115.659C151.01 115.798 150.963 115.918 150.915 116.048C150.824 116.288 150.731 116.528 150.628 116.763C150.62 116.782 150.611 116.8 150.602 116.818C150.513 116.997 150.427 117.179 150.342 117.361C150.097 117.894 149.822 118.412 149.517 118.913H149.518Z" fill="#371A45"/>
<path d="M122.565 122.917C122.89 122.045 123.198 121.122 123.49 120.214C123.782 119.306 124.059 118.382 124.319 117.459C124.833 115.613 125.276 113.746 125.559 111.867V111.857C125.586 111.673 125.683 111.507 125.83 111.391C125.976 111.276 126.161 111.221 126.346 111.237C126.532 111.253 126.704 111.339 126.829 111.478C126.953 111.617 127.02 111.797 127.016 111.983C126.969 113.981 126.756 115.956 126.469 117.914C126.323 118.893 126.16 119.869 125.978 120.841C125.794 121.816 125.602 122.774 125.372 123.764C125.329 123.953 125.248 124.13 125.136 124.287C125.024 124.445 124.882 124.578 124.718 124.68C124.554 124.783 124.372 124.851 124.181 124.883C123.991 124.915 123.796 124.909 123.608 124.865C123.42 124.822 123.242 124.742 123.085 124.629C122.928 124.517 122.794 124.375 122.692 124.211C122.59 124.047 122.521 123.865 122.489 123.675C122.458 123.484 122.464 123.289 122.507 123.101C122.521 123.044 122.537 122.987 122.557 122.931L122.565 122.917Z" fill="#371A45"/>
<path d="M116.241 135.64C116.072 135.639 115.906 135.6 115.754 135.525C115.603 135.45 115.471 135.341 115.369 135.207C115.266 135.073 115.195 134.917 115.162 134.751C115.129 134.586 115.135 134.415 115.178 134.252C115.196 134.187 116.888 127.71 113.779 122.335C111.942 119.158 108.776 116.954 104.366 115.787C104.227 115.75 104.096 115.686 103.981 115.599C103.866 115.511 103.769 115.401 103.697 115.276C103.624 115.152 103.577 115.013 103.558 114.87C103.538 114.727 103.548 114.581 103.585 114.442C103.622 114.302 103.686 114.171 103.773 114.056C103.861 113.941 103.971 113.845 104.096 113.772C104.221 113.699 104.359 113.652 104.502 113.633C104.645 113.614 104.791 113.623 104.93 113.66C109.933 114.984 113.555 117.539 115.695 121.252C119.258 127.433 117.384 134.53 117.302 134.83C117.238 135.062 117.1 135.268 116.908 135.414C116.717 135.56 116.482 135.64 116.241 135.64Z" fill="#371A45"/>
<path d="M151.614 60.4556C152.189 60.6407 152.68 60.8226 153.2 61.0214C153.71 61.2209 154.219 61.4216 154.718 61.6412C155.72 62.0743 156.705 62.5406 157.673 63.0399C159.62 64.0313 161.493 65.162 163.277 66.4234C166.833 68.9629 170.106 72.0579 172.495 75.852C173.675 77.7497 174.659 79.7851 175.309 81.9439C175.645 83.0212 175.896 84.1232 176.06 85.2396C176.574 88.5953 176.293 92.0246 175.241 95.2523C174.889 96.3138 174.446 97.3428 173.917 98.3278C173.654 98.8207 173.366 99.2999 173.054 99.7635C172.738 100.242 172.389 100.698 172.01 101.128C171.861 101.298 171.655 101.407 171.43 101.435C171.206 101.462 170.979 101.406 170.793 101.277C170.608 101.148 170.476 100.955 170.424 100.735C170.371 100.515 170.402 100.283 170.509 100.084L170.545 100.02C170.754 99.6297 170.989 99.1542 171.194 98.7078C171.4 98.2615 171.601 97.7918 171.779 97.3253C172.147 96.3969 172.461 95.4481 172.719 94.4837C173.239 92.5646 173.529 90.5935 173.507 88.6218C173.47 84.6757 172.142 80.7972 169.965 77.4632C167.801 74.1102 164.833 71.2621 161.51 68.9136C159.837 67.7369 158.09 66.6697 156.28 65.7185C155.374 65.2421 154.452 64.7958 153.516 64.3796C153.049 64.1704 152.58 63.9694 152.109 63.7767C151.645 63.5883 151.147 63.396 150.718 63.2485L150.686 63.2368C150.317 63.1139 150.011 62.8495 149.837 62.5016C149.663 62.1537 149.634 61.7508 149.757 61.3817C149.88 61.0125 150.144 60.7073 150.492 60.5331C150.84 60.359 151.243 60.3301 151.612 60.453L151.614 60.4556Z" fill="#371A45"/>
<path d="M175.5 76.2298C167.487 76.2298 164.456 68.8782 164.326 68.5637C164.261 68.3994 164.237 68.222 164.255 68.0464C164.274 67.8708 164.334 67.7022 164.431 67.5548C170.699 57.956 179.728 51.8173 187.447 51.9343C189.274 51.9583 191.033 52.4793 192.675 53.4824C192.749 53.5277 192.818 53.5815 192.879 53.6429C195.55 56.4267 196.18 59.699 194.719 63.128C192.885 67.4314 188.34 70.7459 185.794 72.3383C182.015 74.7031 177.976 76.2311 175.504 76.2317L175.5 76.2298ZM166.607 68.2519C167.368 69.752 170.022 74.0287 175.499 74.0287C179.508 74.0287 189.996 68.5819 192.69 62.2633C193.792 59.6796 193.37 57.3966 191.401 55.2872C190.137 54.5407 188.795 54.1535 187.412 54.1347H187.244C180.537 54.1334 172.324 59.7621 166.607 68.2519Z" fill="#371A45"/>
<path d="M153.533 63.8593C153.362 63.8592 153.194 63.8196 153.041 63.7436L138.714 56.5895C138.454 56.4598 138.256 56.2329 138.163 55.958C138.07 55.6831 138.089 55.3827 138.217 55.1219C143.979 43.3318 152.459 40.2972 157.97 41.2841C158.018 41.2926 158.066 41.3045 158.113 41.3198C158.593 41.4497 160.668 42.0948 161.946 44.1062C162.967 45.7167 163.211 47.7359 162.671 50.1091C161.397 55.7021 154.635 63.1849 154.348 63.5006C154.244 63.614 154.119 63.7044 153.978 63.7662C153.838 63.8279 153.686 63.8596 153.533 63.8593ZM140.687 55.1148L153.265 61.3951C154.88 59.5162 159.573 53.7882 160.523 49.6193C161.674 44.5642 157.963 43.5423 157.534 43.4422L157.516 43.4383C152.907 42.6503 145.851 45.2756 140.687 55.1148Z" fill="#371A45"/>
<path d="M182.907 73.8215C182.639 73.8218 182.381 73.7243 182.18 73.5473L169.832 62.6823C169.618 62.488 169.489 62.2175 169.473 61.9292C169.457 61.6409 169.555 61.3578 169.746 61.141C169.937 60.9243 170.205 60.7912 170.493 60.7704C170.781 60.7497 171.066 60.843 171.286 61.0302L183.635 71.8945C183.803 72.0423 183.922 72.2378 183.976 72.4549C184.03 72.672 184.016 72.9004 183.937 73.1097C183.858 73.319 183.717 73.4993 183.533 73.6264C183.349 73.7536 183.131 73.8216 182.907 73.8215Z" fill="#371A45"/>
<path d="M190.239 68.5944C189.95 68.5952 189.673 68.4817 189.468 68.2787L177.435 56.4548C177.326 56.355 177.238 56.2343 177.177 56.0997C177.115 55.9652 177.081 55.8196 177.078 55.6718C177.074 55.5239 177.1 55.3768 177.154 55.2392C177.208 55.1016 177.289 54.9763 177.393 54.8709C177.497 54.7654 177.621 54.6819 177.757 54.6254C177.894 54.5689 178.041 54.5406 178.189 54.542C178.336 54.5435 178.483 54.5748 178.618 54.634C178.754 54.6931 178.876 54.779 178.977 54.8865L191.01 66.7104C191.165 66.8636 191.271 67.0595 191.315 67.2733C191.359 67.487 191.338 67.7089 191.256 67.9108C191.173 68.1127 191.032 68.2855 190.851 68.4072C190.67 68.5289 190.457 68.5941 190.239 68.5944Z" fill="#371A45"/>
<path d="M160.669 53.5807C160.552 53.5805 160.435 53.5617 160.323 53.5248L144.654 48.3489C144.517 48.3036 144.39 48.2317 144.281 48.1374C144.171 48.043 144.081 47.928 144.016 47.799C143.951 47.67 143.913 47.5294 143.902 47.3853C143.891 47.2412 143.909 47.0965 143.954 46.9593C144 46.8221 144.072 46.6952 144.166 46.5858C144.26 46.4764 144.375 46.3866 144.504 46.3216C144.633 46.2567 144.774 46.2177 144.918 46.2071C145.062 46.1964 145.207 46.2143 145.344 46.2596L161.014 51.4348C161.261 51.5177 161.471 51.6857 161.606 51.9088C161.741 52.1319 161.792 52.3956 161.75 52.653C161.709 52.9104 161.578 53.1447 161.38 53.3143C161.181 53.4838 160.93 53.5775 160.669 53.5787V53.5807Z" fill="#371A45"/>
<path d="M156.517 60.2178C156.398 60.2177 156.279 60.1981 156.167 60.16L139.887 54.6872C139.613 54.5917 139.389 54.3922 139.261 54.132C139.134 53.8719 139.115 53.572 139.207 53.2975C139.299 53.023 139.496 52.796 139.755 52.6656C140.013 52.5353 140.313 52.5121 140.588 52.6012L156.868 58.0733C157.115 58.1571 157.324 58.3258 157.458 58.5493C157.593 58.7728 157.643 59.0366 157.601 59.2938C157.559 59.5511 157.427 59.7851 157.229 59.9541C157.03 60.1232 156.778 60.2164 156.517 60.2172L156.517 60.2178Z" fill="#371A45"/>
<path d="M190.093 83.0868L183.136 84.8201C182.982 84.8565 182.82 84.8357 182.681 84.7615C182.542 84.6874 182.434 84.565 182.378 84.4172C182.322 84.2694 182.322 84.1064 182.378 83.9587C182.434 83.8109 182.542 83.6885 182.681 83.6144L189.059 80.3394C189.408 80.1621 189.812 80.1301 190.184 80.2504C190.556 80.3708 190.865 80.6336 191.044 80.9814C191.222 81.3291 191.256 81.7335 191.137 82.1058C191.018 82.4782 190.756 82.7882 190.409 82.9679C190.308 83.0189 190.202 83.0587 190.093 83.0868Z" fill="#371A45"/>
<path d="M174.819 93.1666C174.915 93.2315 175.066 93.3316 175.197 93.4121C175.329 93.4927 175.474 93.5784 175.617 93.6571C175.901 93.8169 176.193 93.9669 176.49 94.1066C177.084 94.3872 177.696 94.6283 178.322 94.8284C179.561 95.2275 180.853 95.4423 182.155 95.4657C182.797 95.4678 183.439 95.4204 184.074 95.3241C184.707 95.219 185.33 95.0647 185.938 94.8628C187.158 94.4332 188.308 93.8254 189.35 93.0594L189.356 93.0555C189.472 92.9704 189.605 92.9092 189.745 92.8753C189.886 92.8415 190.032 92.8356 190.175 92.8581C190.317 92.8806 190.454 92.9311 190.578 93.0065C190.701 93.0819 190.808 93.1809 190.893 93.2978C190.978 93.4147 191.04 93.5472 191.073 93.6877C191.107 93.8282 191.113 93.9741 191.091 94.1168C191.068 94.2596 191.018 94.3966 190.942 94.5199C190.867 94.6432 190.768 94.7505 190.651 94.8355L190.638 94.8446C189.404 95.7231 188.047 96.4136 186.61 96.8937C185.884 97.123 185.142 97.2951 184.389 97.4082C183.636 97.5115 182.875 97.5563 182.115 97.542C180.61 97.4945 179.119 97.225 177.693 96.7423C176.986 96.505 176.296 96.2211 175.627 95.8925C175.292 95.7295 174.964 95.5547 174.639 95.3657C174.476 95.2728 174.315 95.1753 174.155 95.0727C173.996 94.97 173.847 94.8739 173.658 94.7374C173.447 94.5875 173.304 94.36 173.261 94.1048C173.218 93.8496 173.278 93.5877 173.427 93.3767C173.577 93.1657 173.805 93.0229 174.06 92.9798C174.315 92.9366 174.577 92.9965 174.788 93.1464L174.819 93.1666Z" fill="#371A45"/>
<path d="M162.524 73.6282C162.543 73.6867 162.541 73.6796 162.542 73.6828C162.542 73.6861 162.542 73.6874 162.542 73.6828C162.536 73.6734 162.531 73.6643 162.524 73.6555C162.511 73.6315 162.487 73.6023 162.467 73.5717C162.415 73.5057 162.358 73.4434 162.298 73.3853C162.151 73.2507 161.987 73.136 161.81 73.0442C161.365 72.8262 160.883 72.6906 160.389 72.644C160.251 72.6251 160.111 72.6142 159.972 72.6115L159.759 72.6005C159.738 72.5979 159.716 72.599 159.694 72.6037L159.646 72.6083C159.607 72.5966 159.441 72.6388 159.327 72.6563C159.214 72.6739 159.047 72.7259 158.909 72.7577C158.324 72.9182 157.698 73.13 157.076 73.3632C154.577 74.3 152.073 75.4304 149.592 76.568C147.109 77.7166 144.637 78.8981 142.175 80.1125C139.713 81.3196 137.248 82.5351 134.806 83.7767H134.802C134.587 83.8919 134.335 83.9169 134.101 83.8461C133.867 83.7753 133.671 83.6146 133.556 83.3992C133.44 83.1838 133.416 82.9315 133.486 82.6977C133.557 82.4639 133.718 82.2678 133.933 82.1525C138.731 79.444 143.568 76.8181 148.495 74.3117C150.967 73.0663 153.432 71.8358 156.046 70.7431C156.702 70.4702 157.37 70.2123 158.102 69.9817C158.297 69.9278 158.458 69.8654 158.68 69.8193C158.902 69.7731 159.07 69.7166 159.376 69.6893L159.584 69.6698C159.647 69.663 159.71 69.6602 159.773 69.6614L160.076 69.6685C160.28 69.6695 160.484 69.681 160.686 69.703C161.506 69.777 162.376 69.9693 163.208 70.4124C163.642 70.6389 164.039 70.9298 164.386 71.2752C164.567 71.4604 164.733 71.6608 164.881 71.8741C164.959 71.9879 165.032 72.1057 165.098 72.2269C165.131 72.2867 165.163 72.3569 165.199 72.4283C165.215 72.4608 165.231 72.4985 165.25 72.5446C165.269 72.5907 165.282 72.62 165.315 72.7194C165.435 73.0898 165.403 73.4928 165.226 73.8397C165.049 74.1865 164.742 74.4489 164.371 74.569C164.001 74.6891 163.598 74.6571 163.251 74.48C162.904 74.303 162.642 73.9954 162.522 73.625L162.524 73.6282Z" fill="#371A45"/>
<path d="M33.5302 131.411C32.59 131.411 31.6564 131.368 30.7295 131.281C22.7049 130.539 18.7757 127.235 16.8969 124.594C14.8446 121.711 14.1612 118.051 15.0207 114.552C15.632 112.064 17.0002 109.768 18.8732 108.09C23.8106 103.659 30.4885 106.308 34.1624 108.86L41.3022 101.084C41.5604 100.803 41.9179 100.634 42.299 100.612C42.68 100.59 43.0546 100.717 43.3434 100.967C43.3896 101.007 48.0412 105.033 52.6141 109.076C55.3044 111.454 57.4431 113.374 58.9711 114.782C62.0895 117.654 62.4741 118.059 62.211 119.07C62.154 119.281 62.0521 119.476 61.9122 119.643C61.7723 119.811 61.5979 119.946 61.4009 120.039C61.2644 120.133 60.9389 120.382 60.6479 120.605C51.2771 127.784 42.1682 131.411 33.5302 131.411ZM25.1892 108.64C23.682 108.64 22.1663 109.079 20.8326 110.276C19.3717 111.603 18.3404 113.337 17.8707 115.253C17.2055 117.962 17.7083 120.675 19.2877 122.893C21.4744 125.964 25.5244 127.854 30.9998 128.36C39.6274 129.161 48.9176 125.827 58.6106 118.465C55.8859 115.835 48.086 108.969 42.4989 104.12L35.4175 111.833C35.1622 112.108 34.8111 112.275 34.4364 112.299C34.0618 112.323 33.6921 112.203 33.4036 111.963C33.3509 111.92 29.3061 108.64 25.1892 108.64Z" fill="#371A45"/>
<path d="M36.2316 140.047C35.5417 140.248 32.5779 137.897 31.8263 135.835L29.5005 129.702L25.6447 119.528L15.0552 91.5925C14.9366 91.2799 14.8807 90.947 14.8908 90.6128C14.9009 90.2786 14.9767 89.9497 15.1138 89.6448C15.251 89.3399 15.4469 89.065 15.6903 88.8359C15.9337 88.6067 16.2199 88.4277 16.5325 88.3091C16.8451 88.1905 17.178 88.1346 17.5122 88.1447C17.8464 88.1548 18.1753 88.2306 18.4802 88.3677C18.7851 88.5049 19.06 88.7008 19.2892 88.9442C19.5183 89.1877 19.6973 89.4738 19.8159 89.7864L30.9902 119.268L34.4983 128.534L36.5818 134.029C37.4095 136.543 36.9248 139.841 36.2316 140.047Z" fill="white"/>
<g opacity="0.25">
<path d="M34.4986 128.535C32.9089 129.203 31.2176 129.597 29.4962 129.701L25.645 119.527C27.4301 119.685 29.2284 119.598 30.9898 119.268L34.4986 128.535Z" fill="#371A45"/>
</g>
<path d="M36.1776 141.151C34.4196 141.151 31.5 138.146 30.7938 136.219L14.0279 91.9825C13.8582 91.5348 13.7782 91.0581 13.7927 90.5796C13.8071 90.1011 13.9157 89.63 14.1122 89.1935C14.509 88.3117 15.2398 87.6238 16.1439 87.2809C17.048 86.938 18.0512 86.9683 18.9329 87.3651C19.8147 87.7619 20.5026 88.4928 20.8455 89.3968L37.6134 133.639L37.6303 133.686C38.3943 136.017 38.1961 138.942 37.5309 140.21C37.2859 140.678 36.9546 140.976 36.5453 141.098C36.426 141.133 36.3021 141.151 36.1776 141.151ZM17.438 89.2435C17.2038 89.2434 16.9731 89.3001 16.7657 89.4089C16.5583 89.5177 16.3804 89.6753 16.2474 89.8681C16.1144 90.0609 16.0302 90.2831 16.0021 90.5156C15.974 90.7481 16.0028 90.984 16.0861 91.2029L32.8539 135.445C32.8558 135.449 32.8573 135.454 32.8585 135.458C33.3223 136.729 34.8724 138.141 35.7456 138.713C35.9561 137.798 36.0509 135.957 35.5461 134.397L18.7848 90.1771C18.6804 89.9035 18.4956 89.6678 18.2548 89.5012C18.0139 89.3346 17.7283 89.2447 17.4354 89.2435H17.438Z" fill="#371A45"/>
<path d="M35.7699 118.8C33.459 123.166 25.513 124.116 21.83 121.661L17.439 114.266C17.5306 113.899 17.6111 113.558 17.6884 113.231C18.0782 111.607 18.4479 110.443 19.8525 109.185C25.6598 103.972 33.7995 110.396 34.3172 110.818C34.3263 110.823 34.3348 110.829 34.3426 110.836L34.4673 110.7L34.6102 110.854C34.6102 110.854 38.2899 114.028 35.7699 118.8Z" fill="white"/>
<g opacity="0.25">
<path d="M35.7694 118.799C33.4586 123.166 25.5125 124.115 21.8296 121.66L17.4385 114.265C17.5301 113.898 17.6106 113.557 17.6879 113.23C17.7614 113.095 17.8348 112.963 17.9114 112.831C18.8508 111.224 19.6727 113.568 20.6043 114.309C21.7392 115.2 23.11 115.739 24.5478 115.861C27.1854 116.077 29.8042 114.973 31.8584 113.304C32.7597 112.56 33.5834 111.727 34.3168 110.817C34.3258 110.822 34.3343 110.828 34.3421 110.835L34.4668 110.699L34.6098 110.853C34.6098 110.853 38.2895 114.027 35.7694 118.799Z" fill="#371A45"/>
</g>
<path d="M15.0209 114.553C15.5316 112.474 16.5522 110.556 17.9905 108.97C18.3505 108.568 18.7415 108.196 19.1599 107.855C19.369 107.673 19.5892 107.505 19.8193 107.35C20.0456 107.186 20.2819 107.036 20.5268 106.901C21.5048 106.34 22.5785 105.965 23.6933 105.796C24.7977 105.624 25.9021 105.666 26.9559 105.831C27.9904 106 29.0038 106.28 29.9788 106.665C30.928 107.035 31.8473 107.477 32.7288 107.988C33.1673 108.24 33.5961 108.507 34.0158 108.787C34.2256 108.928 34.4335 109.072 34.6408 109.221C34.848 109.371 35.0396 109.515 35.2787 109.709L33.2648 109.839L33.3888 109.705C33.6535 109.42 34.0204 109.252 34.4089 109.238C34.7974 109.223 35.1757 109.364 35.4606 109.628L35.4879 109.654L35.5347 109.7L35.6835 109.847L35.5711 109.739C35.753 109.895 35.8433 109.984 35.9609 110.104C36.0785 110.225 36.1727 110.334 36.2792 110.45C36.8846 111.156 37.3623 111.962 37.6909 112.832C37.815 113.119 37.8858 113.431 37.9683 113.733C38.0508 114.036 38.0801 114.357 38.1314 114.669C38.1509 114.984 38.1678 115.302 38.1652 115.617C38.1398 115.931 38.1223 116.246 38.0801 116.556C38.019 116.86 37.9586 117.164 37.8852 117.465L37.587 118.326C37.4837 118.611 37.3382 118.866 37.2128 119.137C37.1478 119.267 37.0893 119.4 37.0101 119.536L36.7587 119.94C36.0667 120.943 35.1615 121.781 34.108 122.393C32.0876 123.569 29.8703 124.022 27.6932 124.04C26.599 124.047 25.5085 123.913 24.4482 123.643C23.3892 123.364 22.3407 122.938 21.4298 122.251C21.2883 122.144 21.1923 121.988 21.161 121.813C21.1297 121.638 21.1653 121.458 21.2608 121.309C21.3562 121.159 21.5045 121.051 21.6761 121.006C21.8477 120.961 22.03 120.982 22.1867 121.065L22.2107 121.078C23.7914 121.923 25.7501 122.092 27.5906 121.907C28.5113 121.815 29.4186 121.619 30.2951 121.323C31.1415 121.049 31.9433 120.653 32.6749 120.148C33.3804 119.662 33.9515 119.063 34.3315 118.406L34.4614 118.156C34.505 118.071 34.542 117.965 34.5829 117.871C34.6576 117.676 34.7603 117.489 34.8155 117.294L34.9857 116.713C35.0117 116.518 35.0507 116.327 35.0838 116.136C35.1778 115.379 35.0852 114.611 34.8142 113.898C34.6953 113.533 34.5011 113.188 34.301 112.849C34.1964 112.68 34.0814 112.52 33.9638 112.361C33.9027 112.289 33.843 112.206 33.7819 112.139C33.7208 112.072 33.6422 111.983 33.637 111.971L33.524 111.862L33.3869 111.704L35.5308 111.699L35.4067 111.829C35.1543 112.101 34.8082 112.267 34.4381 112.294C34.068 112.321 33.7014 112.207 33.4122 111.975L33.3947 111.96C33.2648 111.857 33.0764 111.713 32.9074 111.591C32.7385 111.469 32.5527 111.339 32.3715 111.217C32.0083 110.973 31.6341 110.742 31.2547 110.524C30.5036 110.089 29.7204 109.712 28.912 109.396C27.3184 108.783 25.6448 108.462 24.1181 108.698C23.3635 108.811 22.6365 109.064 21.9742 109.444C21.8053 109.535 21.6431 109.638 21.4889 109.752C21.3266 109.859 21.172 109.978 21.0264 110.107C20.7118 110.361 20.4186 110.641 20.15 110.943C19.0415 112.166 18.255 113.646 17.8612 115.25V115.256C17.7662 115.633 17.5259 115.956 17.193 116.156C16.8601 116.355 16.4616 116.415 16.0849 116.321C15.7081 116.228 15.3838 115.989 15.1828 115.657C14.9818 115.325 14.9205 114.926 15.0124 114.549L15.0209 114.553Z" fill="#371A45"/>
<g opacity="0.25">
<path d="M158.686 57.5293C157.215 60.0837 155.229 62.2926 153.257 64.4859L162.45 69.9924C164.173 66.6697 164.866 62.9086 164.441 59.1898C164.148 56.6672 163.349 53.4728 161.721 51.4452C160.559 49.9971 160.65 52.5041 160.397 53.4591C160.02 54.8864 159.422 56.2507 158.686 57.5293Z" fill="#371A45"/>
</g>
<path d="M39.4542 112.667C80.2856 155.4 141.642 100.826 106.977 55.6787C66.2172 10.9434 2.84824 67.4149 39.4542 112.667Z" fill="white"/>
<path d="M39.4542 112.667C80.2856 155.4 141.642 100.826 106.977 55.6787C66.2172 10.9434 2.84824 67.4149 39.4542 112.667Z" fill="white"/>
<path d="M39.4542 112.667C80.2856 155.4 141.642 100.826 106.977 55.6787C66.2172 10.9434 2.84824 67.4149 39.4542 112.667Z" fill="white"/>
<path d="M72.8056 128.974C72.5275 128.974 72.2508 128.974 71.9727 128.966C59.9072 128.725 48.4549 123.287 38.8541 113.239L38.8093 113.188C30.1285 102.457 26.4007 90.3443 28.0249 78.1599C29.471 67.2877 35.0828 57.164 43.8293 49.6552C52.5588 42.1613 63.3582 38.2075 74.2193 38.5212C86.4784 38.8747 98.0171 44.6144 107.589 55.1202L107.633 55.1734C115.866 65.8929 119.311 77.8929 117.597 89.8694C116.063 100.582 110.487 110.538 101.896 117.903C93.5481 125.06 83.247 128.974 72.8056 128.974ZM40.0762 112.122C60.6244 133.605 85.3864 129.877 100.82 116.648C115.892 103.724 124.048 79.302 106.342 56.2142C85.9399 33.8437 60.1982 37.7826 44.909 50.9123C29.4697 64.1707 21.3749 88.9755 40.0762 112.122Z" fill="#371A45"/>
<g opacity="0.25">
<path d="M39.4534 112.666C74.0805 150.19 131.376 112.896 113.78 67.0859C114.447 83.0755 109.29 84.9062 102.996 94.5713C84.0548 125.892 40.7709 116 28.7339 86.1425C29.2621 96.0759 33.1477 105.372 39.4534 112.666Z" fill="#371A45"/>
</g>
<path d="M72.8056 129.309C72.5254 129.309 72.2456 129.306 71.9663 129.299C59.8097 129.057 48.2763 123.582 38.6132 113.47L38.5482 113.398C29.8102 102.594 26.0525 90.3943 27.691 78.1163C29.1508 67.1655 34.8048 56.9658 43.6117 49.4024C52.4016 41.8546 63.2673 37.8728 74.2291 38.1905C86.5805 38.5472 98.2017 44.3246 107.836 54.8986L107.901 54.9733C116.189 65.7681 119.659 77.8525 117.929 89.92C116.384 100.713 110.767 110.742 102.115 118.16C93.704 125.366 83.327 129.309 72.8056 129.309ZM40.3276 111.898C60.7225 133.207 85.2915 129.514 100.6 116.391C115.557 103.568 123.648 79.3376 106.084 56.4266C85.834 34.2366 60.295 38.1418 45.1267 51.1643C29.8089 64.3206 21.7797 88.9293 40.3276 111.899V111.898Z" fill="#293856"/>
<path d="M72.806 129.612C72.524 129.612 72.2427 129.612 71.9614 129.604C59.7211 129.36 48.1135 123.854 38.3965 113.681L38.3166 113.59C29.5195 102.719 25.7424 90.4387 27.3899 78.0756C28.8594 67.0476 34.5498 56.7822 43.4139 49.1695C52.261 41.5736 63.2137 37.5645 74.2378 37.8828C86.6744 38.2421 98.3703 44.0546 108.061 54.6903L108.141 54.7845C116.48 65.6456 119.968 77.8093 118.229 89.9606C116.674 100.826 111.018 110.922 102.312 118.389C93.8473 125.645 83.4001 129.612 72.806 129.612ZM40.5566 111.697C60.8125 132.857 85.2042 129.189 100.402 116.16C115.251 103.427 123.282 79.373 105.851 56.6211C85.7389 34.591 60.3844 38.4662 45.3252 51.3972C30.1172 64.4567 22.1452 88.8906 40.5566 111.697Z" fill="#371A45"/>
<path d="M47.8938 120.212C96.3854 138.693 125.014 80.8999 86.5105 56.7824C41.7409 32.3881 5.72542 88.4581 47.8938 120.212Z" fill="#371A45"/>
<path d="M30.9487 91.9277C38.6447 138.194 105.421 130.763 105.328 87.3105C88.3888 115.811 47.1579 112.187 30.9487 91.9277Z" fill="#21102B"/>
<path d="M69.905 128.725C68.8551 128.725 67.8061 128.679 66.758 128.587C56.5063 127.69 46.7659 122.455 38.5905 113.45L38.5846 113.444C31.6703 105.704 27.6462 94.9017 27.5468 83.8048C27.4416 72.055 31.6657 61.253 39.4403 53.3856L39.5104 53.3154L39.5903 53.2576C49.2996 46.3069 62.0785 43.768 74.6475 46.2919C87.1756 48.8074 97.9302 56.0291 104.153 66.1067C109.926 76.0173 111.593 86.766 108.989 97.2172C106.628 106.691 100.917 115.139 92.9083 121.007C86.0439 126.037 77.9809 128.725 69.905 128.725ZM40.3173 111.889C58.3318 131.732 79.1672 128.192 91.5362 119.131C105.753 108.716 113.967 87.5696 102.161 67.3027C96.2911 57.7968 86.0914 50.9604 74.1928 48.5716C62.2838 46.1808 50.2019 48.5573 41.0248 55.091C24.8897 71.4963 27.6222 97.6843 40.3173 111.889Z" fill="#371A45"/>
<path d="M66.2351 124.449C60.2517 124.449 53.9961 123.239 47.6606 120.825L47.5735 120.792L47.4995 120.736C37.4738 113.186 31.1279 103.71 29.1464 93.333C27.3768 84.0603 29.2114 74.5895 34.3165 66.6656C39.3033 58.9222 46.92 53.4429 55.7554 51.236C65.5998 48.7783 76.3433 50.4967 86.823 56.2066L86.8574 56.2267C95.7273 61.7827 101.646 69.4799 103.973 78.4869C106.08 86.6382 105.089 95.4483 101.184 103.294C96.9696 111.78 89.7263 118.378 80.8844 121.784C76.2828 123.562 71.3584 124.449 66.2351 124.449ZM48.2147 119.633C73.4133 129.193 92.3835 118.034 100.011 102.71C106.94 88.7892 105.348 69.3669 86.1792 57.3487C63.6417 45.0766 44.0699 53.9438 35.419 67.3756C26.5263 81.1836 26.7459 103.416 48.2147 119.633Z" fill="#371A45"/>
<path d="M123.762 84.2673C124.452 105.097 103.635 107.542 100.971 87.7229C99.4472 65.9182 121.699 63.3026 123.762 84.2673Z" fill="white"/>
<g opacity="0.35">
<path d="M113.415 101.333C107.178 102.113 101.331 95.3892 100.887 86.6752C106.38 94.8974 113.1 78.4765 112.995 74.1367C129.571 75.273 124.898 100.149 113.415 101.333Z" fill="#371A45"/>
</g>
<path d="M112.436 102.48C107.003 102.48 101.19 98.0726 99.8198 87.8768L99.812 87.8027C98.9869 76.0016 105.003 69.2873 111.376 68.7481C117.129 68.2647 123.814 72.8793 124.923 84.1529L124.928 84.2283C125.318 96.0431 119.161 101.954 113.273 102.446C112.994 102.468 112.718 102.48 112.436 102.48ZM102.129 87.6039C103.374 96.7824 108.526 100.506 113.076 100.128C117.896 99.7254 122.929 94.6145 122.602 84.3413C121.636 74.6613 116.205 70.675 111.567 71.0635C106.34 71.5053 101.424 77.3269 102.129 87.6039Z" fill="#371A45"/>
<path d="M124.765 85.2535C125.306 102.134 109.741 104.228 107.585 88.1991C106.252 70.3372 123.17 68.0796 124.765 85.2535Z" fill="white"/>
<path d="M116.253 100.302C112.071 100.302 107.554 96.6913 106.432 88.3542L106.425 88.2892C105.688 78.402 110.385 72.8032 115.407 72.3828C119.866 72.0119 125.058 75.8455 125.922 85.1494L125.926 85.2202C126.241 95.0236 121.444 99.8994 116.852 100.281C116.653 100.294 116.453 100.302 116.253 100.302ZM108.741 88.0787C109.72 95.277 113.419 98.2304 116.66 97.9601C120.185 97.6671 123.858 93.5892 123.604 85.3261C122.877 77.6243 118.951 74.4169 115.601 74.6963C111.725 75.0211 108.129 79.7208 108.741 88.0787Z" fill="#371A45"/>
<g opacity="0.5">
<path d="M94.7528 79.9285C93.9244 88.6626 83.9826 87.8758 83.4259 80.2046C83.2699 70.4901 95.0022 71.2288 94.7528 79.9285Z" fill="white"/>
</g>
<g opacity="0.5">
<path d="M92.7454 93.5637C92.236 96.8854 87.8813 96.6249 88.1003 92.9641C88.6103 89.6443 92.9682 89.9042 92.7454 93.5637Z" fill="white"/>
</g>
<g opacity="0.5">
<path d="M37.4563 92.9561C26.7199 64.0558 56.9384 54.2842 67.5299 58.8358C47.9464 63.9759 41.4952 77.9008 37.4563 92.9561Z" fill="white"/>
</g>
<g opacity="0.25">
<path d="M107.463 92.0745C106.728 89.815 106.609 87.3462 107.008 84.9931C112.038 95.5281 122.266 88.5169 123.343 80.0693C128.917 96.0043 113.699 106.834 107.463 92.0745Z" fill="#371A45"/>
</g>
</svg>
