<svg width="200" height="200" viewBox="0 0 200 200" fill="none" xmlns="http://www.w3.org/2000/svg">
<path d="M52.8759 135.633C52.3474 137.669 51.9458 139.735 51.6733 141.821C60.9049 146.97 78.4901 153.373 99.0964 158.712C119.703 164.052 138.185 166.992 148.756 166.973C149.531 165.018 150.184 163.017 150.71 160.981C150.735 160.884 150.76 160.789 150.783 160.692C151.015 159.781 151.219 158.871 151.395 157.962C151.808 155.857 152.087 153.727 152.229 151.587C152.235 151.5 152.241 151.415 152.245 151.329C152.788 142.381 150.932 133.451 146.867 125.461C140.535 112.981 129.081 103.176 114.465 99.3894C99.9676 95.6341 85.3159 98.563 73.7654 106.258C66.3466 111.188 60.3688 117.998 56.4421 125.994C56.3285 126.222 56.2183 126.451 56.1081 126.682C55.1931 128.623 54.4027 130.62 53.7417 132.661C53.4923 133.427 53.2609 134.202 53.0476 134.988C52.9901 135.202 52.932 135.416 52.8759 135.633Z" fill="#FFB200"/>
<path d="M52.9795 161.398C54.2705 166.189 56.2569 170.765 58.8753 174.979C65.4853 185.62 76.0376 193.833 89.12 197.223C102.232 200.62 115.476 198.547 126.434 192.426C130.741 190.018 134.675 186.996 138.112 183.455C125.368 182.495 110.396 179.981 94.6443 175.901C78.893 171.821 64.5861 166.748 52.9795 161.398Z" fill="#FF9100"/>
<path d="M51.6747 141.82C60.9043 146.97 78.4915 153.374 99.0971 158.712C119.703 164.051 138.188 166.993 148.759 166.974C149.531 165.018 150.183 163.016 150.713 160.981L150.786 160.692C151.016 159.781 151.219 158.871 151.396 157.963C151.809 155.858 152.088 153.728 152.232 151.588C152.237 151.502 152.243 151.416 152.246 151.331C152.791 142.383 150.934 133.452 146.868 125.462C141.746 115.369 133.278 107.028 122.493 102.204C129.674 109.964 134.251 119.775 135.583 130.263C135.973 133.352 136.074 136.471 135.883 139.578C135.878 139.667 135.872 139.753 135.867 139.838C135.859 139.952 135.846 140.092 135.827 140.258C134.806 149.257 126.236 154.468 117.212 155.238C100.01 156.707 59.8407 143.392 51.2325 140.206C50.9252 141.614 51.8598 140.412 51.6747 141.82Z" fill="#FF9100"/>
<path d="M94.6443 175.901C78.895 171.82 64.5861 166.748 52.9795 161.398C53.515 163.392 54.1732 165.35 54.9503 167.263C63.9353 171.681 77.9256 176.635 93.9375 180.783C109.274 184.757 123.349 187.184 133.295 187.821C134.993 186.47 136.602 185.012 138.112 183.455C125.368 182.495 110.396 179.981 94.6443 175.901Z" fill="#D66B09"/>
<path d="M53.0496 134.987C52.9901 135.201 52.932 135.416 52.8759 135.633C52.3474 137.668 51.9458 139.735 51.6733 141.82C60.9049 146.969 78.4901 153.372 99.0964 158.712C119.703 164.051 138.185 166.992 148.756 166.972C149.531 165.017 150.184 163.016 150.71 160.98C150.735 160.883 150.76 160.789 150.783 160.691C140.861 161.298 122.098 158.605 101.093 153.162C79.2584 147.505 60.9851 140.43 53.0496 134.987Z" fill="#D66B09"/>
<path d="M152.324 143.672L151.57 140.349C144.845 141.875 126.116 139.305 106.033 134.101C82.0689 127.892 66.0476 120.735 62.6077 116.875L60.0649 119.142C64.6179 124.25 82.7483 131.587 105.179 137.398C126.063 142.809 145.009 145.331 152.324 143.672Z" fill="#D66B09"/>
<path d="M146.909 127.164L146.828 123.757C139 123.943 124.982 121.686 110.239 117.867C94.7899 113.866 81.1611 108.864 74.67 104.812L72.8662 107.703C79.6339 111.924 93.6261 117.083 109.384 121.166C124.409 125.059 138.788 127.357 146.909 127.164Z" fill="#D66B09"/>
<path d="M152.545 153.005L151.947 149.651C144.166 151.035 124.803 148.304 103.765 142.853C81.6954 137.135 62.7219 129.699 57.6271 124.769L55.2588 127.217C60.8232 132.598 79.9731 140.207 102.91 146.15C124.714 151.8 144.197 154.49 152.545 153.005Z" fill="#D66B09"/>
<path d="M126.519 193.276L126.434 192.431L126.696 191.619L126.528 191.565L126.349 191.581C119.53 192.261 105.972 190.329 91.8091 186.66C77.5676 182.97 65.1319 178.226 59.3557 174.279L58.395 175.682C64.3229 179.733 76.963 184.568 91.3822 188.306C105.947 192.079 119.408 193.982 126.519 193.276Z" fill="#D66B09"/>
<path d="M101.745 200.001C97.3867 200.001 93.0458 199.447 88.8266 198.354C70.8479 193.696 56.6793 179.651 51.8504 161.701L51.2017 159.291L53.4685 160.34C65.4271 165.852 79.7681 170.843 94.9376 174.77C110.107 178.698 125.068 181.302 138.2 182.29L140.689 182.478L138.952 184.27C129.085 194.445 115.575 200.001 101.745 200.001ZM54.8273 163.517C60.0156 179.491 73.0659 191.856 89.4132 196.092C105.76 200.327 123.173 195.855 135.467 184.411C122.831 183.282 108.677 180.745 94.351 177.033C80.0247 173.321 66.4212 168.667 54.8273 163.517Z" fill="#371A45"/>
<path d="M23.3265 135.372C21.4699 142.538 33.3744 152.363 52.9793 161.398C64.5858 166.747 78.8948 171.82 94.6441 175.901C110.393 179.981 125.368 182.495 138.112 183.455C159.637 185.076 174.813 182.268 176.67 175.104C178.356 168.595 168.696 159.899 152.23 151.587C152.088 153.728 151.809 155.858 151.396 157.963C156.001 160.564 158.44 162.84 158.01 164.483C157.576 166.159 154.224 166.963 148.753 166.974C138.183 166.993 119.699 164.052 99.0942 158.713C78.4892 153.374 60.906 146.97 51.6745 141.82C46.8997 139.154 44.3597 136.823 44.7933 135.148C45.2188 133.505 48.4557 132.699 53.7455 132.661C54.4052 130.62 55.1943 128.623 56.1079 126.682C37.6802 125.952 25.0127 128.864 23.3265 135.372Z" fill="#FFD766"/>
<path d="M151.559 157.101C151.506 157.388 151.453 157.675 151.396 157.964C156.002 160.565 158.442 162.835 158.015 164.481C157.579 166.16 154.224 166.964 148.757 166.973C141.747 166.987 131.248 165.695 118.96 163.266C119.321 164.238 119.491 165.185 119.458 166.091C124.192 166.97 128.755 167.68 133.057 168.21C151.763 170.516 161.001 168.799 161.667 166.227C162.056 164.726 159.594 161.549 151.559 157.101Z" fill="#FFAA39"/>
<path d="M152.452 154.45L152.123 155.056C156.232 157.218 159.467 159.23 161.955 161.063C159.98 159.027 156.812 156.823 152.452 154.45Z" fill="#FF9100"/>
<path d="M151.792 155.658L152.127 155.056C152.06 155.015 151.977 154.976 151.897 154.938L151.792 155.658Z" fill="#FF9100"/>
<path d="M161.955 161.062C164.021 163.178 164.798 165.119 164.334 166.921C163.878 168.673 162.292 169.891 159.941 170.704C153.81 172.821 142.495 172.153 132.722 170.947C128.298 170.402 123.604 169.667 118.735 168.763C118.053 170.024 116.903 171.122 115.328 172.062C122.529 173.441 129.46 174.461 135.894 175.088C158.834 177.324 168.037 173.997 168.952 170.47C169.46 168.512 167.648 165.253 161.955 161.062Z" fill="#FFAA39"/>
<path d="M95.6143 176.15C111.009 180.088 125.628 182.515 138.114 183.455C159.638 185.077 174.816 182.268 176.672 175.099C178.357 168.594 168.694 159.898 152.23 151.586C152.188 152.215 152.131 152.844 152.065 153.476L152.702 152.245C162.283 157.206 173.345 164.514 171.619 171.16C170.951 173.732 168.603 175.473 165.29 176.618C157.492 179.306 144.391 178.689 135.628 177.831C127.938 177.084 119.553 175.78 110.863 173.991C106.916 175.223 101.738 175.943 95.6143 176.15Z" fill="#FFAA39"/>
<path d="M118.735 168.764C123.604 169.668 128.298 170.403 132.722 170.948C142.495 172.15 153.81 172.822 159.941 170.704C162.292 169.892 163.878 168.674 164.334 166.922C164.802 165.118 164.021 163.181 161.955 161.063C159.468 159.23 156.233 157.219 152.123 155.057L151.789 155.658C151.717 156.14 151.639 156.619 151.556 157.1C159.594 161.549 162.056 164.726 161.665 166.228C160.997 168.8 151.763 170.517 133.055 168.21C128.753 167.68 124.19 166.971 119.456 166.091C119.445 166.536 119.383 166.979 119.272 167.409C119.149 167.881 118.969 168.336 118.735 168.764Z" fill="#FFCF6E"/>
<path d="M152.123 155.056C156.232 157.218 159.467 159.23 161.955 161.063C159.981 159.028 156.813 156.823 152.452 154.449L152.123 155.056Z" fill="#FFEC90"/>
<path d="M151.793 155.658L151.133 156.867C151.277 156.944 151.421 157.021 151.56 157.101C151.644 156.62 151.721 156.141 151.793 155.658Z" fill="#FFEC90"/>
<path d="M63.7623 153.083C73.6445 157.076 85.3821 160.88 97.7108 164.073C104.879 165.93 111.974 167.512 118.735 168.763C118.968 168.335 119.148 167.881 119.27 167.409C119.381 166.978 119.443 166.536 119.454 166.091C112.695 164.85 105.585 163.267 98.3976 161.408C86.1844 158.242 74.5625 154.479 64.7965 150.527C47.3235 143.457 40.0842 137.47 40.7456 134.904C41.1464 133.368 44.9625 131.764 54.4994 131.84L54.5147 129.769L54.5207 129.081C49.5235 129.04 45.6847 129.426 42.9663 130.248C40.1603 131.101 38.5456 132.42 38.0779 134.212C36.4385 140.551 51.1422 147.974 63.7623 153.083Z" fill="#FFEC90"/>
<path d="M110.864 173.991C119.553 175.781 127.939 177.085 135.628 177.832C144.391 178.687 157.492 179.307 165.291 176.618C168.604 175.474 170.954 173.733 171.62 171.161C173.347 164.515 162.284 157.207 152.702 152.246L152.066 153.477C152.016 153.966 151.961 154.453 151.895 154.938C151.974 154.977 152.054 155.015 152.124 155.057L152.452 154.451C156.821 156.832 159.989 159.037 161.955 161.065C167.649 165.255 169.46 168.515 168.953 170.473C168.038 173.999 158.835 177.326 135.895 175.09C129.461 174.463 122.533 173.443 115.329 172.065C114.097 172.804 112.601 173.448 110.864 173.991Z" fill="#FFCF6E"/>
<path d="M152.452 154.45L152.123 155.056C156.232 157.218 159.467 159.23 161.955 161.063C159.98 159.027 156.812 156.823 152.452 154.45Z" fill="#FFAA39"/>
<path d="M152.065 153.477L151.435 154.695C151.59 154.779 151.745 154.857 151.894 154.938C151.96 154.453 152.016 153.966 152.065 153.477Z" fill="#FFEC90"/>
<path d="M57.8812 157.689C68.934 162.5 82.1266 166.941 96.0347 170.544C101.029 171.841 105.993 172.991 110.866 173.991C112.603 173.447 114.098 172.803 115.331 172.063C109.273 170.909 103.022 169.502 96.7248 167.873C82.957 164.308 69.9074 159.911 58.9782 155.161C37.8388 145.975 31.4085 138.593 32.3218 135.07C32.8302 133.117 35.9855 131.148 42.9723 130.243C46.0455 129.847 49.8609 129.657 54.5208 129.764C54.7773 129.772 55.0385 129.779 55.2998 129.785L55.3793 127.03C44.5971 126.711 31.3765 127.731 29.6541 134.379C27.4141 143.013 46.3755 152.688 57.8812 157.689Z" fill="#FFEC90"/>
<path d="M149.372 185.077C145.87 185.077 142.087 184.925 138.024 184.621C124.756 183.619 109.654 180.997 94.351 177.033C79.0479 173.069 64.5739 168.029 52.4897 162.46C31.2634 152.677 20.2214 142.698 22.1949 135.079C23.9987 128.115 36.0609 124.717 56.1568 125.515L57.9212 125.581L57.1676 127.178C56.2741 129.074 55.5018 131.025 54.8554 133.018L54.5955 133.82L53.7517 133.826C47.8806 133.87 46.0688 134.899 45.9258 135.438C45.7828 135.991 46.9192 137.822 52.2445 140.796C61.6698 146.053 79.7354 152.484 99.391 157.576C118.985 162.654 137.844 165.8 148.655 165.8H148.755C154.856 165.787 156.739 164.738 156.882 164.185C157.022 163.647 155.935 161.865 150.821 158.974L150.086 158.559L150.249 157.731C150.652 155.675 150.924 153.595 151.064 151.504L151.181 149.741L152.757 150.537C170.711 159.599 179.606 168.425 177.802 175.389C176.171 181.688 165.995 185.077 149.372 185.077ZM23.3266 135.372L24.4584 135.665C22.845 141.893 33.9612 151.347 53.4684 160.34C65.4271 165.852 79.7681 170.842 94.9376 174.77C110.107 178.698 125.068 181.301 138.2 182.29C159.618 183.903 173.925 181.037 175.538 174.808C176.948 169.367 168.643 161.423 153.25 153.42C153.116 154.739 152.932 156.057 152.698 157.362C157.65 160.264 159.701 162.629 159.145 164.778C158.554 167.061 155.254 168.131 148.759 168.145H148.651C137.494 168.145 118.874 165.046 98.8044 159.846C78.6691 154.629 60.838 148.273 51.1034 142.843C45.4334 139.678 43.0691 137.14 43.6603 134.857C44.2169 132.711 47.1584 131.64 52.8946 131.507C53.3228 130.254 53.8018 129.012 54.3256 127.795C36.9836 127.314 25.8654 130.227 24.4564 135.668L23.3266 135.372Z" fill="#371A45"/>
<g opacity="0.6">
<path d="M51.6919 141.991C52.7653 142.591 53.9496 143.206 55.2447 143.837C55.4833 142.448 55.7792 141.054 56.14 139.666C56.1974 139.45 56.2556 139.236 56.3137 139.023C56.5261 138.236 56.7575 137.46 57.0078 136.695C57.6694 134.654 58.4598 132.656 59.3742 130.715C59.4824 130.485 59.5946 130.256 59.7082 130.028C61.0855 127.218 62.724 124.544 64.6019 122.041C68.0467 117.446 72.2505 113.473 77.0322 110.292C88.5847 102.597 103.24 99.6657 117.734 103.422C127.052 105.821 135.487 110.843 142.038 117.892C135.183 108.849 125.472 102.389 114.483 99.5601C99.9901 95.8068 85.3344 98.735 73.7847 106.429C69.002 109.612 64.7971 113.587 61.351 118.183C59.4745 120.685 57.837 123.358 56.46 126.166C56.3444 126.395 56.2355 126.625 56.1259 126.857C55.2102 128.796 54.4196 130.793 53.7589 132.833C53.5091 133.601 53.2777 134.377 53.0648 135.161C53.004 135.375 52.9459 135.588 52.8924 135.808C52.365 137.842 51.9641 139.907 51.6919 141.991Z" fill="white"/>
</g>
<path d="M148.65 168.142C137.493 168.142 118.874 165.043 98.8042 159.843C78.6689 154.626 60.8379 148.27 51.1033 142.841L50.4111 142.454L50.5133 141.669C50.7919 139.536 51.2022 137.422 51.7419 135.339C52.0092 134.315 52.3058 133.292 52.6292 132.298C53.3063 130.211 54.1151 128.168 55.051 126.183C65.6267 103.778 90.7365 92.0337 114.759 98.2576C138.781 104.481 155.029 126.942 153.394 151.663C153.249 153.854 152.964 156.033 152.541 158.187C152.341 159.211 152.106 160.251 151.841 161.274C151.302 163.357 150.634 165.404 149.842 167.405L149.55 168.14H148.757L148.65 168.142ZM52.9432 141.182C62.5448 146.367 80.2102 152.607 99.3908 157.58C118.571 162.553 137.046 165.67 147.96 165.797C148.592 164.123 149.134 162.417 149.582 160.685C149.836 159.708 150.061 158.716 150.25 157.735C150.654 155.678 150.926 153.598 151.066 151.506C152.625 127.904 137.111 106.461 114.176 100.518C91.2409 94.5758 67.2648 105.791 57.1674 127.181C56.2738 129.077 55.5015 131.028 54.8552 133.021C54.5459 133.971 54.2606 134.948 54.0074 135.926C53.5587 137.658 53.2035 139.412 52.9432 141.182Z" fill="#371A45"/>
<path d="M136.258 108.337C131.692 110.565 123.23 111.901 123.23 111.901L110.179 69.1435L104.257 59.3361L111.983 52.809C111.983 52.809 119.783 51.2557 124.633 51.3392H124.64C126.09 51.3659 127.272 51.5363 127.907 51.9405C130.446 53.5539 134.818 65.3522 140.186 82.0642C140.654 83.5106 141.122 84.9971 141.603 86.5136C147.615 105.557 140.824 106.112 136.258 108.337Z" fill="white"/>
<g opacity="0.3">
<path d="M136.258 108.336C131.692 110.564 123.23 111.9 123.23 111.9L110.179 69.1426L104.257 59.3351L111.983 52.808C111.983 52.808 119.783 51.2547 124.633 51.3382C124.283 51.415 118.096 52.9216 122.479 60.9586C126.992 69.2261 131.334 79.8352 132.002 83.8838C132.67 87.9323 133.505 94.1956 134.591 97.0349C135.677 99.8743 142.023 98.8722 140.27 84.2579C140.178 83.5301 140.152 82.7957 140.19 82.0632C140.657 83.5096 141.125 84.9961 141.606 86.5127C147.615 105.556 140.824 106.111 136.258 108.336Z" fill="#371A45"/>
</g>
<path d="M123.229 112.905C123.015 112.905 122.806 112.836 122.633 112.709C122.461 112.581 122.334 112.401 122.271 112.196L109.258 69.5577L103.398 59.8578C103.33 59.7451 103.285 59.6202 103.265 59.4901C103.245 59.3599 103.251 59.2272 103.283 59.0994C103.314 58.9716 103.37 58.8513 103.448 58.7452C103.527 58.6392 103.625 58.5496 103.737 58.4816C103.85 58.4135 103.975 58.3682 104.105 58.3485C104.235 58.3287 104.368 58.3347 104.496 58.3662C104.623 58.3977 104.744 58.4541 104.85 58.5321C104.956 58.6102 105.045 58.7083 105.114 58.8209L111.038 68.6277C111.081 68.6985 111.114 68.7744 111.138 68.8535L123.931 110.766C126.172 110.365 132.276 109.168 135.818 107.439C136.29 107.209 136.785 106.996 137.264 106.789C141.457 104.985 145.793 103.115 140.647 86.8182C138.148 78.9001 130.537 54.8018 127.369 52.7848C125.702 51.7246 117.481 52.7354 112.18 53.7916C112.051 53.8173 111.918 53.8174 111.789 53.7917C111.66 53.7661 111.537 53.7152 111.427 53.6421C111.318 53.569 111.224 53.475 111.151 53.3656C111.078 53.2562 111.027 53.1334 111.001 53.0043C110.975 52.8752 110.975 52.7423 111.001 52.6132C111.027 52.4841 111.077 52.3613 111.151 52.2518C111.224 52.1424 111.318 52.0484 111.427 51.9752C111.536 51.9021 111.659 51.8512 111.788 51.8255C114.052 51.3745 125.499 49.22 128.444 51.0906C131.133 52.8049 135.221 62.9784 142.557 86.2109C145.081 94.2025 145.617 99.5993 144.242 103.195C142.972 106.507 140.363 107.634 138.057 108.627C137.579 108.833 137.127 109.028 136.697 109.238C132.05 111.504 123.736 112.835 123.386 112.89C123.334 112.899 123.282 112.904 123.229 112.905Z" fill="#371A45"/>
<path d="M49.6576 74.8213L44.3129 65.7188L40.6385 66.3033L33.0391 81.5022L39.3023 91.0223L47.3975 89.4356L51.8322 77.2431" fill="white"/>
<path d="M39.3026 92.0248C39.1366 92.0247 38.9732 91.9834 38.8271 91.9046C38.681 91.8258 38.5567 91.7119 38.4655 91.5731L32.2023 82.053C32.1052 81.9059 32.0487 81.7358 32.0383 81.5598C32.028 81.3839 32.0643 81.2083 32.1435 81.0509L39.7402 65.8554C39.811 65.7133 39.9146 65.5901 40.0424 65.4959C40.1701 65.4017 40.3185 65.3392 40.4751 65.3136L44.1496 64.729C44.3486 64.6977 44.5526 64.7269 44.7348 64.813C44.9171 64.899 45.0693 65.0378 45.1717 65.2114L50.5164 74.314C50.5834 74.4275 50.6274 74.5531 50.6459 74.6836C50.6643 74.8142 50.6568 74.9471 50.6238 75.0747C50.5908 75.2023 50.5329 75.3222 50.4535 75.4274C50.3741 75.5327 50.2747 75.6212 50.161 75.6879C50.0473 75.7547 49.9216 75.7984 49.791 75.8164C49.6604 75.8345 49.5275 75.8266 49.4 75.7933C49.2725 75.7599 49.1527 75.7017 49.0477 75.622C48.9427 75.5423 48.8545 75.4426 48.788 75.3288L43.7955 66.8161L41.3049 67.2123L34.1951 81.4344L39.7716 89.9096L46.6528 88.5614L50.8945 76.9008C50.9854 76.6509 51.1718 76.4474 51.4127 76.3351C51.6537 76.2227 51.9294 76.2106 52.1792 76.3015C52.429 76.3924 52.6325 76.5788 52.7449 76.8197C52.8573 77.0607 52.8694 77.3364 52.7785 77.5862L48.3431 89.7787C48.284 89.941 48.1841 90.0852 48.0528 90.1975C47.9216 90.3097 47.7636 90.3862 47.5942 90.4194L39.4997 92.0061C39.4348 92.0188 39.3688 92.0251 39.3026 92.0248Z" fill="#371A45"/>
<path d="M130.078 109.232C125.235 130.944 98.9789 123.094 98.9789 123.094C98.9789 123.094 90.05 130.276 83.7033 131.833C81.7224 132.317 78.9198 131.536 75.997 130.229C69.5533 127.35 62.5385 121.925 62.5385 121.925C62.5385 121.925 58.6736 117.005 60.5008 113.157L47.4031 82.8424C47.4031 82.8424 47.1526 78.5834 49.9919 76.3286L49.6579 74.8255L66.8676 75.41C66.8676 75.41 73.5251 66.2206 80.7136 64.1362C84.2077 63.124 91.0021 61.2868 97.0549 59.6734C103.455 57.9664 109.034 56.5 109.034 56.5C109.034 56.5 115.714 56.4532 119.973 62.8C124.232 69.1468 134.922 87.519 130.078 109.232Z" fill="white"/>
<g opacity="0.3">
<path d="M130.078 109.231C125.235 130.943 98.979 123.093 98.979 123.093C98.979 123.093 90.0501 130.275 83.7033 131.832C81.7224 132.316 78.9198 131.535 75.997 130.228C73.7088 127.573 72.376 125.552 72.376 125.552C72.376 125.552 78.2751 126.574 87.5982 121.583C96.9213 116.593 96.7309 113.677 102.71 114.792C108.69 115.908 120.334 117.582 124.566 105.89C128.799 94.1988 125.235 77.8309 119.973 68.588C114.712 59.3451 96.2031 67.5591 96.2031 67.5591L97.0549 59.6724C103.455 57.9655 109.034 56.499 109.034 56.499C109.034 56.499 115.714 56.4523 119.973 62.799C124.232 69.1458 134.922 87.518 130.078 109.231Z" fill="#371A45"/>
</g>
<path d="M82.4185 132.975C75.4037 132.975 63.3695 123.832 61.9251 122.714C61.8597 122.664 61.8009 122.606 61.7501 122.541C61.5824 122.327 57.7884 117.421 59.4118 113.156L46.4831 83.2362C46.4368 83.1288 46.4097 83.0142 46.4029 82.8975C46.3916 82.7124 46.1831 78.5676 48.8849 75.9635L48.6798 75.0388C48.6471 74.8895 48.6489 74.7347 48.6853 74.5863C48.7216 74.4378 48.7914 74.2996 48.8893 74.1823C48.9872 74.0649 49.1107 73.9716 49.2503 73.9093C49.3899 73.847 49.5418 73.8175 49.6946 73.8229L66.3812 74.3895C67.831 72.4948 73.831 65.0911 80.4383 63.1724C87.5561 61.1027 108.568 55.5843 108.779 55.5269C108.86 55.5057 108.943 55.4947 109.027 55.4941C109.316 55.4941 116.299 55.5215 120.806 62.2377C125.495 69.2259 135.882 87.8152 131.056 109.446C129.735 115.368 126.75 119.727 122.183 122.407C113.446 127.531 101.796 124.879 99.2007 124.193C97.3481 125.637 89.7253 131.385 83.9424 132.806C83.443 132.923 82.9314 132.98 82.4185 132.975ZM63.2566 121.211C67.3653 124.371 78.6893 132.033 83.4634 130.859C89.5182 129.371 98.262 122.38 98.3496 122.308C98.4761 122.206 98.6255 122.136 98.7848 122.105C98.9441 122.074 99.1086 122.082 99.2642 122.129C99.3931 122.167 112.256 125.907 121.177 120.671C125.241 118.285 127.907 114.361 129.101 109.007C133.758 88.1346 123.69 70.1251 119.142 63.3528C115.503 57.928 110.048 57.5271 109.156 57.4984C107.345 57.9747 87.7946 63.1189 80.9962 65.0925C74.2131 67.064 67.7428 75.9053 67.6786 75.9942C67.5829 76.1277 67.4555 76.2354 67.3079 76.3076C67.1603 76.3798 66.997 76.4142 66.8329 76.4077L50.9165 75.8673L50.9699 76.1071C51.0108 76.2906 50.9991 76.4819 50.9364 76.6591C50.8737 76.8363 50.7624 76.9923 50.6152 77.1092C48.5141 78.7794 48.3972 81.878 48.4005 82.6196L61.4207 112.755C61.4774 112.886 61.5054 113.028 61.5029 113.171C61.5003 113.314 61.4673 113.454 61.406 113.583C59.993 116.559 62.7756 120.555 63.2566 121.211Z" fill="#371A45"/>
<path d="M78.6926 111.903L75.1585 112.147L60.5008 113.156L51.8324 113.757L50.7368 111.903L35.1538 85.6211L37.1581 82.7283C37.1581 82.7283 47.4064 80.6105 63.2132 78.8301C63.2266 78.8535 63.2433 78.8768 63.2566 78.8969C69.9508 89.2855 75.1852 100.249 78.6926 111.903Z" fill="#4788ED"/>
<path d="M78.6926 111.904L75.1585 112.148C72.6265 102.37 61.062 81.9506 61.062 81.9506L35.1538 85.625L37.1581 82.7322C37.1581 82.7322 47.4064 80.6144 63.2132 78.834C69.9274 89.236 75.1785 100.223 78.6926 111.904Z" fill="white"/>
<g opacity="0.3">
<path d="M78.6927 111.904L75.1585 112.147L60.5008 113.156L51.8325 113.758L50.7368 111.904C66.096 111.469 68.3307 100.924 62.1376 83.8843L61.4328 81.9468L63.26 78.9004C69.9508 89.2857 75.1852 100.249 78.6927 111.904Z" fill="#371A45"/>
</g>
<path d="M75.1577 112.979C74.9727 112.979 74.793 112.917 74.6468 112.804C74.5006 112.69 74.3962 112.531 74.35 112.352C72.0926 103.632 62.386 86.0299 60.6116 82.8545L35.2713 86.4494C35.162 86.4665 35.0504 86.4616 34.943 86.4351C34.8355 86.4087 34.7345 86.3611 34.6456 86.2953C34.5567 86.2294 34.4818 86.1466 34.4252 86.0515C34.3686 85.9564 34.3314 85.8511 34.3159 85.7415C34.3004 85.632 34.3067 85.5205 34.3347 85.4134C34.3626 85.3064 34.4115 85.206 34.4786 85.118C34.5457 85.03 34.6296 84.9562 34.7254 84.9009C34.8212 84.8457 34.9271 84.81 35.0368 84.7959L60.943 81.1215C61.1091 81.0981 61.2784 81.1251 61.429 81.1991C61.5796 81.273 61.7045 81.3906 61.7874 81.5364C62.2618 82.3741 73.4374 102.163 75.9668 111.934C75.9942 112.04 76.0004 112.151 75.985 112.26C75.9696 112.368 75.9329 112.473 75.8771 112.567C75.8212 112.662 75.7473 112.745 75.6595 112.81C75.5717 112.876 75.4718 112.924 75.3655 112.952C75.2977 112.97 75.2279 112.979 75.1577 112.979Z" fill="#371A45"/>
<path d="M61.06 82.7831C60.9077 82.783 60.7583 82.7412 60.628 82.6623C60.4978 82.5834 60.3916 82.4704 60.3209 82.3354C60.2502 82.2005 60.2178 82.0489 60.2272 81.8968C60.2365 81.7448 60.2872 81.5983 60.3738 81.473L62.5297 78.3551C62.5915 78.2635 62.6709 78.1852 62.7632 78.1245C62.8555 78.0639 62.9589 78.0221 63.0675 78.0017C63.176 77.9813 63.2875 77.9826 63.3956 78.0056C63.5036 78.0286 63.606 78.0727 63.6969 78.1356C63.7877 78.1984 63.8652 78.2786 63.9248 78.3716C63.9844 78.4646 64.025 78.5685 64.0442 78.6772C64.0634 78.786 64.0608 78.8975 64.0367 79.0053C64.0125 79.113 63.9671 79.215 63.9033 79.3051L61.7474 82.423C61.6704 82.5341 61.5677 82.6249 61.448 82.6876C61.3282 82.7503 61.1951 82.7831 61.06 82.7831Z" fill="#371A45"/>
<path d="M51.8325 114.753C51.6586 114.753 51.4876 114.707 51.3365 114.621C51.1854 114.535 51.0593 114.411 50.9706 114.262L34.292 86.1355C34.1942 85.9705 34.1457 85.7809 34.1525 85.5891C34.1592 85.3974 34.2209 85.2116 34.3301 85.0539L36.3343 82.1611C36.481 81.9494 36.7034 81.8023 36.9556 81.7503C37.0585 81.7289 47.4298 79.6024 63.1043 77.8373C63.2898 77.8165 63.4773 77.8479 63.6459 77.9279C63.8144 78.0079 63.9573 78.1334 64.0584 78.2903C70.9823 89.025 76.2288 100.237 79.652 111.615C79.6954 111.759 79.7058 111.911 79.6824 112.06C79.659 112.208 79.6024 112.35 79.5169 112.473C79.4314 112.597 79.319 112.7 79.1882 112.775C79.0575 112.849 78.9116 112.893 78.7615 112.904L51.8993 114.751C51.8786 114.752 51.8552 114.753 51.8325 114.753ZM36.3437 85.6632L52.3776 112.708L77.3638 110.987C74.0488 100.386 69.1231 89.9349 62.7095 79.8963C49.1642 81.4429 39.7395 83.2367 37.7507 83.6316L36.3437 85.6632Z" fill="#371A45"/>
<path d="M109.598 101.665C109.598 101.665 110.648 96.9796 109.928 89.0268C109.208 81.0739 104.636 81.6111 98.9776 81.277C93.3196 80.943 78.5804 80.0518 75.8499 81.277C73.1195 82.5023 70.8975 86.8502 70.8975 86.8502C70.8975 86.8502 71.3143 94.8671 73.8898 102.216L75.1077 104.755C75.3365 105.232 75.6959 105.634 76.1442 105.916C76.5925 106.197 77.1112 106.345 77.6404 106.343C80.3775 106.337 83.109 106.093 85.8037 105.613" fill="white"/>
<path d="M77.6334 107.346C76.9169 107.344 76.2153 107.141 75.6088 106.759C75.0023 106.378 74.5154 105.833 74.2035 105.188L72.9856 102.646C72.9695 102.613 72.9555 102.579 72.9435 102.544C70.3507 95.1444 69.9138 87.2323 69.8964 86.899C69.8871 86.7229 69.9245 86.5476 70.0046 86.3906C70.1022 86.2002 72.4224 81.7187 75.4395 80.3652C78.0089 79.2127 88.6868 79.6677 98.7922 80.2649L99.0361 80.279C99.5225 80.3077 100.001 80.3297 100.469 80.3518C105.468 80.5836 110.19 80.8027 110.926 88.9366C111.651 96.9536 110.62 101.687 110.576 101.884L108.62 101.446L109.598 101.665L108.62 101.447C108.63 101.402 109.622 96.7899 108.93 89.117C108.351 82.7241 105.349 82.5845 100.378 82.354C99.9013 82.332 99.4149 82.3093 98.9198 82.2799L98.676 82.2652C93.7429 81.9739 78.7298 81.0867 76.2619 82.1937C74.418 83.0208 72.6128 85.7946 71.9194 87.066C72.0202 88.5124 72.6028 95.4684 74.8215 101.831L76.016 104.323C76.1634 104.628 76.3937 104.886 76.6805 105.066C76.9674 105.246 77.2993 105.342 77.6381 105.343H77.6421C80.3197 105.338 82.9917 105.099 85.6277 104.629L85.9878 106.6C83.2345 107.091 80.4436 107.341 77.6468 107.347L77.6334 107.346Z" fill="#371A45"/>
<path d="M77.9542 111.221C79.2725 109.84 80.6601 108.527 82.1116 107.286C83.5551 106.041 85.0638 104.873 86.6312 103.787C88.2065 102.705 89.8547 101.709 91.6057 100.875C93.3568 100.042 95.2134 99.3714 97.1935 99.0534C98.1944 98.8857 99.2106 98.8281 100.224 98.8817C101.195 98.9485 102.14 99.0407 103.089 99.163C104.988 99.4011 106.864 99.7889 108.701 100.323C110.536 100.865 112.336 101.561 114.031 102.472C114.88 102.921 115.695 103.432 116.47 103.999C117.247 104.558 117.968 105.191 118.622 105.889C115.191 104.272 111.722 103.217 108.157 102.376C106.379 101.96 104.586 101.6 102.778 101.297C101.877 101.149 100.964 101.02 100.07 100.935C99.2157 100.863 98.3554 100.896 97.5089 101.034C95.7892 101.308 94.093 101.915 92.4669 102.686C90.8408 103.456 89.2748 104.403 87.7689 105.438C86.2601 106.483 84.8081 107.607 83.4191 108.807C82.0264 109.997 80.6943 111.256 79.4279 112.58L79.4099 112.599C79.3194 112.695 79.211 112.772 79.0908 112.826C78.9706 112.879 78.841 112.909 78.7094 112.912C78.5778 112.916 78.4469 112.894 78.3239 112.846C78.201 112.799 78.0885 112.729 77.9929 112.638C77.8973 112.548 77.8205 112.439 77.7668 112.319C77.7131 112.199 77.6837 112.069 77.6801 111.938C77.6765 111.806 77.6988 111.675 77.7458 111.552C77.7929 111.429 77.8637 111.317 77.9542 111.221Z" fill="#371A45"/>
<path d="M82.4182 132.975C75.4033 132.975 63.3692 123.832 61.9248 122.713C61.8594 122.663 61.8006 122.605 61.7498 122.54C61.5767 122.319 57.5255 117.081 59.5952 112.719C59.7092 112.479 59.9139 112.294 60.1643 112.205C60.4147 112.116 60.6903 112.13 60.9304 112.244C61.1704 112.358 61.3554 112.563 61.4446 112.813C61.5337 113.064 61.5197 113.339 61.4057 113.579C59.9927 116.555 62.7753 120.551 63.2576 121.207C67.3663 124.367 78.6903 132.03 83.4644 130.855C89.5246 129.366 98.263 122.377 98.3506 122.304C98.4771 122.202 98.6265 122.133 98.7858 122.101C98.9451 122.07 99.1096 122.078 99.2652 122.125C99.3941 122.163 112.257 125.903 121.178 120.667C125.242 118.281 127.908 114.358 129.102 109.004C133.759 88.1307 123.691 70.1213 119.143 63.3489C115.231 57.5172 109.113 57.4865 109.043 57.4925H109.036C108.77 57.4934 108.515 57.3887 108.326 57.2014C108.138 57.0141 108.031 56.7595 108.03 56.4937C108.029 56.228 108.134 55.9727 108.322 55.7842C108.509 55.5956 108.763 55.4892 109.029 55.4883C109.318 55.4883 116.301 55.5157 120.808 62.2319C125.497 69.22 135.884 87.8094 131.058 109.44C129.738 115.362 126.752 119.722 122.185 122.401C113.449 127.525 101.799 124.873 99.203 124.187C97.3505 125.631 89.7276 131.379 83.9447 132.801C83.4447 132.92 82.9322 132.978 82.4182 132.975Z" fill="#371A45"/>
<path d="M131.625 87.776C131.643 88.0985 131.563 88.419 131.397 88.6956C131.23 88.9722 130.983 89.1919 130.689 89.326C129.042 90.0909 125.328 91.6709 119.693 93.2944C115.74 94.4219 111.732 95.344 107.684 96.0569C107.272 96.1301 106.848 96.0418 106.5 95.8103C106.151 95.5789 105.905 95.2222 105.813 94.8142C105.573 93.7386 105.459 92.0751 106.06 89.8404C106.136 89.5507 106.29 89.2876 106.506 89.0801C106.722 88.8726 106.991 88.7288 107.283 88.6646C109.648 88.1468 116.302 86.4933 124.112 82.7654C125.438 82.1341 126.801 81.4393 128.181 80.681C128.39 80.564 128.623 80.495 128.862 80.4791C129.101 80.4632 129.341 80.5008 129.564 80.5891C129.787 80.6773 129.987 80.8141 130.151 80.9895C130.314 81.1648 130.436 81.3744 130.509 81.603C131.129 83.6079 131.504 85.6808 131.625 87.776Z" fill="white"/>
<path d="M107.392 97.0831C106.796 97.0829 106.218 96.8798 105.754 96.5074C105.289 96.1349 104.965 95.6153 104.835 95.0341C104.584 93.9191 104.425 92.0678 105.092 89.5799C105.215 89.1125 105.465 88.6881 105.813 88.3536C106.162 88.019 106.596 87.7873 107.068 87.6839C109.513 87.1494 118.225 85.0116 127.698 79.8005C128.04 79.6121 128.42 79.5023 128.81 79.4792C129.2 79.4561 129.591 79.5202 129.953 79.6669C130.311 79.8103 130.633 80.0318 130.895 80.3151C131.157 80.5985 131.352 80.9367 131.467 81.305C132.11 83.3885 132.499 85.5419 132.626 87.7186C132.657 88.2421 132.528 88.7626 132.258 89.2117C131.987 89.6608 131.587 90.0175 131.109 90.2346C128.291 91.5387 120.385 94.8123 107.86 97.0424C107.706 97.0698 107.549 97.0834 107.392 97.0831ZM128.971 81.4787C128.864 81.479 128.759 81.5061 128.665 81.5576C119.221 86.7486 110.715 88.9405 107.497 89.6414C107.384 89.667 107.281 89.7233 107.198 89.8039C107.116 89.8846 107.057 89.9865 107.029 90.0983C106.468 92.1914 106.589 93.6979 106.791 94.5932C106.826 94.7495 106.92 94.8861 107.054 94.9747C107.187 95.0632 107.35 95.0967 107.507 95.0682C119.8 92.8789 127.52 89.6861 130.268 88.4148C130.378 88.3643 130.471 88.2819 130.535 88.1783C130.599 88.0747 130.63 87.9544 130.625 87.8329C130.509 85.8197 130.15 83.828 129.556 81.901C129.53 81.8158 129.485 81.7377 129.424 81.6723C129.364 81.607 129.289 81.5561 129.207 81.5235C129.131 81.4935 129.051 81.4783 128.969 81.4787H128.971Z" fill="#371A45"/>
<path d="M98.9775 64.1357C98.9775 64.1357 95.2029 72.136 90.9719 78.1915C89.8961 79.7222 88.3894 80.8984 86.6434 81.5706C83.2489 82.8894 77.4239 85.0594 75.1584 85.3473C71.8715 85.7649 71.0364 83.009 68.364 84.0947C65.6917 85.1803 68.99 88.8126 68.99 88.8126C68.99 88.8126 67.3198 90.692 64.6475 91.986C61.9752 93.2801 60.7646 99.1231 67.696 102.297C74.6273 105.47 89.9096 102.297 94.1687 100.125C98.4277 97.954 110.648 92.3034 115.436 80.2779" fill="white"/>
<path d="M99.8835 64.5598C98.1712 68.1046 96.328 71.5426 94.2917 74.9077C93.7812 75.7472 93.2552 76.579 92.7136 77.403C92.4464 77.8152 92.1598 78.2207 91.8839 78.6295C91.5837 79.0714 91.2503 79.4898 90.8864 79.8809C90.1518 80.6684 89.2992 81.3369 88.3591 81.8624C87.8936 82.1225 87.4098 82.3483 86.9114 82.5378L85.5445 83.0629C83.7193 83.7571 81.8847 84.4298 80.0214 85.0545C79.0861 85.3651 78.1508 85.6638 77.1788 85.9277C76.6924 86.0613 76.2014 86.1815 75.6696 86.2764L75.2607 86.3399L74.8291 86.3719C74.5445 86.4053 74.2452 86.3719 73.9533 86.3633C73.3715 86.2998 72.8013 86.1559 72.259 85.9357C71.7379 85.7212 71.2829 85.4634 70.8781 85.2583C70.4732 85.0531 70.1258 84.9068 69.8198 84.8634C69.4981 84.8157 69.1693 84.8558 68.8685 84.9797C68.5164 85.0932 68.3875 85.2268 68.3568 85.3137C68.306 85.4019 68.3026 85.6878 68.4236 86.0312C68.65 86.7153 69.1952 87.5164 69.7343 88.137L69.7537 88.1591C69.9126 88.3424 69.9991 88.5775 69.9968 88.8201C69.9946 89.0627 69.9039 89.2961 69.7417 89.4765C69.4469 89.7941 69.136 90.0965 68.8104 90.3824C68.4955 90.6603 68.1724 90.9276 67.841 91.1841C67.172 91.6917 66.4659 92.1484 65.7285 92.5503C65.5461 92.6552 65.3544 92.7448 65.1673 92.8423C65.0551 92.8971 65.0297 92.9171 64.9669 92.9505C64.9094 92.9832 64.8537 93.0189 64.7999 93.0574C64.5699 93.2255 64.369 93.4302 64.2053 93.6634C63.8516 94.1732 63.6322 94.7639 63.5673 95.381C63.4136 96.6463 63.8966 97.9545 64.7792 98.9886C65.659 100.035 66.9023 100.841 68.2338 101.434C69.5339 102.003 71.0184 102.296 72.5149 102.469C74.0359 102.621 75.5657 102.669 77.0932 102.61C80.1718 102.5 83.2616 102.091 86.2974 101.47C87.8139 101.156 89.3225 100.79 90.7876 100.34C91.5225 100.114 92.244 99.8718 92.9288 99.5872C93.0945 99.5138 93.2708 99.4463 93.4285 99.3681C93.5862 99.2899 93.7458 99.2171 93.9289 99.1229L94.9845 98.5885C96.3794 97.8776 97.7557 97.1594 99.0865 96.3664C99.4205 96.176 99.7545 95.9716 100.081 95.7651C100.407 95.5587 100.741 95.3643 101.063 95.1492C101.695 94.7056 102.35 94.294 102.959 93.8217L103.879 93.1236C104.182 92.8864 104.471 92.6325 104.771 92.3887C105.07 92.1448 105.372 91.9103 105.658 91.6538C105.944 91.3972 106.233 91.1474 106.526 90.9009C107.123 90.4165 107.662 89.874 108.243 89.3703C108.538 89.1224 108.8 88.8438 109.072 88.5733L109.886 87.7569C112.052 85.5152 113.917 83.001 115.434 80.2777C114.655 83.3656 113.14 86.2904 111.189 88.8712L110.428 89.8179C110.173 90.1326 109.926 90.4566 109.646 90.7485C109.366 91.0405 109.096 91.3425 108.818 91.6391C108.678 91.7847 108.543 91.9377 108.398 92.0787L107.951 92.4896C107.365 93.047 106.749 93.5726 106.106 94.0642C105.788 94.3121 105.469 94.5619 105.145 94.7991L104.155 95.4932C101.52 97.3445 98.727 98.9519 95.8884 100.376L94.8348 100.911C94.6678 100.997 94.4707 101.092 94.2736 101.185C94.0765 101.279 93.8861 101.355 93.6917 101.441C92.9187 101.759 92.1484 102.018 91.3741 102.256C89.8269 102.732 88.2682 103.109 86.6976 103.435C83.5576 104.075 80.3789 104.499 77.156 104.615C75.533 104.676 73.9077 104.625 72.2917 104.462C70.665 104.272 69.0182 103.963 67.4214 103.269C65.8849 102.582 64.401 101.649 63.2399 100.278C62.6479 99.5829 62.1883 98.7852 61.8837 97.9244C61.736 97.4823 61.6321 97.0267 61.5737 96.5642C61.5229 96.0966 61.5229 95.6248 61.5737 95.1572C61.6766 94.1993 62.0215 93.2834 62.5758 92.4956C62.8673 92.0834 63.2249 91.7223 63.6341 91.4266C63.7404 91.3502 63.8505 91.2793 63.9641 91.2142L64.2828 91.0438C64.4451 90.959 64.6108 90.8822 64.7698 90.7906C65.4163 90.4367 66.0354 90.0347 66.6217 89.5881C66.9148 89.3654 67.1996 89.1309 67.4762 88.8846C67.7435 88.6467 68.0307 88.3722 68.2405 88.145L68.2479 89.4845C67.8895 89.0775 67.5629 88.6435 67.2711 88.1864C66.9574 87.71 66.7042 87.1963 66.5175 86.6572C66.4114 86.3442 66.3463 86.0189 66.3238 85.6892C66.2961 85.2913 66.3613 84.8924 66.5142 84.524C66.6805 84.1395 66.9464 83.8062 67.2845 83.5586C67.4306 83.4482 67.5872 83.3524 67.7521 83.2727L67.9866 83.1645L68.2044 83.0897C68.8135 82.8578 69.4719 82.7864 70.1165 82.8826C70.7745 82.9814 71.3284 83.2413 71.7867 83.4725C72.245 83.7036 72.6405 83.9281 73.02 84.0824C73.3794 84.2277 73.7566 84.3243 74.1417 84.3697C74.3347 84.3697 74.5211 84.4004 74.7209 84.3697L75.0162 84.349L75.3275 84.3002C75.7524 84.2247 76.2054 84.1138 76.657 83.9916C77.5629 83.745 78.4768 83.4571 79.3874 83.1525C81.2093 82.5412 83.0245 81.8758 84.833 81.189L86.1872 80.6679C86.5976 80.5122 86.9962 80.3269 87.3797 80.1134C88.5253 79.473 89.5045 78.5725 90.2384 77.4845C90.5056 77.0883 90.7795 76.6981 91.0401 76.2973C91.5665 75.4956 92.0787 74.6848 92.5767 73.8648C94.5656 70.5798 96.3994 67.1573 98.0683 63.7033L98.0763 63.6866C98.1964 63.4549 98.4021 63.2792 98.6497 63.1968C98.8973 63.1144 99.1672 63.1318 99.4022 63.2454C99.6371 63.3589 99.8185 63.5597 99.9078 63.8049C99.997 64.0501 99.9871 64.3204 99.8801 64.5584L99.8835 64.5598Z" fill="#371A45"/>
<path d="M94.6257 100.729C94.576 100.729 94.5263 100.725 94.4774 100.716C94.3694 100.696 94.2663 100.656 94.1739 100.597C94.0815 100.538 94.0017 100.461 93.939 100.371C93.8763 100.281 93.832 100.179 93.8086 100.072C93.7852 99.9651 93.7832 99.8543 93.8026 99.7464C95.7214 89.0571 88.2916 81.0287 88.2162 80.9492C88.0642 80.788 87.9826 80.573 87.9891 80.3516C87.9957 80.1301 88.09 79.9203 88.2512 79.7684C88.4125 79.6165 88.6275 79.5348 88.8489 79.5414C89.0704 79.548 89.2801 79.6422 89.4321 79.8035C89.7661 80.1542 97.5158 88.5333 95.4448 100.042C95.4104 100.234 95.3095 100.408 95.1598 100.534C95.0102 100.659 94.8211 100.729 94.6257 100.729Z" fill="#371A45"/>
<path d="M119.977 35.0741C119.977 53.8906 104.721 69.1462 85.9047 69.1462C80.8402 69.1536 75.8384 68.0258 71.267 65.8459C59.776 60.3709 51.8326 48.6495 51.8326 35.0741C51.8263 30.611 52.7015 26.1905 54.408 22.0665C59.5155 9.70036 71.6913 1.00195 85.9047 1.00195C104.718 1.00195 119.977 16.2542 119.977 35.0741Z" fill="white"/>
<g opacity="0.3">
<path d="M119.976 35.0742C119.976 53.8907 104.721 69.1463 85.9044 69.1463C82.2533 69.1498 78.6256 68.5632 75.1616 67.4093C76.4855 67.5639 77.8172 67.6409 79.1501 67.6398C97.9666 67.6398 113.222 52.3842 113.222 33.5677C113.222 18.5192 103.462 5.7488 89.9295 1.23926C106.845 3.23014 119.976 17.6173 119.976 35.0742Z" fill="#371A45"/>
</g>
<path d="M65.999 61.35C65.4211 61.5437 64.6995 61.821 63.8611 62.0014C61.5829 62.4891 58.4162 62.2385 54.7785 57.5252C54.351 56.9743 53.9167 56.3574 53.4758 55.6746C47.904 47.033 52.614 42.3564 52.614 42.3564L56.3118 42.8675C56.3118 42.8675 62.6585 47.4339 64.0114 49.0005C65.3643 50.5672 68.3372 60.5683 65.999 61.35Z" fill="white"/>
<path d="M62.2882 63.1732C59.658 63.1732 56.2575 61.8458 52.6284 56.2132C46.6905 46.9937 51.6931 41.8554 51.9069 41.6417C52.0959 41.4591 52.349 41.3581 52.6118 41.3604C52.8746 41.3627 53.1259 41.4681 53.3117 41.6539C53.4975 41.8397 53.6029 42.091 53.6052 42.3538C53.6075 42.6165 53.5065 42.8697 53.3239 43.0587C53.1475 43.2397 49.3001 47.3457 54.3133 55.1275C59.1649 62.6568 62.9984 61.3273 65.2866 60.5336C65.4122 60.4896 65.5331 60.4475 65.648 60.4094C65.8832 60.1234 66.0949 58.5341 65.3046 55.2284C64.6232 52.3777 63.6571 50.1229 63.2516 49.6519C62.2054 48.4407 57.464 44.9293 55.725 43.6786C55.5128 43.5221 55.3708 43.2882 55.3299 43.0277C55.289 42.7671 55.3524 42.501 55.5065 42.2869C55.6605 42.0729 55.8927 41.9281 56.1527 41.8841C56.4127 41.8401 56.6796 41.9004 56.8955 42.0519C57.5549 42.5262 63.3759 46.7324 64.7688 48.3418C66.121 49.9058 68.5388 57.5821 67.689 60.6733C67.3964 61.7362 66.7797 62.1431 66.3147 62.2994C66.1965 62.3388 66.0729 62.3822 65.9433 62.427C65.0447 62.7383 63.7907 63.1732 62.2882 63.1732Z" fill="#371A45"/>
<path d="M109.598 40.2656C106.054 62.5461 86.2788 69.6444 71.267 65.8464C59.776 60.3715 51.8326 48.65 51.8326 35.0746C51.8263 30.6115 52.7015 26.1911 54.408 22.0671C67.9533 3.67481 98.1773 11.4713 104.257 23.6504L109.598 40.2656Z" fill="#371A45"/>
<g opacity="0.35">
<path d="M109.598 40.2647C106.054 62.5452 86.2785 69.6435 71.2667 65.8455C65.7619 63.2185 61.059 59.1683 57.6445 54.114C58.5767 54.6752 59.5365 55.1907 60.524 55.6606C65.0935 57.8384 70.0929 58.965 75.1549 58.9576C90.5676 58.9576 103.595 48.7192 107.797 34.6729L109.598 40.2647Z" fill="#111A28"/>
</g>
<path d="M79.1569 67.3203C76.4557 67.323 73.7647 66.9909 71.1453 66.3316C71.1135 66.3235 71.0826 66.3123 71.0531 66.2981C63.0569 62.4908 56.8256 55.7617 53.6428 47.4971C50.4599 39.2326 50.5681 30.062 53.9448 21.8748C53.9603 21.8373 53.9803 21.8019 54.0043 21.7692C59.866 13.8104 69.7002 9.80257 80.9888 10.774C91.6941 11.6952 101.446 16.8963 104.706 23.4227C104.717 23.4456 104.727 23.4693 104.734 23.4935L110.079 40.1121C110.103 40.1869 110.109 40.2663 110.097 40.3439C108.579 49.8854 103.967 57.4394 96.7601 62.1901C91.65 65.5519 85.4282 67.3203 79.1569 67.3203ZM71.4379 65.3722C79.8998 67.498 89.1547 65.9968 96.205 61.351C103.141 56.7807 107.593 49.5046 109.087 40.3038L103.794 23.8363C100.715 17.72 91.1008 12.6493 80.9059 11.7721C69.9975 10.8314 60.5047 14.6756 54.8508 22.3144C53.1816 26.361 52.3262 30.6968 52.3334 35.0741C52.3334 47.9319 59.8306 59.8204 71.4379 65.3722Z" fill="#371A45"/>
<path d="M85.9044 70.1485C80.6913 70.1621 75.542 69.0019 70.8385 66.754C64.8498 63.9049 59.7914 59.4166 56.2501 53.8094C52.7087 48.2023 50.8294 41.7061 50.8301 35.0742C50.8219 30.4804 51.7231 25.9304 53.4817 21.6866C58.9186 8.51135 71.6442 0 85.9044 0C105.245 0 120.979 15.7326 120.979 35.0742C120.979 54.4159 105.241 70.1485 85.9044 70.1485ZM85.9044 2.00424C72.4619 2.00424 60.4639 10.0292 55.337 22.4475C53.6774 26.4499 52.8269 30.7414 52.8344 35.0742C52.8344 47.7598 60.2387 59.4846 71.6976 64.9448C76.1329 67.0646 80.9886 68.1581 85.9044 68.1442C104.139 68.1442 118.974 53.3088 118.974 35.0742C118.974 16.8396 104.136 2.00424 85.9044 2.00424Z" fill="#371A45"/>
<path d="M115.777 41.1933C121.139 40.0025 124.341 33.8785 122.928 27.5149C121.515 21.1513 116.022 16.9579 110.66 18.1487C105.298 19.3394 102.096 25.4634 103.509 31.827C104.922 38.1906 110.415 42.384 115.777 41.1933Z" fill="white"/>
<g opacity="0.3">
<path d="M122.927 27.5134C124.341 33.8789 121.139 40.0065 115.778 41.1937C111.109 42.2306 106.341 39.1895 104.255 34.1789C106.446 35.807 109.106 36.5172 111.738 35.9326C117.098 34.7421 120.299 28.6178 118.886 22.2523C118.709 21.4486 118.459 20.6625 118.141 19.9033C120.428 21.5916 122.207 24.2692 122.927 27.5134Z" fill="#371A45"/>
</g>
<path d="M113.948 42.3954C108.763 42.3954 103.885 38.1383 102.531 32.0401C101.003 25.1509 104.55 18.4787 110.443 17.17C116.335 15.8612 122.375 20.4055 123.906 27.2974C125.437 34.19 121.888 40.8594 115.995 42.1709C115.323 42.3202 114.637 42.3955 113.948 42.3954ZM112.499 18.9457C111.954 18.9457 111.41 19.0055 110.878 19.1241C106.064 20.193 103.195 25.7929 104.488 31.6065C105.782 37.4202 110.745 41.2797 115.56 40.2114C120.376 39.1431 123.243 33.5426 121.95 27.729C120.803 22.5701 116.76 18.9484 112.499 18.9484V18.9457Z" fill="#371A45"/>
<path d="M116.678 39.6711C112.692 39.6711 108.806 35.8957 107.626 30.5852C106.314 24.674 108.845 19.0655 113.27 18.0827C117.694 17.1 122.361 21.1111 123.674 27.0216C124.987 32.9328 122.455 38.5413 118.03 39.5241C117.586 39.6222 117.133 39.6715 116.678 39.6711ZM114.646 19.6019C114.305 19.6017 113.965 19.6389 113.632 19.7128C110.106 20.4958 108.144 25.2105 109.257 30.2224C110.37 35.2343 114.145 38.673 117.668 37.8926C121.192 37.1123 123.157 32.395 122.044 27.3831C121.037 22.8488 117.853 19.6019 114.646 19.6019Z" fill="#371A45"/>
<path d="M106.544 21.2085C106.401 21.2088 106.261 21.1726 106.137 21.1035C106.012 21.0344 105.908 20.9346 105.833 20.8137C96.4127 5.63626 75.5018 3.63068 62.6199 11.327C62.5256 11.3864 62.4205 11.4263 62.3106 11.4445C62.2007 11.4627 62.0883 11.4586 61.98 11.4327C61.8717 11.4068 61.7696 11.3594 61.6799 11.2935C61.5901 11.2275 61.5145 11.1442 61.4574 11.0486C61.4003 10.953 61.3629 10.8469 61.3475 10.7366C61.332 10.6263 61.3387 10.514 61.3673 10.4063C61.3959 10.2987 61.4457 10.1978 61.5138 10.1097C61.582 10.0216 61.667 9.948 61.7641 9.89327C75.3114 1.80214 97.3247 3.93599 107.252 19.9359C107.331 20.0623 107.374 20.2073 107.377 20.356C107.381 20.5046 107.344 20.6515 107.272 20.7815C107.2 20.9114 107.094 21.0198 106.966 21.0953C106.838 21.1709 106.692 21.2109 106.544 21.2112V21.2085Z" fill="#371A45"/>
<path d="M88.8233 69.9779C88.6212 69.978 88.4259 69.9048 88.2737 69.7719C88.1214 69.639 88.0225 69.4553 87.9954 69.255C87.9682 69.0548 88.0146 68.8514 88.1259 68.6828C88.2373 68.5141 88.406 68.3915 88.6008 68.3378C100.124 65.1457 111.947 55.5687 112.385 41.3693C112.391 41.1479 112.486 40.9382 112.647 40.7864C112.809 40.6346 113.024 40.5531 113.245 40.56C113.467 40.5668 113.677 40.6613 113.828 40.8228C113.98 40.9842 114.062 41.1993 114.055 41.4208C113.846 48.1684 111.171 54.4891 106.316 59.6988C101.89 64.4489 95.76 68.0886 89.0478 69.9472C88.9747 69.9675 88.8992 69.9779 88.8233 69.9779Z" fill="#371A45"/>
<g opacity="0.5">
<path d="M68.4734 17.7629C55.7953 22.7655 53.0728 37.204 61.3797 48.679C61.9964 49.5301 63.3466 49.0077 63.2323 47.9628C62.0966 37.5621 63.4996 27.8208 69.674 19.3195C70.2712 18.4978 69.4181 17.3901 68.4734 17.7629Z" fill="white"/>
</g>
<g opacity="0.5">
<path d="M99.143 43.9102C100.489 43.9102 101.58 42.6381 101.58 41.0689C101.58 39.4997 100.489 38.2275 99.143 38.2275C97.7974 38.2275 96.7065 39.4997 96.7065 41.0689C96.7065 42.6381 97.7974 43.9102 99.143 43.9102Z" fill="white"/>
</g>
<g opacity="0.5">
<path d="M98.3924 48.0057C99.8815 49.9384 99.0825 52.6722 96.6427 54.5528C94.2028 56.4335 91.0475 56.7455 89.561 54.8121C88.0745 52.8786 89.7928 50.823 92.2333 48.9436C94.6738 47.0643 96.9032 46.0722 98.3924 48.0057Z" fill="white"/>
</g>
<g opacity="0.3">
<path d="M63.8579 62.0007C61.5798 62.4884 58.4131 62.2378 54.7754 57.5245C57.2707 58.1258 59.4119 56.499 59.4119 56.499L61.8771 59.4586L63.8579 62.0007Z" fill="#371A45"/>
</g>
<path d="M76.9655 116.494C65.1812 107.007 54.0837 121.337 66.5267 130.356C66.5267 130.356 78.0511 138.874 85.567 135.284C93.083 131.693 84.5683 122.172 76.9655 116.494Z" fill="white"/>
<g opacity="0.3">
<path d="M85.5704 135.287C78.0545 138.878 66.5301 130.36 66.5301 130.36C65.1438 129.358 64.0515 128.289 63.2197 127.19C66.7038 129.378 74.8042 133.727 80.5598 130.978C86.2986 128.239 82.6876 122.035 77.2761 116.728C84.7921 122.43 92.9861 131.746 85.5704 135.287Z" fill="#371A45"/>
</g>
<path d="M81.3556 137.169C74.1583 137.169 66.3318 131.459 65.9309 131.162C61.7634 128.142 59.6443 124.132 60.1246 120.169C60.3152 118.607 60.9201 117.123 61.8767 115.873C62.8334 114.622 64.1069 113.65 65.5655 113.058C69.2479 111.56 73.6265 112.523 77.5796 115.702C83.6417 120.235 89.9391 126.827 89.4581 131.749C89.3244 133.085 88.6203 134.935 85.9994 136.188C84.543 136.883 82.965 137.169 81.3556 137.169ZM69.1424 114.376C68.1756 114.371 67.2171 114.555 66.3204 114.916C63.9881 115.864 62.4161 117.919 62.1115 120.412C61.722 123.631 63.5445 126.959 67.1121 129.547C67.2103 129.619 74.8244 135.17 81.3422 135.171C82.6784 135.171 83.9618 134.939 85.1296 134.381C86.5773 133.689 87.3389 132.765 87.4578 131.554C87.8353 127.717 82.1559 121.629 76.3603 117.299L76.3316 117.277C73.9679 115.367 71.4613 114.376 69.1424 114.376Z" fill="#371A45"/>
<path d="M63.203 127.838C63.0829 127.838 62.9651 127.806 62.8619 127.744C62.7587 127.683 62.674 127.595 62.6166 127.49C62.5591 127.384 62.5312 127.265 62.5356 127.145C62.5401 127.025 62.5767 126.909 62.6418 126.808L71.2821 113.391C71.378 113.241 71.5294 113.136 71.7029 113.098C71.8765 113.061 72.0579 113.093 72.2074 113.189C72.3568 113.285 72.4621 113.436 72.4999 113.61C72.5377 113.784 72.5051 113.965 72.4091 114.114L63.7655 127.531C63.7049 127.626 63.6217 127.703 63.5234 127.757C63.4251 127.81 63.3149 127.838 63.203 127.838Z" fill="#371A45"/>
<path d="M67.7883 131.883C67.6691 131.883 67.5522 131.851 67.4495 131.79C67.3468 131.73 67.2622 131.643 67.2044 131.539C67.1467 131.435 67.1178 131.317 67.1208 131.198C67.1239 131.079 67.1587 130.963 67.2217 130.861L76.3985 116.14C76.4449 116.065 76.5056 116 76.577 115.949C76.6484 115.898 76.7292 115.862 76.8147 115.842C76.9003 115.822 76.9889 115.819 77.0756 115.833C77.1622 115.848 77.2452 115.879 77.3198 115.925C77.3944 115.972 77.4591 116.032 77.5102 116.104C77.5613 116.175 77.5979 116.256 77.6178 116.341C77.6377 116.427 77.6406 116.516 77.6263 116.602C77.6119 116.689 77.5806 116.772 77.5342 116.846L68.3561 131.568C68.296 131.665 68.2124 131.744 68.113 131.799C68.0136 131.854 67.9019 131.883 67.7883 131.883Z" fill="#371A45"/>
<path d="M73.889 135.116C73.7726 135.116 73.6582 135.086 73.5572 135.028C73.4562 134.97 73.3721 134.887 73.3131 134.787C73.2542 134.686 73.2225 134.572 73.2212 134.456C73.2199 134.339 73.2491 134.225 73.3058 134.123L81.1029 120.136C81.1896 119.981 81.3342 119.867 81.5049 119.819C81.6756 119.771 81.8584 119.793 82.0132 119.879C82.168 119.966 82.282 120.11 82.3302 120.281C82.3783 120.452 82.3567 120.635 82.2701 120.789L74.4729 134.773C74.415 134.877 74.3304 134.964 74.2277 135.024C74.125 135.085 74.0081 135.116 73.889 135.116Z" fill="#371A45"/>
<path d="M80.287 136.79C80.1734 136.789 80.0617 136.76 79.9625 136.705C79.8632 136.65 79.7797 136.57 79.7199 136.473C79.66 136.377 79.6258 136.267 79.6204 136.153C79.615 136.04 79.6386 135.927 79.6891 135.825L85.2048 124.705C85.242 124.624 85.2952 124.551 85.3613 124.491C85.4273 124.43 85.5047 124.384 85.5891 124.354C85.6734 124.324 85.7629 124.311 85.8522 124.317C85.9415 124.322 86.0288 124.345 86.1089 124.385C86.1891 124.425 86.2604 124.48 86.3187 124.548C86.3771 124.616 86.4212 124.695 86.4484 124.78C86.4757 124.865 86.4856 124.955 86.4775 125.044C86.4694 125.133 86.4435 125.22 86.4013 125.299L80.8863 136.422C80.8304 136.533 80.7447 136.626 80.6389 136.691C80.533 136.756 80.4112 136.79 80.287 136.79Z" fill="#371A45"/>
<path d="M95.6583 126.391C95.5339 126.391 95.4111 126.363 95.2989 126.309C85.4955 121.632 82.904 108.052 82.7984 107.476C82.7584 107.259 82.8065 107.034 82.9323 106.851C83.058 106.669 83.251 106.544 83.4689 106.504C83.6867 106.464 83.9115 106.512 84.0939 106.638C84.2763 106.764 84.4012 106.957 84.4412 107.174C84.466 107.308 86.9906 120.493 96.0184 124.802C96.1898 124.883 96.3283 125.02 96.4111 125.191C96.494 125.362 96.5164 125.556 96.4744 125.741C96.4325 125.926 96.3289 126.091 96.1805 126.209C96.0322 126.327 95.848 126.391 95.6583 126.391Z" fill="#371A45"/>
<path d="M98.0775 122.65L101.022 118.915L99.8773 123.528C99.8477 123.662 99.7917 123.788 99.7126 123.9C99.6334 124.011 99.5327 124.106 99.4165 124.178C99.3002 124.25 99.1706 124.298 99.0355 124.319C98.9003 124.341 98.7623 124.335 98.6295 124.302C98.4967 124.269 98.3718 124.21 98.2622 124.128C98.1526 124.046 98.0605 123.943 97.9913 123.825C97.9222 123.707 97.8773 123.576 97.8594 123.441C97.8415 123.305 97.8509 123.167 97.8871 123.035C97.9233 122.895 97.9881 122.764 98.0775 122.65Z" fill="#371A45"/>
<path d="M103.538 99.9002L101.868 99.8882C101.884 97.767 101.868 95.2971 101.868 95.2724L103.538 95.2617C103.538 95.2864 103.554 97.7677 103.538 99.9002Z" fill="#371A45"/>
<path d="M75.1763 81.0207C75.38 80.2083 75.5945 79.4173 75.8163 78.625C76.0381 77.8326 76.2692 77.043 76.5084 76.2566C76.9874 74.684 77.5032 73.124 78.0791 71.5928C77.8265 73.2089 77.6395 74.8283 77.4918 76.4491C77.4184 77.2601 77.3535 78.0709 77.2974 78.8815C77.2426 79.6899 77.1932 80.507 77.1598 81.3053L75.1763 81.0207Z" fill="#371A45"/>
<path d="M67.8661 85.2082C67.7419 85.2085 67.6192 85.181 67.5069 85.1278C67.3947 85.0745 67.2957 84.9969 67.2173 84.9006C67.1389 84.8042 67.083 84.6916 67.0536 84.5708C67.0243 84.4501 67.0223 84.3244 67.0477 84.2028C67.977 79.742 66.1351 75.8063 66.1164 75.7669C66.0206 75.5672 66.008 75.3376 66.0814 75.1287C66.1548 74.9197 66.3082 74.7484 66.5079 74.6526C66.7076 74.5567 66.9372 74.5441 67.1462 74.6175C67.3552 74.6909 67.5264 74.8444 67.6223 75.0441C67.7085 75.2244 69.7308 79.5122 68.6832 84.5435C68.6441 84.7313 68.5415 84.8999 68.3927 85.0209C68.2439 85.142 68.058 85.2081 67.8661 85.2082Z" fill="#371A45"/>
<path d="M37.6736 83.4608C37.5343 83.461 37.3972 83.4262 37.2748 83.3597C37.1523 83.2932 37.0485 83.197 36.9728 83.08L35.8725 81.3858C35.7924 81.263 35.7462 81.1212 35.7385 80.9748C35.7307 80.8284 35.7617 80.6826 35.8284 80.552L43.5688 65.3385C43.6183 65.2404 43.6867 65.1531 43.7701 65.0815C43.8535 65.0099 43.9501 64.9554 44.0546 64.9213C44.159 64.8871 44.2692 64.8739 44.3787 64.8824C44.4883 64.8909 44.5951 64.9209 44.693 64.9707C44.7909 65.0206 44.8781 65.0893 44.9494 65.1728C45.0207 65.2564 45.0749 65.3533 45.1087 65.4578C45.1426 65.5624 45.1554 65.6725 45.1466 65.7821C45.1378 65.8916 45.1074 65.9983 45.0573 66.0961L37.5354 80.8801L38.3731 82.1741C38.455 82.3001 38.5013 82.4459 38.5073 82.596C38.5132 82.7461 38.4786 82.8951 38.407 83.0271C38.3354 83.1592 38.2294 83.2695 38.1004 83.3464C37.9713 83.4234 37.8239 83.464 37.6736 83.4642V83.4608Z" fill="#371A45"/>
<path d="M33.0387 82.3378C32.8287 82.338 32.6264 82.259 32.4721 82.1166C32.3177 81.9743 32.2227 81.7791 32.2058 81.5698C32.189 81.3605 32.2516 81.1525 32.3811 80.9873C32.5107 80.8222 32.6978 80.7118 32.905 80.6783L36.4385 80.1065C36.6572 80.071 36.8809 80.1239 37.0606 80.2534C37.2403 80.383 37.3611 80.5786 37.3965 80.7973C37.432 81.0159 37.3791 81.2397 37.2496 81.4193C37.12 81.599 36.9244 81.7198 36.7058 81.7553L33.1723 82.3272C33.1281 82.3343 33.0834 82.3379 33.0387 82.3378Z" fill="#371A45"/>
<path d="M128.801 53.8109C128.717 53.8022 128.633 53.7991 128.549 53.8015L128.242 53.8109C128.031 53.8249 127.818 53.8423 127.602 53.8697C127.17 53.9191 126.734 53.9979 126.297 54.0861C125.412 54.2759 124.541 54.5195 123.686 54.8157C122.818 55.1023 121.97 55.455 121.122 55.8178L119.864 56.4017L118.623 57.0324L119.734 56.1872L120.879 55.3842C121.657 54.8664 122.448 54.3554 123.278 53.9024C124.111 53.4328 124.972 53.0145 125.856 52.6498C126.304 52.4707 126.76 52.2997 127.233 52.156C127.469 52.0812 127.711 52.0164 127.957 51.9556L128.338 51.8734C128.483 51.843 128.63 51.8207 128.778 51.8066L128.801 53.8109Z" fill="#371A45"/>
<g opacity="0.3">
<path d="M65.0605 91.7748C65.0605 91.7748 62.5218 101.462 80.0556 99.2105C97.5894 96.9591 109.154 81.9206 110.181 76.8298C111.208 71.739 121.943 71.5927 117.2 85.6939C117.2 85.6939 109.702 89.3496 112.625 95.4906L116.499 94.1598C116.499 94.1598 109.147 98.0768 114.38 103.847C114.38 103.847 108.088 101.491 103.245 100.6C98.4011 99.7089 91.1163 100.423 88.8255 101.435C86.5346 102.447 72.1602 105.007 66.0439 101.398C59.9277 97.7888 65.0605 91.7748 65.0605 91.7748Z" fill="#371A45"/>
</g>
<g opacity="0.3">
<path d="M131.624 87.776C131.643 88.0985 131.563 88.419 131.396 88.6956C131.229 88.9722 130.983 89.1919 130.689 89.326C129.042 90.0909 125.328 91.6709 119.692 93.2944C120.013 92.8768 120.481 92.5027 121.119 92.192C127.158 89.2425 124.115 82.7654 124.115 82.7654C125.441 82.1341 126.804 81.4393 128.184 80.681C128.393 80.564 128.626 80.495 128.865 80.4791C129.104 80.4632 129.344 80.5008 129.567 80.5891C129.79 80.6773 129.99 80.8141 130.154 80.9895C130.317 81.1648 130.44 81.3744 130.512 81.603C131.131 83.608 131.505 85.6809 131.624 87.776Z" fill="#371A45"/>
</g>
<g opacity="0.3">
<path d="M43.3388 67.6338C46.9237 73.6532 47.6145 78.4915 42.4355 80.9286L47.0687 80.6514L49.574 75.4043L44.9576 66.8154H44.3129" fill="#371A45"/>
</g>
<g opacity="0.3">
<path d="M84.398 80.3766C84.398 80.3766 75.6929 80.706 77.4547 74.1729C77.4547 74.1729 74.6774 82.0322 64.7144 80.386L67.3199 83.8821L70.4839 83.9896L72.3759 84.484L74.9193 81.6246C74.9193 81.6246 76.339 80.5944 76.5895 80.6506" fill="#371A45"/>
</g>
</svg>
